# FamiTracker text export 0.4.2

# Song information
TITLE           ""
AUTHOR          ""
COPYRIGHT       ""

# Song comment
COMMENT ""

# Global settings
MACHINE         0
FRAMERATE       0
EXPANSION       0
VIBRATO         1
SPLIT           32

# Macros
MACRO       0   0  -1  -1   0 : 0
MACRO       0   1  -1  -1   0 : 11 9 7 6 5 4 3 2 0
MACRO       0   2  -1  -1   0 : 5 4 3 2 1 1 1 0
MACRO       0   3  -1  -1   0 : 7
MACRO       0   4  -1  -1   0 : 5 7
MACRO       0   5  -1  -1   0 : 3 4
MACRO       0   6  -1  -1   0 : 4
MACRO       0   7  -1  -1   0 : 4 3 2 1 1 1 0
MACRO       0   8  -1  -1   0 : 2 4 5 6 5 3 2 0 1
MACRO       0   9  -1  -1   0 : 3 5 7 8 8 7 5 3 1 0 1
MACRO       0  10  -1  -1   0 : 5 7 9 11 12 13 12 11 8 7 6 4 0 1
MACRO       0  11  -1  -1   0 : 0 1 1 2 2 3 3 5 7
MACRO       0  12  -1  -1   0 : 5
MACRO       0  13  -1  -1   0 : 13 9 9
MACRO       1   0  -1  -1   0 : -24 -12 0
MACRO       1   1   0  -1   0 : 0 -1 -3 -5
MACRO       1   2  -1  -1   0 : -2 0
MACRO       1   3   0  -1   0 : 0 -12
MACRO       1   4  -1  -1   0 : 1 0 0
MACRO       1   5   0  -1   0 : 0 -12 -12 -12 -12
MACRO       1   6  -1  -1   0 : -2 0
MACRO       2   0   3  -1   0 : 0 0 0 0 -1 -3 -1 0 1 3 1 0
MACRO       2   1   5  -1   0 : 0 0 0 0 0 -1 -1 -3 -3 -1 -1 0 0 1 1 3 3 1 1 0
MACRO       2   2   0  -1   0 : 0 -3 0 3 0
MACRO       2   3   0  -1   0 : 62
MACRO       4   0  -1  -1   0 : 1 0
MACRO       4   1  -1  -1   0 : 2 1
MACRO       4   2  -1  -1   0 : 0 2
MACRO       4   3  -1  -1   0 : 0
MACRO       4   4  -1  -1   0 : 0 2 1
MACRO       4   5  -1  -1   0 : 2 1

# DPCM samples

# Instruments
INST2A03   0     0  -1  -1  -1  -1 "blank"
INST2A03   1     1   4  -1  -1   0 "drum1"
INST2A03   2     2   1  -1  -1   1 "drum2 "
INST2A03   3     3   0  -1  -1  -1 "tridrum"
INST2A03   4     3  -1  -1  -1  -1 "trisus"
INST2A03   5     4  -1   0  -1   1 "lead1"
INST2A03   6     5  -1   0  -1   1 "lead2"
INST2A03   7     6   2   1  -1   2 "harmony"
INST2A03   8     7   3   0  -1   2 "harmony2"
INST2A03   9     8  -1  -1  -1  -1 "BowedQuiet"
INST2A03  10     9  -1  -1  -1  -1 "BowedMid"
INST2A03  11    10  -1   1  -1  -1 "BowedLoud"
INST2A03  12    11  -1  -1  -1   2 "Wind"
INST2A03  13    11   5  -1  -1   2 "WindArp"
INST2A03  14    12  -1   1  -1   3 "New"
INST2A03  15    13  -1   2  -1   4 "arcadefx1"
INST2A03  16     1  -1   3  -1   5 "fx2"

# Tracks

TRACK  64   6 150 "future"
COLUMNS : 1 1 1 1 1

ORDER 00 : 00 00 00 02 00
ORDER 01 : 01 01 00 00 00
ORDER 02 : 01 02 00 00 00
ORDER 03 : 01 01 00 00 00
ORDER 04 : 02 03 01 00 00
ORDER 05 : 02 03 01 01 00
ORDER 06 : 00 00 00 02 00

PATTERN 00
ROW 00 : ... .. . ... : D-3 05 . ... : D-3 03 . ... : 0-# 01 . ... : ... .. . ...
ROW 01 : D-3 06 . ... : ... .. . ... : D-3 03 . ... : --- .. . ... : ... .. . ...
ROW 02 : ... .. . ... : ... .. . ... : D-3 03 . ... : 9-# 02 . ... : ... .. . ...
ROW 03 : ... .. . ... : ... .. . ... : ... .. . ... : ... .. . ... : ... .. . ...
ROW 04 : ... .. . ... : D-1 01 . ... : D-3 03 . ... : 5-# 01 . ... : ... .. . ...
ROW 05 : D-2 01 . ... : D-3 05 . ... : ... .. . ... : ... .. . ... : ... .. . ...
ROW 06 : D-3 06 . ... : ... .. . ... : F-3 04 . ... : 9-# 02 . ... : ... .. . ...
ROW 07 : ... .. . ... : ... .. . ... : ... .. . ... : ... .. . ... : ... .. . ...
ROW 08 : ... .. . ... : F-3 05 . ... : ... .. . ... : 7-# 02 . ... : ... .. . ...
ROW 09 : F-3 06 . ... : ... .. . ... : ... .. . ... : ... .. . ... : ... .. . ...
ROW 0A : ... .. . ... : G-3 05 . ... : G-3 03 . ... : 0-# 01 . ... : ... .. . ...
ROW 0B : G-3 06 . ... : ... .. . ... : ... .. . ... : --- .. . ... : ... .. . ...
ROW 0C : ... .. . ... : D-1 01 . ... : ... .. . ... : 4-# 01 . ... : ... .. . ...
ROW 0D : D-2 01 . ... : A-3 05 . ... : G-3 03 . ... : 0-# 01 . ... : ... .. . ...
ROW 0E : A-3 06 . ... : ... .. . ... : G-3 03 . ... : 0-# 01 . ... : ... .. . ...
ROW 0F : ... .. . ... : ... .. . ... : ... .. . ... : --- 01 . ... : ... .. . ...
ROW 10 : ... .. . ... : ... .. . ... : D-3 04 . ... : 0-# 01 . ... : ... .. . ...
ROW 11 : ... .. . ... : ... .. . ... : ... .. . ... : --- .. . ... : ... .. . ...
ROW 12 : ... .. . ... : ... .. . ... : ... .. . ... : 9-# 02 . ... : ... .. . ...
ROW 13 : ... .. . ... : ... .. . ... : ... .. . ... : ... .. . ... : ... .. . ...
ROW 14 : ... .. . ... : D-1 01 . ... : ... .. . ... : 5-# 01 . ... : ... .. . ...
ROW 15 : D-2 01 . ... : G-3 05 . ... : ... .. . ... : B-# 02 . ... : ... .. . ...
ROW 16 : G-3 06 . ... : ... .. . ... : F-3 04 . ... : 9-# 02 . ... : ... .. . ...
ROW 17 : ... .. . ... : ... .. . ... : ... .. . ... : ... .. . ... : ... .. . ...
ROW 18 : ... .. . ... : F-3 05 . ... : ... .. . ... : 7-# 02 . ... : ... .. . ...
ROW 19 : F-3 06 . ... : ... .. . ... : ... .. . ... : ... .. . ... : ... .. . ...
ROW 1A : ... .. . ... : ... .. . ... : D-3 03 . ... : 0-# 01 . ... : ... .. . ...
ROW 1B : ... .. . ... : ... .. . ... : D-3 03 . ... : 0-# 01 . ... : ... .. . ...
ROW 1C : ... .. . ... : D-1 01 . ... : C-3 03 . ... : 4-# 01 . ... : ... .. . ...
ROW 1D : D-2 01 . ... : G-3 05 . ... : C#3 03 . ... : ... .. . ... : ... .. . ...
ROW 1E : G-3 06 . ... : ... .. . ... : D-3 03 . ... : 0-# 01 . ... : ... .. . ...
ROW 1F : ... .. . ... : ... .. . ... : ... .. . ... : --- 01 . ... : ... .. . ...
ROW 20 : ... .. . ... : D-3 05 . ... : D-3 04 . ... : 0-# 01 . ... : ... .. . ...
ROW 21 : D-3 06 . ... : ... .. . ... : ... .. . ... : --- .. . ... : ... .. . ...
ROW 22 : ... .. . ... : ... .. . ... : D-3 03 . ... : 9-# 02 . ... : ... .. . ...
ROW 23 : ... .. . ... : ... .. . ... : ... .. . ... : ... .. . ... : ... .. . ...
ROW 24 : ... .. . ... : D-1 01 . ... : ... .. . ... : 5-# 01 . ... : ... .. . ...
ROW 25 : D-2 01 . ... : F-3 05 . ... : ... .. . ... : ... .. . ... : ... .. . ...
ROW 26 : F-3 06 . ... : ... .. . ... : F-3 04 . ... : 9-# 02 . ... : ... .. . ...
ROW 27 : ... .. . ... : ... .. . ... : ... .. . ... : ... .. . ... : ... .. . ...
ROW 28 : ... .. . ... : E-3 05 . ... : ... .. . ... : 7-# 02 . ... : ... .. . ...
ROW 29 : E-3 06 . ... : ... .. . ... : ... .. . ... : ... .. . ... : ... .. . ...
ROW 2A : ... .. . ... : ... .. . ... : G-3 03 . ... : 0-# 01 . ... : ... .. . ...
ROW 2B : ... .. . ... : ... .. . ... : ... .. . ... : --- .. . ... : ... .. . ...
ROW 2C : ... .. . ... : D-1 01 . ... : ... .. . ... : 4-# 01 . ... : ... .. . ...
ROW 2D : D-2 01 . ... : G-3 05 . ... : ... .. . ... : ... .. . ... : ... .. . ...
ROW 2E : G-3 06 . ... : ... .. . ... : G-3 03 . ... : 0-# 01 . ... : ... .. . ...
ROW 2F : ... .. . ... : ... .. . ... : ... .. . ... : --- 01 . ... : ... .. . ...
ROW 30 : ... .. . ... : C-4 05 . ... : C-3 03 . ... : 0-# 01 . ... : ... .. . ...
ROW 31 : C-4 06 . ... : ... .. . ... : --- .. . ... : --- .. . ... : ... .. . ...
ROW 32 : ... .. . ... : G-3 05 . ... : C-3 04 . ... : 9-# 02 . ... : ... .. . ...
ROW 33 : G-3 06 . ... : ... .. . ... : --- .. . ... : ... .. . ... : ... .. . ...
ROW 34 : ... .. . ... : D-1 01 . ... : C-2 04 . ... : 5-# 01 . ... : ... .. . ...
ROW 35 : D-2 01 . ... : G-3 05 . ... : C-3 03 . ... : 0-# 01 . ... : ... .. . ...
ROW 36 : G-3 06 . ... : A-3 05 . ... : C-3 03 . ... : 9-# 02 . ... : ... .. . ...
ROW 37 : A-3 06 . ... : ... .. . ... : --- .. . ... : 8-# 02 . ... : ... .. . ...
ROW 38 : ... .. . ... : ... .. . ... : C-3 04 . ... : 9-# 02 . ... : ... .. . ...
ROW 39 : ... .. . ... : ... .. . ... : C-3 03 . ... : 0-# 01 . ... : ... .. . ...
ROW 3A : ... .. . ... : ... .. . ... : C-3 03 . ... : 0-# 01 . ... : ... .. . ...
ROW 3B : ... .. . ... : ... .. . ... : --- .. . ... : --- .. . ... : ... .. . ...
ROW 3C : ... .. . ... : D-1 01 . ... : C-2 04 . ... : 4-# 01 . ... : ... .. . ...
ROW 3D : D-2 01 . ... : A-3 05 . ... : C-3 03 . ... : 0-# 01 . ... : ... .. . ...
ROW 3E : A-3 06 . ... : ... .. . ... : C#3 03 . ... : 0-# 01 . ... : ... .. . ...
ROW 3F : ... .. . ... : ... .. . ... : ... .. . ... : --- 01 . ... : ... .. . ...

PATTERN 01
ROW 00 : D-3 08 . ... : F-4 05 . ... : G-3 03 . ... : 0-# 01 . ... : ... .. . ...
ROW 01 : ... .. . ... : ... .. . ... : ... .. . ... : C-# 02 . ... : ... .. . ...
ROW 02 : ... .. . ... : ... .. . ... : ... .. . ... : B-# 02 . ... : ... .. . ...
ROW 03 : ... .. . ... : F-4 06 . ... : ... .. . ... : B-# 02 . ... : ... .. . ...
ROW 04 : D-5 08 . ... : D-1 01 . ... : ... .. . ... : 5-# 01 . ... : ... .. . ...
ROW 05 : ... .. . ... : D-4 05 . ... : ... .. . ... : 9-# 02 . ... : ... .. . ...
ROW 06 : ... .. . ... : ... .. . ... : ... .. . ... : 8-# 02 . ... : ... .. . ...
ROW 07 : ... .. . ... : D-4 06 . ... : ... .. . ... : 7-# 02 . ... : ... .. . ...
ROW 08 : F-3 08 . ... : F-4 05 . ... : F-3 04 . ... : 6-# 02 . ... : ... .. . ...
ROW 09 : F-3 08 . ... : F-4 06 . ... : F#3 04 . ... : 5-# 02 . ... : ... .. . ...
ROW 0A : G-3 08 . ... : D-4 05 . ... : G-3 03 . ... : 0-# 01 . ... : ... .. . ...
ROW 0B : G-3 08 . ... : ... .. . ... : ... .. . ... : 9-# 02 . ... : ... .. . ...
ROW 0C : A-4 08 . ... : D-1 01 . ... : ... .. . ... : 4-# 01 . ... : ... .. . ...
ROW 0D : ... .. . ... : D-4 06 . ... : G-3 03 . ... : 0-# 01 . ... : ... .. . ...
ROW 0E : ... .. . ... : C-4 05 . ... : G-3 03 . ... : 0-# 01 . ... : ... .. . ...
ROW 0F : ... .. . ... : ... .. . ... : ... .. . ... : 0-# 02 . ... : ... .. . ...
ROW 10 : A-2 08 . ... : ... .. . ... : G-3 03 . ... : 0-# 01 . ... : ... .. . ...
ROW 11 : ... .. . ... : ... .. . ... : ... .. . ... : 0-# 01 . ... : ... .. . ...
ROW 12 : A-3 08 . ... : ... .. . ... : ... .. . ... : 9-# 02 . ... : ... .. . ...
ROW 13 : A-3 08 . ... : C-4 06 . ... : ... .. . ... : A-# 02 . ... : ... .. . ...
ROW 14 : D-5 08 . ... : D-1 01 . ... : ... .. . ... : 5-# 01 . ... : ... .. . ...
ROW 15 : G-3 08 . ... : D-4 05 . ... : ... .. . ... : B-# 02 . ... : ... .. . ...
ROW 16 : ... .. . ... : ... .. . ... : ... .. . ... : C-# 02 . ... : ... .. . ...
ROW 17 : G-3 08 . ... : D-4 06 . ... : ... .. . ... : D-# 02 . ... : ... .. . ...
ROW 18 : F-3 08 . ... : C-4 05 . ... : ... .. . ... : 9-# 02 . ... : ... .. . ...
ROW 19 : ... .. . ... : C-4 06 . ... : ... .. . ... : F-# 02 . ... : ... .. . ...
ROW 1A : ... .. . ... : D-4 05 . ... : F-3 03 . ... : 0-# 01 . ... : ... .. . ...
ROW 1B : F-3 08 . ... : D-4 06 . ... : F#3 03 . ... : 0-# 01 . ... : ... .. . ...
ROW 1C : D-5 08 . ... : D-1 01 . ... : G-3 04 . ... : 4-# 01 . ... : ... .. . ...
ROW 1D : G-3 08 . ... : E-4 05 . ... : ... .. . ... : B-# 02 . ... : ... .. . ...
ROW 1E : ... .. . ... : ... .. . ... : ... .. . ... : 0-# 01 . ... : ... .. . ...
ROW 1F : G-3 08 . ... : ... .. . ... : ... .. . ... : 9-# 02 . ... : ... .. . ...
ROW 20 : D-3 08 . ... : ... .. . ... : F-3 03 . ... : 0-# 01 . ... : ... .. . ...
ROW 21 : ... .. . ... : E-4 06 . ... : ... .. . ... : 2-# 02 . ... : ... .. . ...
ROW 22 : ... .. . ... : A-3 05 . ... : ... .. . ... : 3-# 02 . ... : ... .. . ...
ROW 23 : D-3 08 . ... : A-3 06 . ... : ... .. . ... : 4-# 02 . ... : ... .. . ...
ROW 24 : F-5 08 . ... : D-1 01 . ... : ... .. . ... : 5-# 01 . ... : ... .. . ...
ROW 25 : F-3 08 . ... : C-4 05 . ... : ... .. . ... : 5-# 02 . ... : ... .. . ...
ROW 26 : ... .. . ... : E-4 05 . ... : F-3 03 . ... : 6-# 02 . ... : ... .. . ...
ROW 27 : F-3 08 . ... : E-4 06 . ... : ... .. . ... : 7-# 02 . ... : ... .. . ...
ROW 28 : E-3 08 . ... : A-3 05 . ... : D#3 04 . ... : 8-# 02 . ... : ... .. . ...
ROW 29 : E-3 08 . ... : A-3 06 . ... : E-3 04 . ... : 9-# 02 . ... : ... .. . ...
ROW 2A : ... .. . ... : C-4 05 . ... : F-3 03 . ... : 0-# 01 . ... : ... .. . ...
ROW 2B : E-3 08 . ... : C-4 06 . ... : ... .. . ... : 0-# 01 . ... : ... .. . ...
ROW 2C : D-5 08 . ... : D-1 01 . ... : ... .. . ... : 4-# 01 . ... : ... .. . ...
ROW 2D : G-3 08 . ... : E-4 05 . ... : ... .. . ... : ... .. . ... : ... .. . ...
ROW 2E : ... .. . ... : A-3 05 . ... : F-3 03 . ... : 0-# 01 . ... : ... .. . ...
ROW 2F : G-3 08 . ... : A-3 06 . ... : ... .. . ... : --- 01 . ... : ... .. . ...
ROW 30 : C-4 08 . ... : C-4 05 . ... : A#3 03 . ... : 0-# 01 . ... : ... .. . ...
ROW 31 : C-3 08 . ... : C-4 06 . ... : ... .. . ... : --- .. . ... : ... .. . ...
ROW 32 : ... .. . ... : A-3 05 . ... : F#3 04 . ... : 9-# 02 . ... : ... .. . ...
ROW 33 : C-4 08 . ... : ... .. . ... : G-3 04 . ... : ... .. . ... : ... .. . ...
ROW 34 : C-5 08 . ... : D-1 01 . ... : A#4 03 . ... : 5-# 01 . ... : ... .. . ...
ROW 35 : G-3 08 . ... : A-3 05 . ... : A#3 03 . ... : 0-# 01 . ... : ... .. . ...
ROW 36 : ... .. . ... : ... .. . ... : ... .. . ... : B-# 02 . ... : ... .. . ...
ROW 37 : G-3 08 . ... : ... .. . ... : A#3 03 . ... : C-# 02 . ... : ... .. . ...
ROW 38 : A-3 08 . ... : ... .. . ... : ... .. . ... : E-# 02 . ... : ... .. . ...
ROW 39 : A-2 08 . ... : ... .. . ... : A#3 03 . ... : 0-# 01 . ... : ... .. . ...
ROW 3A : A-2 08 . ... : ... .. . ... : A#3 03 . ... : 0-# 01 . ... : ... .. . ...
ROW 3B : ... .. . ... : ... .. . ... : ... .. . ... : 5-# 01 . ... : ... .. . ...
ROW 3C : C-5 08 . ... : D-1 01 . ... : A#4 03 . ... : 4-# 01 . ... : ... .. . ...
ROW 3D : A-3 08 . ... : A-3 06 . ... : A#3 03 . ... : 2-# 01 . ... : ... .. . ...
ROW 3E : ... .. . ... : ... .. . ... : A#3 03 . ... : 2-# 01 . ... : ... .. . ...
ROW 3F : A-3 08 . ... : ... .. . ... : ... .. . ... : 7-# 01 . ... : ... .. . ...

PATTERN 02
ROW 00 : D-3 07 . ... : A-3 06 . ... : ... .. . ... : 0-# 01 . ... : ... .. . ...
ROW 01 : ... .. . ... : ... .. . ... : ... .. . ... : --- .. . ... : ... .. . ...
ROW 02 : ... .. . ... : ... .. . ... : ... .. . ... : 9-# 02 . ... : ... .. . ...
ROW 03 : ... .. . ... : ... .. . ... : ... .. . ... : ... .. . ... : ... .. . ...
ROW 04 : D-5 08 . ... : D-1 01 . ... : ... .. . ... : 5-# 01 . ... : ... .. . ...
ROW 05 : D-3 07 . ... : F-4 05 . ... : ... .. . ... : ... .. . ... : ... .. . ...
ROW 06 : ... .. . ... : E-4 05 . ... : ... .. . ... : 9-# 02 . ... : ... .. . ...
ROW 07 : ... .. . ... : E-4 06 . ... : ... .. . ... : ... .. . ... : ... .. . ...
ROW 08 : C-3 07 . ... : F-4 05 . ... : ... .. . ... : 7-# 0C . ... : ... .. . ...
ROW 09 : C#3 07 . ... : ... .. . ... : ... .. . ... : ... .. . ... : ... .. . ...
ROW 0A : D-3 07 . ... : ... .. . ... : ... .. . ... : 0-# 01 . ... : ... .. . ...
ROW 0B : ... .. . ... : ... .. . ... : ... .. . ... : --- .. . ... : ... .. . ...
ROW 0C : D-5 08 . ... : D-1 01 . ... : ... .. . ... : 4-# 01 . ... : ... .. . ...
ROW 0D : D-3 07 . ... : F-4 05 . ... : ... .. . ... : 0-# 01 . ... : ... .. . ...
ROW 0E : ... .. . ... : ... .. . ... : ... .. . ... : 0-# 01 . ... : ... .. . ...
ROW 0F : ... .. . ... : F-4 06 . ... : ... .. . ... : --- 01 . ... : ... .. . ...
ROW 10 : ... .. . ... : D-4 05 . ... : ... .. . ... : 0-# 01 . ... : ... .. . ...
ROW 11 : ... .. . ... : D-4 06 . ... : ... .. . ... : --- .. . ... : ... .. . ...
ROW 12 : ... .. . ... : C-4 05 . ... : ... .. . ... : 9-# 02 . ... : ... .. . ...
ROW 13 : ... .. . ... : C-4 06 . ... : ... .. . ... : ... .. . ... : ... .. . ...
ROW 14 : C-6 08 . ... : D-1 01 . ... : ... .. . ... : 5-# 01 . ... : ... .. . ...
ROW 15 : C#3 07 . ... : E-4 05 . ... : ... .. . ... : B-# 02 . ... : ... .. . ...
ROW 16 : D-3 07 . ... : ... .. . ... : ... .. . ... : 9-# 02 . ... : ... .. . ...
ROW 17 : ... .. . ... : ... .. . ... : ... .. . ... : ... .. . ... : ... .. . ...
ROW 18 : ... .. . ... : ... .. . ... : ... .. . ... : 7-# 0C . ... : ... .. . ...
ROW 19 : ... .. . ... : ... .. . ... : ... .. . ... : ... .. . ... : ... .. . ...
ROW 1A : C-3 07 . ... : ... .. . ... : ... .. . ... : 0-# 01 . ... : ... .. . ...
ROW 1B : C#3 07 . ... : E-4 06 . ... : ... .. . ... : 0-# 01 . ... : ... .. . ...
ROW 1C : D-5 08 . ... : D-1 01 . ... : ... .. . ... : 4-# 01 . ... : ... .. . ...
ROW 1D : D-3 07 . ... : D-4 05 . ... : ... .. . ... : ... .. . ... : ... .. . ...
ROW 1E : ... .. . ... : C-4 05 . ... : ... .. . ... : 0-# 01 . ... : ... .. . ...
ROW 1F : ... .. . ... : C-4 06 . ... : ... .. . ... : --- 01 . ... : ... .. . ...
ROW 20 : C-3 07 . ... : A-3 05 . ... : ... .. . ... : 0-# 01 . ... : ... .. . ...
ROW 21 : ... .. . ... : ... .. . ... : ... .. . ... : --- .. . ... : ... .. . ...
ROW 22 : ... .. . ... : ... .. . ... : ... .. . ... : 9-# 02 . ... : ... .. . ...
ROW 23 : ... .. . ... : ... .. . ... : ... .. . ... : ... .. . ... : ... .. . ...
ROW 24 : C-2 01 . ... : D-1 01 . ... : ... .. . ... : 5-# 01 . ... : ... .. . ...
ROW 25 : C-3 07 . ... : A-3 05 . ... : ... .. . ... : ... .. . ... : ... .. . ...
ROW 26 : ... .. . ... : ... .. . ... : ... .. . ... : 9-# 02 . ... : ... .. . ...
ROW 27 : ... .. . ... : ... .. . ... : ... .. . ... : ... .. . ... : ... .. . ...
ROW 28 : A#2 07 . ... : ... .. . ... : ... .. . ... : 7-# 0C . ... : ... .. . ...
ROW 29 : B-2 07 . ... : ... .. . ... : ... .. . ... : ... .. . ... : ... .. . ...
ROW 2A : C-3 07 . ... : ... .. . ... : ... .. . ... : 0-# 01 . ... : ... .. . ...
ROW 2B : ... .. . ... : A-3 06 . ... : ... .. . ... : --- .. . ... : ... .. . ...
ROW 2C : C-2 01 . ... : D-1 01 . ... : ... .. . ... : 4-# 01 . ... : ... .. . ...
ROW 2D : C-3 07 . ... : G-3 05 . ... : ... .. . ... : ... .. . ... : ... .. . ...
ROW 2E : ... .. . ... : C-4 05 . ... : ... .. . ... : 0-# 01 . ... : ... .. . ...
ROW 2F : ... .. . ... : C-4 06 . ... : ... .. . ... : --- 01 . ... : ... .. . ...
ROW 30 : A#2 07 . ... : B-3 05 . ... : ... .. . ... : 0-# 01 . ... : ... .. . ...
ROW 31 : B-2 07 . ... : ... .. . ... : ... .. . ... : --- .. . ... : ... .. . ...
ROW 32 : C-3 07 . ... : ... .. . ... : ... .. . ... : 9-# 02 . ... : ... .. . ...
ROW 33 : ... .. . ... : ... .. . ... : ... .. . ... : ... .. . ... : ... .. . ...
ROW 34 : C-2 01 . ... : D-1 01 . ... : ... .. . ... : 5-# 01 . ... : ... .. . ...
ROW 35 : C-3 07 . ... : B-3 05 . ... : ... .. . ... : 0-# 01 . ... : ... .. . ...
ROW 36 : ... .. . ... : ... .. . ... : ... .. . ... : 9-# 02 . ... : ... .. . ...
ROW 37 : ... .. . ... : ... .. . ... : ... .. . ... : 8-# 02 . ... : ... .. . ...
ROW 38 : A#2 07 . ... : ... .. . ... : ... .. . ... : 9-# 02 . ... : ... .. . ...
ROW 39 : B-2 07 . ... : ... .. . ... : ... .. . ... : 0-# 01 . ... : ... .. . ...
ROW 3A : C-3 07 . ... : ... .. . ... : ... .. . ... : 0-# 01 . ... : ... .. . ...
ROW 3B : ... .. . ... : ... .. . ... : ... .. . ... : --- .. . ... : ... .. . ...
ROW 3C : C-2 01 . ... : D-1 01 . ... : ... .. . ... : 4-# 01 . ... : ... .. . ...
ROW 3D : C-3 07 . ... : B-3 05 . ... : ... .. . ... : 0-# 01 . ... : ... .. . ...
ROW 3E : C-2 01 . ... : ... .. . ... : ... .. . ... : 0-# 01 . ... : ... .. . ...
ROW 3F : C-3 07 . ... : B-3 06 . ... : ... .. . ... : --- 01 . ... : ... .. . ...

PATTERN 03
ROW 00 : ... .. . ... : G-3 05 . ... : ... .. . ... : ... .. . ... : ... .. . ...
ROW 01 : ... .. . ... : ... .. . ... : ... .. . ... : ... .. . ... : ... .. . ...
ROW 02 : ... .. . ... : ... .. . ... : ... .. . ... : ... .. . ... : ... .. . ...
ROW 03 : ... .. . ... : ... .. . ... : ... .. . ... : ... .. . ... : ... .. . ...
ROW 04 : ... .. . ... : D-1 01 . ... : ... .. . ... : ... .. . ... : ... .. . ...
ROW 05 : ... .. . ... : G-3 06 . ... : ... .. . ... : ... .. . ... : ... .. . ...
ROW 06 : ... .. . ... : C-4 05 . ... : ... .. . ... : ... .. . ... : ... .. . ...
ROW 07 : ... .. . ... : C-4 06 . ... : ... .. . ... : ... .. . ... : ... .. . ...
ROW 08 : ... .. . ... : D-4 05 . ... : ... .. . ... : ... .. . ... : ... .. . ...
ROW 09 : ... .. . ... : ... .. . ... : ... .. . ... : ... .. . ... : ... .. . ...
ROW 0A : ... .. . ... : ... .. . ... : ... .. . ... : ... .. . ... : ... .. . ...
ROW 0B : ... .. . ... : ... .. . ... : ... .. . ... : ... .. . ... : ... .. . ...
ROW 0C : ... .. . ... : D-1 01 . ... : ... .. . ... : ... .. . ... : ... .. . ...
ROW 0D : ... .. . ... : D-4 06 . ... : ... .. . ... : ... .. . ... : ... .. . ...
ROW 0E : ... .. . ... : E-4 05 . ... : ... .. . ... : ... .. . ... : ... .. . ...
ROW 0F : ... .. . ... : E-4 06 . ... : ... .. . ... : ... .. . ... : ... .. . ...
ROW 10 : ... .. . ... : D-4 05 . ... : ... .. . ... : ... .. . ... : ... .. . ...
ROW 11 : ... .. . ... : ... .. . ... : ... .. . ... : ... .. . ... : ... .. . ...
ROW 12 : ... .. . ... : ... .. . ... : ... .. . ... : ... .. . ... : ... .. . ...
ROW 13 : ... .. . ... : ... .. . ... : ... .. . ... : ... .. . ... : ... .. . ...
ROW 14 : ... .. . ... : D-1 01 . ... : ... .. . ... : ... .. . ... : ... .. . ...
ROW 15 : ... .. . ... : D-4 05 . ... : ... .. . ... : ... .. . ... : ... .. . ...
ROW 16 : ... .. . ... : ... .. . ... : ... .. . ... : ... .. . ... : ... .. . ...
ROW 17 : ... .. . ... : ... .. . ... : ... .. . ... : ... .. . ... : ... .. . ...
ROW 18 : ... .. . ... : ... .. . ... : ... .. . ... : ... .. . ... : ... .. . ...
ROW 19 : ... .. . ... : ... .. . ... : ... .. . ... : ... .. . ... : ... .. . ...
ROW 1A : ... .. . ... : ... .. . ... : ... .. . ... : ... .. . ... : ... .. . ...
ROW 1B : ... .. . ... : D-4 06 . ... : ... .. . ... : ... .. . ... : ... .. . ...
ROW 1C : ... .. . ... : D-1 01 . ... : ... .. . ... : ... .. . ... : ... .. . ...
ROW 1D : ... .. . ... : G-4 05 . ... : ... .. . ... : ... .. . ... : ... .. . ...
ROW 1E : ... .. . ... : F-4 05 . ... : ... .. . ... : ... .. . ... : ... .. . ...
ROW 1F : ... .. . ... : F-4 06 . ... : ... .. . ... : ... .. . ... : ... .. . ...
ROW 20 : ... .. . ... : E-4 05 . ... : ... .. . ... : ... .. . ... : ... .. . ...
ROW 21 : ... .. . ... : ... .. . ... : ... .. . ... : ... .. . ... : ... .. . ...
ROW 22 : ... .. . ... : ... .. . ... : ... .. . ... : ... .. . ... : ... .. . ...
ROW 23 : ... .. . ... : E-4 06 . ... : ... .. . ... : ... .. . ... : ... .. . ...
ROW 24 : ... .. . ... : D-1 01 . ... : ... .. . ... : ... .. . ... : ... .. . ...
ROW 25 : ... .. . ... : C-4 05 . ... : ... .. . ... : ... .. . ... : ... .. . ...
ROW 26 : ... .. . ... : ... .. . ... : ... .. . ... : ... .. . ... : ... .. . ...
ROW 27 : ... .. . ... : ... .. . ... : ... .. . ... : ... .. . ... : ... .. . ...
ROW 28 : ... .. . ... : ... .. . ... : ... .. . ... : ... .. . ... : ... .. . ...
ROW 29 : ... .. . ... : ... .. . ... : ... .. . ... : ... .. . ... : ... .. . ...
ROW 2A : ... .. . ... : ... .. . ... : ... .. . ... : ... .. . ... : ... .. . ...
ROW 2B : ... .. . ... : ... .. . ... : ... .. . ... : ... .. . ... : ... .. . ...
ROW 2C : ... .. . ... : D-1 01 . ... : ... .. . ... : ... .. . ... : ... .. . ...
ROW 2D : ... .. . ... : C-4 05 . ... : ... .. . ... : ... .. . ... : ... .. . ...
ROW 2E : ... .. . ... : ... .. . ... : ... .. . ... : ... .. . ... : ... .. . ...
ROW 2F : ... .. . ... : C-4 06 . ... : ... .. . ... : ... .. . ... : ... .. . ...
ROW 30 : ... .. . ... : E-4 05 . ... : ... .. . ... : ... .. . ... : ... .. . ...
ROW 31 : ... .. . ... : E-4 06 . ... : ... .. . ... : ... .. . ... : ... .. . ...
ROW 32 : ... .. . ... : D-4 05 . ... : ... .. . ... : ... .. . ... : ... .. . ...
ROW 33 : ... .. . ... : D-4 06 . ... : ... .. . ... : ... .. . ... : ... .. . ...
ROW 34 : ... .. . ... : D-1 01 . ... : ... .. . ... : ... .. . ... : ... .. . ...
ROW 35 : ... .. . ... : B-3 05 . ... : ... .. . ... : ... .. . ... : ... .. . ...
ROW 36 : ... .. . ... : ... .. . ... : ... .. . ... : ... .. . ... : ... .. . ...
ROW 37 : ... .. . ... : B-3 06 . ... : ... .. . ... : ... .. . ... : ... .. . ...
ROW 38 : ... .. . ... : G-3 05 . ... : ... .. . ... : ... .. . ... : ... .. . ...
ROW 39 : ... .. . ... : ... .. . ... : ... .. . ... : ... .. . ... : ... .. . ...
ROW 3A : ... .. . ... : ... .. . ... : ... .. . ... : ... .. . ... : ... .. . ...
ROW 3B : ... .. . ... : ... .. . ... : ... .. . ... : ... .. . ... : ... .. . ...
ROW 3C : ... .. . ... : D-1 01 . ... : ... .. . ... : ... .. . ... : ... .. . ...
ROW 3D : ... .. . ... : G-3 05 . ... : ... .. . ... : ... .. . ... : ... .. . ...
ROW 3E : ... .. . ... : ... .. . ... : ... .. . ... : ... .. . ... : ... .. . ...
ROW 3F : ... .. . ... : G-3 06 . ... : ... .. . ... : ... .. . ... : ... .. . ...

TRACK  48   5 150 "Pirate"
COLUMNS : 1 1 1 1 1

ORDER 00 : 00 00 00 00 00
ORDER 01 : 01 01 01 00 01
ORDER 02 : 02 02 02 00 02
ORDER 03 : 01 01 01 00 01
ORDER 04 : 03 03 02 00 02
ORDER 05 : 04 04 03 01 03
ORDER 06 : 05 05 04 00 04
ORDER 07 : 06 06 05 00 05
ORDER 08 : 05 05 04 00 04
ORDER 09 : 07 07 06 00 06

PATTERN 00
ROW 00 : C-2 00 . ... : E-2 07 . ... : E-2 04 . ... : 9-# 01 . ... : ... .. . ...
ROW 01 : ... .. . ... : ... .. . ... : ... .. . ... : ... .. . ... : ... .. . ...
ROW 02 : ... .. . ... : ... .. . ... : ... .. . ... : ... .. . ... : ... .. . ...
ROW 03 : ... .. . ... : ... .. . ... : --- .. . ... : ... .. . ... : ... .. . ...
ROW 04 : ... .. . ... : E-2 07 . ... : E-2 04 . ... : 6-# 01 . ... : ... .. . ...
ROW 05 : ... .. . ... : ... .. . ... : ... .. . ... : ... .. . ... : ... .. . ...
ROW 06 : ... .. . ... : ... .. . ... : ... .. . ... : ... .. . ... : ... .. . ...
ROW 07 : ... .. . ... : ... .. . ... : --- .. . ... : ... .. . ... : ... .. . ...
ROW 08 : ... .. . ... : E-2 07 . ... : E-2 04 . ... : 6-# 01 . ... : ... .. . ...
ROW 09 : ... .. . ... : ... .. . ... : --- .. . ... : ... .. . ... : ... .. . ...
ROW 0A : ... .. . ... : E-2 07 . ... : E-2 04 . ... : 6-# 01 . ... : ... .. . ...
ROW 0B : ... .. . ... : ... .. . ... : --- .. . ... : ... .. . ... : ... .. . ...
ROW 0C : ... .. . ... : E-2 07 . ... : E-2 04 . ... : 9-# 01 . ... : ... .. . ...
ROW 0D : ... .. . ... : ... .. . ... : ... .. . ... : ... .. . ... : ... .. . ...
ROW 0E : ... .. . ... : ... .. . ... : ... .. . ... : ... .. . ... : ... .. . ...
ROW 0F : ... .. . ... : ... .. . ... : ... .. . ... : ... .. . ... : ... .. . ...
ROW 10 : ... .. . ... : E-2 07 . ... : E-2 04 . ... : 6-# 01 . ... : ... .. . ...
ROW 11 : ... .. . ... : ... .. . ... : --- .. . ... : ... .. . ... : ... .. . ...
ROW 12 : ... .. . ... : E-2 07 . ... : E-2 04 . ... : 9-# 01 . ... : ... .. . ...
ROW 13 : ... .. . ... : ... .. . ... : --- .. . ... : ... .. . ... : ... .. . ...
ROW 14 : ... .. . ... : E-2 07 . ... : E-2 04 . ... : 6-# 01 . ... : ... .. . ...
ROW 15 : ... .. . ... : ... .. . ... : --- .. . ... : ... .. . ... : ... .. . ...
ROW 16 : ... .. . ... : E-2 07 . ... : E-2 04 . ... : 6-# 01 . ... : ... .. . ...
ROW 17 : ... .. . ... : ... .. . ... : --- .. . ... : ... .. . ... : ... .. . ...
ROW 18 : ... .. . ... : E-2 07 . ... : E-2 04 . ... : 9-# 01 . ... : ... .. . ...
ROW 19 : ... .. . ... : ... .. . ... : ... .. . ... : ... .. . ... : ... .. . ...
ROW 1A : ... .. . ... : ... .. . ... : ... .. . ... : ... .. . ... : ... .. . ...
ROW 1B : ... .. . ... : ... .. . ... : --- .. . ... : ... .. . ... : ... .. . ...
ROW 1C : ... .. . ... : E-2 07 . ... : E-2 04 . ... : 6-# 01 . ... : ... .. . ...
ROW 1D : ... .. . ... : ... .. . ... : ... .. . ... : ... .. . ... : ... .. . ...
ROW 1E : ... .. . ... : ... .. . ... : ... .. . ... : ... .. . ... : ... .. . ...
ROW 1F : ... .. . ... : ... .. . ... : --- .. . ... : ... .. . ... : ... .. . ...
ROW 20 : ... .. . ... : E-2 07 . ... : E-2 04 . ... : 6-# 01 . ... : ... .. . ...
ROW 21 : ... .. . ... : ... .. . ... : --- .. . ... : ... .. . ... : ... .. . ...
ROW 22 : ... .. . ... : E-2 07 . ... : E-2 04 . ... : 6-# 01 . ... : ... .. . ...
ROW 23 : ... .. . ... : ... .. . ... : --- .. . ... : ... .. . ... : ... .. . ...
ROW 24 : ... .. . ... : E-2 07 . ... : E-2 04 . ... : 9-# 01 . ... : ... .. . ...
ROW 25 : ... .. . ... : ... .. . ... : ... .. . ... : ... .. . ... : ... .. . ...
ROW 26 : ... .. . ... : ... .. . ... : ... .. . ... : ... .. . ... : ... .. . ...
ROW 27 : ... .. . ... : ... .. . ... : ... .. . ... : ... .. . ... : ... .. . ...
ROW 28 : ... .. . ... : E-2 07 . ... : E-2 04 . ... : 6-# 01 . ... : ... .. . ...
ROW 29 : ... .. . ... : ... .. . ... : --- .. . ... : ... .. . ... : ... .. . ...
ROW 2A : E-3 05 . ... : E-2 05 . ... : E-2 04 . ... : 6-# 01 . ... : ... .. . ...
ROW 2B : ... .. . ... : ... .. . ... : --- .. . ... : ... .. . ... : ... .. . ...
ROW 2C : G-3 05 . ... : G-2 05 . ... : E-2 04 . ... : 6-# 01 . ... : ... .. . ...
ROW 2D : ... .. . ... : ... .. . ... : --- .. . ... : ... .. . ... : ... .. . ...
ROW 2E : A-3 05 . ... : A-2 05 . ... : E-2 04 . ... : 6-# 01 . ... : ... .. . ...
ROW 2F : ... .. . ... : ... .. . ... : ... .. . ... : ... .. . ... : ... .. . ...

PATTERN 01
ROW 00 : B-3 05 . ... : B-2 05 . ... : E-2 04 . ... : 9-# 01 . ... : ... .. . ...
ROW 01 : ... .. . ... : ... .. . ... : ... .. . ... : ... .. . ... : ... .. . ...
ROW 02 : ... .. . ... : ... .. . ... : ... .. . ... : ... .. . ... : ... .. . ...
ROW 03 : ... .. . ... : ... .. . ... : --- .. . ... : ... .. . ... : ... .. . ...
ROW 04 : ... .. . ... : ... .. . ... : E-2 04 . ... : 6-# 01 . ... : ... .. . ...
ROW 05 : ... .. . ... : ... .. . ... : --- .. . ... : ... .. . ... : ... .. . ...
ROW 06 : E-4 05 . ... : ... .. . ... : E-2 04 . ... : ... .. . ... : ... .. . ...
ROW 07 : ... .. . ... : ... .. . ... : --- .. . ... : ... .. . ... : ... .. . ...
ROW 08 : ... .. . ... : ... .. . ... : E-2 04 . ... : 6-# 01 . ... : ... .. . ...
ROW 09 : ... .. . ... : ... .. . ... : --- .. . ... : ... .. . ... : ... .. . ...
ROW 0A : ... .. . ... : ... .. . ... : E-2 04 . ... : 6-# 01 . ... : ... .. . ...
ROW 0B : ... .. . ... : ... .. . ... : ... .. . ... : ... .. . ... : ... .. . ...
ROW 0C : D-4 05 . ... : A-2 05 . ... : D-2 04 . ... : 9-# 01 . ... : ... .. . ...
ROW 0D : ... .. . ... : ... .. . ... : ... .. . ... : ... .. . ... : ... .. . ...
ROW 0E : ... .. . ... : ... .. . ... : ... .. . ... : ... .. . ... : ... .. . ...
ROW 0F : ... .. . ... : ... .. . ... : --- .. . ... : ... .. . ... : ... .. . ...
ROW 10 : B-3 05 . ... : ... .. . ... : D-2 04 . ... : 6-# 01 . ... : ... .. . ...
ROW 11 : ... .. . ... : ... .. . ... : ... .. . ... : ... .. . ... : ... .. . ...
ROW 12 : ... .. . ... : ... .. . ... : ... .. . ... : 9-# 01 . ... : ... .. . ...
ROW 13 : ... .. . ... : ... .. . ... : --- .. . ... : ... .. . ... : ... .. . ...
ROW 14 : G-3 05 . ... : ... .. . ... : D-2 04 . ... : 6-# 01 . ... : ... .. . ...
ROW 15 : ... .. . ... : ... .. . ... : ... .. . ... : ... .. . ... : ... .. . ...
ROW 16 : ... .. . ... : ... .. . ... : ... .. . ... : 6-# 01 . ... : ... .. . ...
ROW 17 : ... .. . ... : ... .. . ... : --- .. . ... : ... .. . ... : ... .. . ...
ROW 18 : A-3 05 . ... : C-3 05 . ... : F-2 04 . ... : 9-# 01 . ... : ... .. . ...
ROW 19 : ... .. . ... : ... .. . ... : ... .. . ... : ... .. . ... : ... .. . ...
ROW 1A : ... .. . ... : ... .. . ... : ... .. . ... : ... .. . ... : ... .. . ...
ROW 1B : ... .. . ... : ... .. . ... : --- .. . ... : ... .. . ... : ... .. . ...
ROW 1C : B-3 05 . ... : ... .. . ... : F-2 04 . ... : 6-# 01 . ... : ... .. . ...
ROW 1D : ... .. . ... : ... .. . ... : --- .. . ... : ... .. . ... : ... .. . ...
ROW 1E : ... .. . ... : ... .. . ... : F-2 04 . ... : ... .. . ... : ... .. . ...
ROW 1F : ... .. . ... : ... .. . ... : --- .. . ... : ... .. . ... : ... .. . ...
ROW 20 : A-3 05 . ... : ... .. . ... : F-2 04 . ... : 6-# 01 . ... : ... .. . ...
ROW 21 : ... .. . ... : ... .. . ... : --- .. . ... : ... .. . ... : ... .. . ...
ROW 22 : G-3 05 . ... : ... .. . ... : F-2 04 . ... : 6-# 01 . ... : ... .. . ...
ROW 23 : ... .. . ... : ... .. . ... : --- .. . ... : ... .. . ... : ... .. . ...
ROW 24 : A-3 05 . ... : B-2 05 . ... : E-2 04 . ... : 9-# 01 . ... : ... .. . ...
ROW 25 : ... .. . ... : ... .. . ... : ... .. . ... : ... .. . ... : ... .. . ...
ROW 26 : ... .. . ... : ... .. . ... : ... .. . ... : ... .. . ... : ... .. . ...
ROW 27 : ... .. . ... : ... .. . ... : --- .. . ... : ... .. . ... : ... .. . ...
ROW 28 : B-3 05 . ... : ... .. . ... : E-2 04 . ... : --- .. . ... : ... .. . ...
ROW 29 : ... .. . ... : ... .. . ... : ... .. . ... : ... .. . ... : ... .. . ...
ROW 2A : ... .. . ... : ... .. . ... : ... .. . ... : ... .. . ... : ... .. . ...
ROW 2B : ... .. . ... : ... .. . ... : --- .. . ... : ... .. . ... : ... .. . ...
ROW 2C : ... .. . ... : ... .. . ... : E-2 04 . ... : ... .. . ... : ... .. . ...
ROW 2D : ... .. . ... : ... .. . ... : ... .. . ... : ... .. . ... : ... .. . ...
ROW 2E : ... .. . ... : ... .. . ... : ... .. . ... : ... .. . ... : ... .. . ...
ROW 2F : ... .. . ... : ... .. . ... : ... .. . ... : ... .. . ... : ... .. . ...

PATTERN 02
ROW 00 : C-4 05 . ... : E-3 05 . ... : E-2 04 . ... : ... .. . ... : ... .. . ...
ROW 01 : ... .. . ... : ... .. . ... : ... .. . ... : ... .. . ... : ... .. . ...
ROW 02 : C-4 05 . ... : ... .. . ... : ... .. . ... : ... .. . ... : ... .. . ...
ROW 03 : ... .. . ... : ... .. . ... : --- .. . ... : ... .. . ... : ... .. . ...
ROW 04 : C-4 05 . ... : ... .. . ... : E-2 04 . ... : ... .. . ... : ... .. . ...
ROW 05 : ... .. . ... : ... .. . ... : --- .. . ... : ... .. . ... : ... .. . ...
ROW 06 : ... .. . ... : ... .. . ... : E-2 04 . ... : ... .. . ... : ... .. . ...
ROW 07 : ... .. . ... : ... .. . ... : --- .. . ... : ... .. . ... : ... .. . ...
ROW 08 : ... .. . ... : ... .. . ... : E-2 04 . ... : ... .. . ... : ... .. . ...
ROW 09 : ... .. . ... : ... .. . ... : --- .. . ... : ... .. . ... : ... .. . ...
ROW 0A : ... .. . ... : ... .. . ... : E-2 04 . ... : ... .. . ... : ... .. . ...
ROW 0B : ... .. . ... : ... .. . ... : ... .. . ... : ... .. . ... : ... .. . ...
ROW 0C : B-3 05 . ... : G-2 05 . ... : G-2 04 . ... : ... .. . ... : ... .. . ...
ROW 0D : ... .. . ... : ... .. . ... : ... .. . ... : ... .. . ... : ... .. . ...
ROW 0E : ... .. . ... : ... .. . ... : ... .. . ... : ... .. . ... : ... .. . ...
ROW 0F : ... .. . ... : ... .. . ... : --- .. . ... : ... .. . ... : ... .. . ...
ROW 10 : A-3 05 . ... : A-2 05 . ... : G-2 04 . ... : ... .. . ... : ... .. . ...
ROW 11 : ... .. . ... : ... .. . ... : ... .. . ... : ... .. . ... : ... .. . ...
ROW 12 : ... .. . ... : ... .. . ... : ... .. . ... : ... .. . ... : ... .. . ...
ROW 13 : ... .. . ... : ... .. . ... : --- .. . ... : ... .. . ... : ... .. . ...
ROW 14 : G-3 05 . ... : G-2 05 . ... : G-2 04 . ... : ... .. . ... : ... .. . ...
ROW 15 : ... .. . ... : ... .. . ... : ... .. . ... : ... .. . ... : ... .. . ...
ROW 16 : ... .. . ... : ... .. . ... : ... .. . ... : ... .. . ... : ... .. . ...
ROW 17 : ... .. . ... : ... .. . ... : --- .. . ... : ... .. . ... : ... .. . ...
ROW 18 : A-3 05 . ... : A-2 05 . ... : A-2 04 . ... : ... .. . ... : ... .. . ...
ROW 19 : ... .. . ... : ... .. . ... : ... .. . ... : ... .. . ... : ... .. . ...
ROW 1A : ... .. . ... : ... .. . ... : ... .. . ... : ... .. . ... : ... .. . ...
ROW 1B : ... .. . ... : ... .. . ... : --- .. . ... : ... .. . ... : ... .. . ...
ROW 1C : ... .. . ... : ... .. . ... : A-2 04 . ... : ... .. . ... : ... .. . ...
ROW 1D : ... .. . ... : ... .. . ... : --- 04 . ... : ... .. . ... : ... .. . ...
ROW 1E : ... .. . ... : ... .. . ... : A-2 04 . ... : ... .. . ... : ... .. . ...
ROW 1F : ... .. . ... : ... .. . ... : --- .. . ... : ... .. . ... : ... .. . ...
ROW 20 : ... .. . ... : ... .. . ... : A-2 04 . ... : ... .. . ... : ... .. . ...
ROW 21 : ... .. . ... : ... .. . ... : --- .. . ... : ... .. . ... : ... .. . ...
ROW 22 : ... .. . ... : ... .. . ... : A-2 04 . ... : ... .. . ... : ... .. . ...
ROW 23 : ... .. . ... : ... .. . ... : --- .. . ... : ... .. . ... : ... .. . ...
ROW 24 : ... .. . ... : ... .. . ... : D-2 04 . ... : ... .. . ... : ... .. . ...
ROW 25 : ... .. . ... : ... .. . ... : ... .. . ... : ... .. . ... : ... .. . ...
ROW 26 : ... .. . ... : ... .. . ... : ... .. . ... : ... .. . ... : ... .. . ...
ROW 27 : ... .. . ... : ... .. . ... : --- .. . ... : ... .. . ... : ... .. . ...
ROW 28 : ... .. . ... : ... .. . ... : D-2 04 . ... : ... .. . ... : ... .. . ...
ROW 29 : ... .. . ... : ... .. . ... : ... .. . ... : ... .. . ... : ... .. . ...
ROW 2A : E-3 05 . ... : E-2 05 . ... : ... .. . ... : ... .. . ... : ... .. . ...
ROW 2B : ... .. . ... : ... .. . ... : --- .. . ... : ... .. . ... : ... .. . ...
ROW 2C : G-3 05 . ... : G-2 05 . ... : D-2 04 . ... : ... .. . ... : ... .. . ...
ROW 2D : ... .. . ... : ... .. . ... : ... .. . ... : ... .. . ... : ... .. . ...
ROW 2E : A-3 05 . ... : A-2 05 . ... : ... .. . ... : ... .. . ... : ... .. . ...
ROW 2F : ... .. . ... : ... .. . ... : ... .. . ... : ... .. . ... : ... .. . ...

PATTERN 03
ROW 00 : C-4 05 . ... : E-3 05 . ... : E-2 04 . ... : ... .. . ... : ... .. . ...
ROW 01 : ... .. . ... : ... .. . ... : ... .. . ... : ... .. . ... : ... .. . ...
ROW 02 : C-4 05 . ... : ... .. . ... : ... .. . ... : ... .. . ... : ... .. . ...
ROW 03 : ... .. . ... : ... .. . ... : --- .. . ... : ... .. . ... : ... .. . ...
ROW 04 : C-4 05 . ... : ... .. . ... : E-2 04 . ... : ... .. . ... : ... .. . ...
ROW 05 : ... .. . ... : ... .. . ... : ... .. . ... : ... .. . ... : ... .. . ...
ROW 06 : ... .. . ... : ... .. . ... : ... .. . ... : ... .. . ... : ... .. . ...
ROW 07 : ... .. . ... : ... .. . ... : --- .. . ... : ... .. . ... : ... .. . ...
ROW 08 : ... .. . ... : ... .. . ... : E-2 04 . ... : ... .. . ... : ... .. . ...
ROW 09 : ... .. . ... : ... .. . ... : --- .. . ... : ... .. . ... : ... .. . ...
ROW 0A : ... .. . ... : ... .. . ... : E-2 04 . ... : ... .. . ... : ... .. . ...
ROW 0B : ... .. . ... : ... .. . ... : --- .. . ... : ... .. . ... : ... .. . ...
ROW 0C : B-3 05 . ... : G-2 05 . ... : E-2 04 . ... : ... .. . ... : ... .. . ...
ROW 0D : ... .. . ... : ... .. . ... : ... .. . ... : ... .. . ... : ... .. . ...
ROW 0E : ... .. . ... : ... .. . ... : ... .. . ... : ... .. . ... : ... .. . ...
ROW 0F : ... .. . ... : ... .. . ... : ... .. . ... : ... .. . ... : ... .. . ...
ROW 10 : A-3 05 . ... : A-2 05 . ... : E-2 04 . ... : ... .. . ... : ... .. . ...
ROW 11 : ... .. . ... : ... .. . ... : --- .. . ... : ... .. . ... : ... .. . ...
ROW 12 : ... .. . ... : ... .. . ... : E-2 04 . ... : ... .. . ... : ... .. . ...
ROW 13 : ... .. . ... : ... .. . ... : --- .. . ... : ... .. . ... : ... .. . ...
ROW 14 : G-3 05 . ... : G-2 05 . ... : E-2 04 . ... : ... .. . ... : ... .. . ...
ROW 15 : ... .. . ... : ... .. . ... : --- .. . ... : ... .. . ... : ... .. . ...
ROW 16 : ... .. . ... : ... .. . ... : E-2 04 . ... : ... .. . ... : ... .. . ...
ROW 17 : ... .. . ... : ... .. . ... : --- .. . ... : ... .. . ... : ... .. . ...
ROW 18 : E-4 05 . ... : E-3 05 . ... : E-2 04 . ... : ... .. . ... : ... .. . ...
ROW 19 : ... .. . ... : ... .. . ... : ... .. . ... : ... .. . ... : ... .. . ...
ROW 1A : ... .. . ... : ... .. . ... : ... .. . ... : ... .. . ... : ... .. . ...
ROW 1B : ... .. . ... : ... .. . ... : --- .. . ... : ... .. . ... : ... .. . ...
ROW 1C : ... .. . ... : ... .. . ... : E-2 04 . ... : ... .. . ... : ... .. . ...
ROW 1D : ... .. . ... : ... .. . ... : ... .. . ... : ... .. . ... : ... .. . ...
ROW 1E : ... .. . ... : ... .. . ... : ... .. . ... : ... .. . ... : ... .. . ...
ROW 1F : ... .. . ... : ... .. . ... : --- .. . ... : ... .. . ... : ... .. . ...
ROW 20 : ... .. . ... : ... .. . ... : E-2 04 . ... : ... .. . ... : ... .. . ...
ROW 21 : ... .. . ... : ... .. . ... : --- .. . ... : ... .. . ... : ... .. . ...
ROW 22 : ... .. . ... : ... .. . ... : E-2 04 . ... : ... .. . ... : ... .. . ...
ROW 23 : ... .. . ... : ... .. . ... : --- .. . ... : ... .. . ... : ... .. . ...
ROW 24 : ... .. . ... : ... .. . ... : E-2 04 . ... : ... .. . ... : ... .. . ...
ROW 25 : ... .. . ... : ... .. . ... : ... .. . ... : ... .. . ... : ... .. . ...
ROW 26 : ... .. . ... : ... .. . ... : ... .. . ... : ... .. . ... : ... .. . ...
ROW 27 : ... .. . ... : ... .. . ... : ... .. . ... : ... .. . ... : ... .. . ...
ROW 28 : ... .. . ... : ... .. . ... : --- .. . ... : ... .. . ... : ... .. . ...
ROW 29 : ... .. . ... : ... .. . ... : ... .. . ... : ... .. . ... : ... .. . ...
ROW 2A : ... .. . ... : ... .. . ... : ... .. . ... : ... .. . ... : ... .. . ...
ROW 2B : ... .. . ... : ... .. . ... : ... .. . ... : ... .. . ... : ... .. . ...
ROW 2C : ... .. . ... : ... .. . ... : ... .. . ... : ... .. . ... : ... .. . ...
ROW 2D : ... .. . ... : ... .. . ... : ... .. . ... : ... .. . ... : ... .. . ...
ROW 2E : ... .. . ... : ... .. . ... : ... .. . ... : ... .. . ... : ... .. . ...
ROW 2F : ... .. . ... : ... .. . ... : ... .. . ... : ... .. . ... : ... .. . ...

PATTERN 04
ROW 00 : C-2 00 . ... : E-2 07 . ... : E-2 04 . ... : ... .. . ... : ... .. . ...
ROW 01 : ... .. . ... : ... .. . ... : ... .. . ... : ... .. . ... : ... .. . ...
ROW 02 : ... .. . ... : ... .. . ... : ... .. . ... : ... .. . ... : ... .. . ...
ROW 03 : ... .. . ... : ... .. . ... : --- .. . ... : ... .. . ... : ... .. . ...
ROW 04 : ... .. . ... : E-2 07 . ... : E-2 04 . ... : ... .. . ... : ... .. . ...
ROW 05 : ... .. . ... : ... .. . ... : --- .. . ... : ... .. . ... : ... .. . ...
ROW 06 : ... .. . ... : ... .. . ... : E-2 04 . ... : ... .. . ... : ... .. . ...
ROW 07 : ... .. . ... : ... .. . ... : --- .. . ... : ... .. . ... : ... .. . ...
ROW 08 : ... .. . ... : E-2 07 . ... : E-2 04 . ... : ... .. . ... : ... .. . ...
ROW 09 : ... .. . ... : ... .. . ... : --- .. . ... : ... .. . ... : ... .. . ...
ROW 0A : ... .. . ... : E-2 07 . ... : E-2 04 . ... : ... .. . ... : ... .. . ...
ROW 0B : ... .. . ... : ... .. . ... : ... .. . ... : ... .. . ... : ... .. . ...
ROW 0C : ... .. . ... : E-2 07 . ... : G-2 04 . ... : ... .. . ... : ... .. . ...
ROW 0D : ... .. . ... : ... .. . ... : ... .. . ... : ... .. . ... : ... .. . ...
ROW 0E : ... .. . ... : ... .. . ... : ... .. . ... : ... .. . ... : ... .. . ...
ROW 0F : ... .. . ... : ... .. . ... : --- .. . ... : ... .. . ... : ... .. . ...
ROW 10 : ... .. . ... : E-2 07 . ... : G-2 04 . ... : ... .. . ... : ... .. . ...
ROW 11 : ... .. . ... : ... .. . ... : ... .. . ... : ... .. . ... : ... .. . ...
ROW 12 : ... .. . ... : E-2 07 . ... : ... .. . ... : ... .. . ... : ... .. . ...
ROW 13 : ... .. . ... : ... .. . ... : --- .. . ... : ... .. . ... : ... .. . ...
ROW 14 : ... .. . ... : E-2 07 . ... : G-2 04 . ... : ... .. . ... : ... .. . ...
ROW 15 : ... .. . ... : ... .. . ... : ... .. . ... : ... .. . ... : ... .. . ...
ROW 16 : ... .. . ... : E-2 07 . ... : ... .. . ... : ... .. . ... : ... .. . ...
ROW 17 : ... .. . ... : ... .. . ... : --- .. . ... : ... .. . ... : ... .. . ...
ROW 18 : ... .. . ... : E-2 07 . ... : A-2 04 . ... : ... .. . ... : ... .. . ...
ROW 19 : ... .. . ... : ... .. . ... : ... .. . ... : ... .. . ... : ... .. . ...
ROW 1A : ... .. . ... : ... .. . ... : ... .. . ... : ... .. . ... : ... .. . ...
ROW 1B : ... .. . ... : ... .. . ... : --- .. . ... : ... .. . ... : ... .. . ...
ROW 1C : ... .. . ... : E-2 07 . ... : A-2 04 . ... : ... .. . ... : ... .. . ...
ROW 1D : ... .. . ... : ... .. . ... : --- 04 . ... : ... .. . ... : ... .. . ...
ROW 1E : ... .. . ... : ... .. . ... : A-2 04 . ... : ... .. . ... : ... .. . ...
ROW 1F : ... .. . ... : ... .. . ... : --- .. . ... : ... .. . ... : ... .. . ...
ROW 20 : ... .. . ... : E-2 07 . ... : A-2 04 . ... : ... .. . ... : ... .. . ...
ROW 21 : ... .. . ... : ... .. . ... : --- .. . ... : ... .. . ... : ... .. . ...
ROW 22 : ... .. . ... : E-2 07 . ... : A-2 04 . ... : ... .. . ... : ... .. . ...
ROW 23 : ... .. . ... : ... .. . ... : --- .. . ... : ... .. . ... : ... .. . ...
ROW 24 : ... .. . ... : E-2 07 . ... : G-2 04 . ... : ... .. . ... : ... .. . ...
ROW 25 : ... .. . ... : ... .. . ... : ... .. . ... : ... .. . ... : ... .. . ...
ROW 26 : ... .. . ... : ... .. . ... : ... .. . ... : ... .. . ... : ... .. . ...
ROW 27 : ... .. . ... : ... .. . ... : --- .. . ... : ... .. . ... : ... .. . ...
ROW 28 : ... .. . ... : --- .. . ... : G-2 04 . ... : ... .. . ... : ... .. . ...
ROW 29 : ... .. . ... : ... .. . ... : ... .. . ... : ... .. . ... : ... .. . ...
ROW 2A : ... .. . ... : ... .. . ... : ... .. . ... : ... .. . ... : ... .. . ...
ROW 2B : ... .. . ... : ... .. . ... : --- .. . ... : ... .. . ... : ... .. . ...
ROW 2C : ... .. . ... : ... .. . ... : G-2 04 . ... : ... .. . ... : ... .. . ...
ROW 2D : ... .. . ... : ... .. . ... : ... .. . ... : ... .. . ... : ... .. . ...
ROW 2E : ... .. . ... : ... .. . ... : ... .. . ... : ... .. . ... : ... .. . ...
ROW 2F : ... .. . ... : ... .. . ... : ... .. . ... : ... .. . ... : ... .. . ...

PATTERN 05
ROW 00 : E-3 05 . ... : E-3 05 . ... : A-2 04 . ... : ... .. . ... : ... .. . ...
ROW 01 : ... .. . ... : ... .. . ... : ... .. . ... : ... .. . ... : ... .. . ...
ROW 02 : G-3 05 . ... : ... .. . ... : ... .. . ... : ... .. . ... : ... .. . ...
ROW 03 : ... .. . ... : ... .. . ... : --- .. . ... : ... .. . ... : ... .. . ...
ROW 04 : A-3 05 . ... : ... .. . ... : A-2 04 . ... : ... .. . ... : ... .. . ...
ROW 05 : ... .. . ... : ... .. . ... : --- .. . ... : ... .. . ... : ... .. . ...
ROW 06 : B-3 05 . ... : ... .. . ... : A-2 04 . ... : ... .. . ... : ... .. . ...
ROW 07 : ... .. . ... : ... .. . ... : --- .. . ... : ... .. . ... : ... .. . ...
ROW 08 : E-4 05 . ... : ... .. . ... : A-2 04 . ... : ... .. . ... : ... .. . ...
ROW 09 : ... .. . ... : ... .. . ... : --- .. . ... : ... .. . ... : ... .. . ...
ROW 0A : D-4 05 . ... : ... .. . ... : A-2 04 . ... : ... .. . ... : ... .. . ...
ROW 0B : ... .. . ... : ... .. . ... : ... .. . ... : ... .. . ... : ... .. . ...
ROW 0C : B-3 05 . ... : G-3 05 . ... : G-2 04 . ... : ... .. . ... : ... .. . ...
ROW 0D : ... .. . ... : ... .. . ... : ... .. . ... : ... .. . ... : ... .. . ...
ROW 0E : ... .. . ... : ... .. . ... : ... .. . ... : ... .. . ... : ... .. . ...
ROW 0F : ... .. . ... : ... .. . ... : --- .. . ... : ... .. . ... : ... .. . ...
ROW 10 : ... .. . ... : ... .. . ... : G-2 04 . ... : ... .. . ... : ... .. . ...
ROW 11 : ... .. . ... : ... .. . ... : ... .. . ... : ... .. . ... : ... .. . ...
ROW 12 : ... .. . ... : ... .. . ... : ... .. . ... : ... .. . ... : ... .. . ...
ROW 13 : ... .. . ... : ... .. . ... : --- .. . ... : ... .. . ... : ... .. . ...
ROW 14 : ... .. . ... : ... .. . ... : G-2 04 . ... : ... .. . ... : ... .. . ...
ROW 15 : ... .. . ... : ... .. . ... : ... .. . ... : ... .. . ... : ... .. . ...
ROW 16 : ... .. . ... : ... .. . ... : ... .. . ... : ... .. . ... : ... .. . ...
ROW 17 : ... .. . ... : ... .. . ... : --- .. . ... : ... .. . ... : ... .. . ...
ROW 18 : C-4 05 . ... : A-3 05 . ... : B-2 04 . ... : ... .. . ... : ... .. . ...
ROW 19 : ... .. . ... : ... .. . ... : ... .. . ... : ... .. . ... : ... .. . ...
ROW 1A : ... .. . ... : ... .. . ... : ... .. . ... : ... .. . ... : ... .. . ...
ROW 1B : ... .. . ... : ... .. . ... : --- .. . ... : ... .. . ... : ... .. . ...
ROW 1C : ... .. . ... : ... .. . ... : B-2 04 . ... : ... .. . ... : ... .. . ...
ROW 1D : ... .. . ... : ... .. . ... : --- 04 . ... : ... .. . ... : ... .. . ...
ROW 1E : A-3 05 . ... : E-3 05 . ... : B-2 04 . ... : ... .. . ... : ... .. . ...
ROW 1F : ... .. . ... : ... .. . ... : --- .. . ... : ... .. . ... : ... .. . ...
ROW 20 : ... .. . ... : ... .. . ... : B-2 04 . ... : ... .. . ... : ... .. . ...
ROW 21 : ... .. . ... : ... .. . ... : --- .. . ... : ... .. . ... : ... .. . ...
ROW 22 : ... .. . ... : ... .. . ... : B-2 04 . ... : ... .. . ... : ... .. . ...
ROW 23 : ... .. . ... : ... .. . ... : --- .. . ... : ... .. . ... : ... .. . ...
ROW 24 : B-3 05 . ... : G-3 05 . ... : B-2 04 . ... : ... .. . ... : ... .. . ...
ROW 25 : ... .. . ... : ... .. . ... : ... .. . ... : ... .. . ... : ... .. . ...
ROW 26 : ... .. . ... : ... .. . ... : ... .. . ... : ... .. . ... : ... .. . ...
ROW 27 : ... .. . ... : ... .. . ... : --- .. . ... : ... .. . ... : ... .. . ...
ROW 28 : ... .. . ... : ... .. . ... : B-2 04 . ... : ... .. . ... : ... .. . ...
ROW 29 : ... .. . ... : ... .. . ... : ... .. . ... : ... .. . ... : ... .. . ...
ROW 2A : G-3 05 . ... : E-3 05 . ... : ... .. . ... : ... .. . ... : ... .. . ...
ROW 2B : ... .. . ... : ... .. . ... : --- .. . ... : ... .. . ... : ... .. . ...
ROW 2C : ... .. . ... : ... .. . ... : B-2 04 . ... : ... .. . ... : ... .. . ...
ROW 2D : ... .. . ... : ... .. . ... : ... .. . ... : ... .. . ... : ... .. . ...
ROW 2E : ... .. . ... : ... .. . ... : ... .. . ... : ... .. . ... : ... .. . ...
ROW 2F : ... .. . ... : ... .. . ... : ... .. . ... : ... .. . ... : ... .. . ...

PATTERN 06
ROW 00 : A-3 05 . ... : E-3 05 . ... : A-2 04 . ... : ... .. . ... : ... .. . ...
ROW 01 : ... .. . ... : ... .. . ... : ... .. . ... : ... .. . ... : ... .. . ...
ROW 02 : ... .. . ... : ... .. . ... : ... .. . ... : ... .. . ... : ... .. . ...
ROW 03 : ... .. . ... : ... .. . ... : --- .. . ... : ... .. . ... : ... .. . ...
ROW 04 : E-3 05 . ... : A-2 05 . ... : A-2 04 . ... : ... .. . ... : ... .. . ...
ROW 05 : ... .. . ... : ... .. . ... : --- .. . ... : ... .. . ... : ... .. . ...
ROW 06 : ... .. . ... : ... .. . ... : A-2 04 . ... : ... .. . ... : ... .. . ...
ROW 07 : ... .. . ... : ... .. . ... : --- .. . ... : ... .. . ... : ... .. . ...
ROW 08 : ... .. . ... : ... .. . ... : A-2 04 . ... : ... .. . ... : ... .. . ...
ROW 09 : ... .. . ... : ... .. . ... : --- .. . ... : ... .. . ... : ... .. . ...
ROW 0A : ... .. . ... : ... .. . ... : A-2 04 . ... : ... .. . ... : ... .. . ...
ROW 0B : ... .. . ... : ... .. . ... : ... .. . ... : ... .. . ... : ... .. . ...
ROW 0C : A-3 05 . ... : E-3 05 . ... : G-2 04 . ... : ... .. . ... : ... .. . ...
ROW 0D : ... .. . ... : ... .. . ... : ... .. . ... : ... .. . ... : ... .. . ...
ROW 0E : ... .. . ... : ... .. . ... : ... .. . ... : ... .. . ... : ... .. . ...
ROW 0F : ... .. . ... : ... .. . ... : --- .. . ... : ... .. . ... : ... .. . ...
ROW 10 : E-3 05 . ... : A-2 05 . ... : G-2 04 . ... : ... .. . ... : ... .. . ...
ROW 11 : ... .. . ... : ... .. . ... : ... .. . ... : ... .. . ... : ... .. . ...
ROW 12 : E-3 05 . ... : ... .. . ... : ... .. . ... : ... .. . ... : ... .. . ...
ROW 13 : ... .. . ... : ... .. . ... : --- .. . ... : ... .. . ... : ... .. . ...
ROW 14 : G-3 05 . ... : ... .. . ... : G-2 04 . ... : ... .. . ... : ... .. . ...
ROW 15 : ... .. . ... : ... .. . ... : ... .. . ... : ... .. . ... : ... .. . ...
ROW 16 : A-3 05 . ... : ... .. . ... : ... .. . ... : ... .. . ... : ... .. . ...
ROW 17 : ... .. . ... : ... .. . ... : --- .. . ... : ... .. . ... : ... .. . ...
ROW 18 : B-3 05 . ... : F#3 05 . ... : B-2 04 . ... : ... .. . ... : ... .. . ...
ROW 19 : ... .. . ... : ... .. . ... : ... .. . ... : ... .. . ... : ... .. . ...
ROW 1A : ... .. . ... : ... .. . ... : ... .. . ... : ... .. . ... : ... .. . ...
ROW 1B : ... .. . ... : ... .. . ... : --- .. . ... : ... .. . ... : ... .. . ...
ROW 1C : ... .. . ... : ... .. . ... : B-2 04 . ... : ... .. . ... : ... .. . ...
ROW 1D : ... .. . ... : ... .. . ... : --- 04 . ... : ... .. . ... : ... .. . ...
ROW 1E : ... .. . ... : ... .. . ... : B-2 04 . ... : ... .. . ... : ... .. . ...
ROW 1F : ... .. . ... : ... .. . ... : --- .. . ... : ... .. . ... : ... .. . ...
ROW 20 : ... .. . ... : ... .. . ... : B-2 04 . ... : ... .. . ... : ... .. . ...
ROW 21 : ... .. . ... : ... .. . ... : --- .. . ... : ... .. . ... : ... .. . ...
ROW 22 : ... .. . ... : ... .. . ... : B-2 04 . ... : ... .. . ... : ... .. . ...
ROW 23 : ... .. . ... : ... .. . ... : --- .. . ... : ... .. . ... : ... .. . ...
ROW 24 : C-2 07 . ... : C-3 07 . ... : B-2 04 . ... : ... .. . ... : ... .. . ...
ROW 25 : ... .. . ... : ... .. . ... : ... .. . ... : ... .. . ... : ... .. . ...
ROW 26 : C-2 .. . ... : C-3 .. . ... : ... .. . ... : ... .. . ... : ... .. . ...
ROW 27 : ... .. . ... : ... .. . ... : --- .. . ... : ... .. . ... : ... .. . ...
ROW 28 : C-2 .. . ... : C-3 .. . ... : B-2 04 . ... : ... .. . ... : ... .. . ...
ROW 29 : ... .. . ... : ... .. . ... : ... .. . ... : ... .. . ... : ... .. . ...
ROW 2A : B-1 .. . ... : B-2 .. . ... : ... .. . ... : ... .. . ... : ... .. . ...
ROW 2B : ... .. . ... : ... .. . ... : --- .. . ... : ... .. . ... : ... .. . ...
ROW 2C : B-1 .. . ... : B-2 .. . ... : B-2 04 . ... : ... .. . ... : ... .. . ...
ROW 2D : ... .. . ... : ... .. . ... : ... .. . ... : ... .. . ... : ... .. . ...
ROW 2E : B-1 .. . ... : B-2 .. . ... : ... .. . ... : ... .. . ... : ... .. . ...
ROW 2F : ... .. . ... : ... .. . ... : ... .. . ... : ... .. . ... : ... .. . ...

PATTERN 07
ROW 00 : A-3 05 . ... : E-3 05 . ... : ... .. . ... : ... .. . ... : ... .. . ...
ROW 01 : ... .. . ... : ... .. . ... : ... .. . ... : ... .. . ... : ... .. . ...
ROW 02 : ... .. . ... : ... .. . ... : ... .. . ... : ... .. . ... : ... .. . ...
ROW 03 : ... .. . ... : ... .. . ... : ... .. . ... : ... .. . ... : ... .. . ...
ROW 04 : E-3 05 . ... : A-2 05 . ... : ... .. . ... : ... .. . ... : ... .. . ...
ROW 05 : ... .. . ... : ... .. . ... : ... .. . ... : ... .. . ... : ... .. . ...
ROW 06 : ... .. . ... : ... .. . ... : ... .. . ... : ... .. . ... : ... .. . ...
ROW 07 : ... .. . ... : ... .. . ... : ... .. . ... : ... .. . ... : ... .. . ...
ROW 08 : ... .. . ... : ... .. . ... : ... .. . ... : ... .. . ... : ... .. . ...
ROW 09 : ... .. . ... : ... .. . ... : ... .. . ... : ... .. . ... : ... .. . ...
ROW 0A : ... .. . ... : ... .. . ... : ... .. . ... : ... .. . ... : ... .. . ...
ROW 0B : ... .. . ... : ... .. . ... : ... .. . ... : ... .. . ... : ... .. . ...
ROW 0C : A-3 05 . ... : E-3 05 . ... : ... .. . ... : ... .. . ... : ... .. . ...
ROW 0D : ... .. . ... : ... .. . ... : ... .. . ... : ... .. . ... : ... .. . ...
ROW 0E : ... .. . ... : ... .. . ... : ... .. . ... : ... .. . ... : ... .. . ...
ROW 0F : ... .. . ... : ... .. . ... : ... .. . ... : ... .. . ... : ... .. . ...
ROW 10 : E-3 05 . ... : A-2 05 . ... : ... .. . ... : ... .. . ... : ... .. . ...
ROW 11 : ... .. . ... : ... .. . ... : ... .. . ... : ... .. . ... : ... .. . ...
ROW 12 : E-3 05 . ... : ... .. . ... : ... .. . ... : ... .. . ... : ... .. . ...
ROW 13 : ... .. . ... : ... .. . ... : ... .. . ... : ... .. . ... : ... .. . ...
ROW 14 : G-3 05 . ... : ... .. . ... : ... .. . ... : ... .. . ... : ... .. . ...
ROW 15 : ... .. . ... : ... .. . ... : ... .. . ... : ... .. . ... : ... .. . ...
ROW 16 : A-3 05 . ... : ... .. . ... : ... .. . ... : ... .. . ... : ... .. . ...
ROW 17 : ... .. . ... : ... .. . ... : ... .. . ... : ... .. . ... : ... .. . ...
ROW 18 : E-3 05 . ... : E-2 05 . ... : ... .. . ... : ... .. . ... : ... .. . ...
ROW 19 : ... .. . ... : ... .. . ... : ... .. . ... : ... .. . ... : ... .. . ...
ROW 1A : ... .. . ... : ... .. . ... : ... .. . ... : ... .. . ... : ... .. . ...
ROW 1B : ... .. . ... : ... .. . ... : ... .. . ... : ... .. . ... : ... .. . ...
ROW 1C : ... .. . ... : ... .. . ... : ... .. . ... : ... .. . ... : ... .. . ...
ROW 1D : ... .. . ... : ... .. . ... : ... .. . ... : ... .. . ... : ... .. . ...
ROW 1E : ... .. . ... : ... .. . ... : ... .. . ... : ... .. . ... : ... .. . ...
ROW 1F : ... .. . ... : ... .. . ... : ... .. . ... : ... .. . ... : ... .. . ...
ROW 20 : ... .. . ... : ... .. . ... : ... .. . ... : ... .. . ... : ... .. . ...
ROW 21 : ... .. . ... : ... .. . ... : ... .. . ... : ... .. . ... : ... .. . ...
ROW 22 : ... .. . ... : ... .. . ... : ... .. . ... : ... .. . ... : ... .. . ...
ROW 23 : ... .. . ... : ... .. . ... : ... .. . ... : ... .. . ... : ... .. . ...
ROW 24 : A-1 07 . ... : A-2 07 . ... : ... .. . ... : ... .. . ... : ... .. . ...
ROW 25 : ... .. . ... : ... .. . ... : ... .. . ... : ... .. . ... : ... .. . ...
ROW 26 : A-1 07 . ... : A-2 07 . ... : ... .. . ... : ... .. . ... : ... .. . ...
ROW 27 : ... .. . ... : ... .. . ... : ... .. . ... : ... .. . ... : ... .. . ...
ROW 28 : A-1 07 . ... : A-2 07 . ... : ... .. . ... : ... .. . ... : ... .. . ...
ROW 29 : ... .. . ... : ... .. . ... : ... .. . ... : ... .. . ... : ... .. . ...
ROW 2A : B-1 07 . ... : B-2 07 . ... : ... .. . ... : ... .. . ... : ... .. . ...
ROW 2B : ... .. . ... : ... .. . ... : ... .. . ... : ... .. . ... : ... .. . ...
ROW 2C : B-1 07 . ... : B-2 07 . ... : ... .. . ... : ... .. . ... : ... .. . ...
ROW 2D : ... .. . ... : ... .. . ... : ... .. . ... : ... .. . ... : ... .. . ...
ROW 2E : B-1 07 . ... : B-2 07 . ... : ... .. . ... : ... .. . ... : ... .. . ...
ROW 2F : ... .. . ... : ... .. . ... : ... .. . ... : ... .. . ... : ... .. . ...

TRACK  64   8 150 "prehistoric"
COLUMNS : 1 1 1 1 1

ORDER 00 : 00 00 00 00 00
ORDER 01 : 01 00 00 00 00
ORDER 02 : 01 01 01 01 00
ORDER 03 : 01 02 01 01 00

PATTERN 00
ROW 00 : === .. . ... : A-3 01 . ... : D-2 04 . ... : 0-# 01 . ... : ... .. . ...
ROW 01 : A-3 06 . ... : ... .. . ... : ... .. . ... : ... .. . ... : ... .. . ...
ROW 02 : --- .. . ... : A-3 01 . ... : ... .. . ... : 0-# 02 . ... : ... .. . ...
ROW 03 : A-3 06 . ... : ... .. . ... : F-2 04 . ... : 0-# 01 . ... : ... .. . ...
ROW 04 : --- .. . ... : A-3 02 . ... : G-2 04 . ... : ... .. . ... : ... .. . ...
ROW 05 : A-3 06 . ... : ... .. . ... : ... .. . ... : ... .. . ... : ... .. . ...
ROW 06 : --- .. . ... : A-3 02 . ... : ... .. . ... : 0-# 01 . ... : ... .. . ...
ROW 07 : A-3 06 . ... : ... .. . ... : ... .. . ... : ... .. . ... : ... .. . ...
ROW 08 : --- .. . ... : A-3 01 . ... : A-2 04 . ... : 0-# 01 . ... : ... .. . ...
ROW 09 : A-3 06 . ... : ... .. . ... : ... .. . ... : ... .. . ... : ... .. . ...
ROW 0A : --- .. . ... : A-3 01 . ... : C-3 04 . ... : 0-# 01 . ... : ... .. . ...
ROW 0B : A-3 06 . ... : ... .. . ... : ... .. . ... : ... .. . ... : ... .. . ...
ROW 0C : --- .. . ... : A-3 02 . ... : B-2 04 . ... : 0-# 01 . ... : ... .. . ...
ROW 0D : A-3 06 . ... : ... .. . ... : ... .. . ... : ... .. . ... : ... .. . ...
ROW 0E : --- .. . ... : A-3 02 . ... : A-2 04 . ... : 0-# 02 . ... : ... .. . ...
ROW 0F : A-3 06 . ... : ... .. . ... : ... .. . ... : ... .. . ... : ... .. . ...
ROW 10 : --- .. . ... : G-3 01 . ... : G-2 04 . ... : 0-# 01 . ... : ... .. . ...
ROW 11 : G-3 06 . ... : ... .. . ... : ... .. . ... : ... .. . ... : ... .. . ...
ROW 12 : --- .. . ... : G-3 01 . ... : ... .. . ... : 0-# 02 . ... : ... .. . ...
ROW 13 : G-3 06 . ... : ... .. . ... : A-2 04 . ... : 0-# 01 . ... : ... .. . ...
ROW 14 : --- .. . ... : G-3 02 . ... : C-3 04 . ... : ... .. . ... : ... .. . ...
ROW 15 : G-3 06 . ... : ... .. . ... : ... .. . ... : ... .. . ... : ... .. . ...
ROW 16 : --- .. . ... : G-3 02 . ... : ... .. . ... : 0-# 01 . ... : ... .. . ...
ROW 17 : G-3 06 . ... : ... .. . ... : ... .. . ... : ... .. . ... : ... .. . ...
ROW 18 : --- .. . ... : F-3 01 . ... : D-3 04 . ... : 0-# 01 . ... : ... .. . ...
ROW 19 : F-3 06 . ... : ... .. . ... : ... .. . ... : ... .. . ... : ... .. . ...
ROW 1A : --- .. . ... : F-3 01 . ... : G-2 04 . ... : 0-# 01 . ... : ... .. . ...
ROW 1B : F-3 06 . ... : ... .. . ... : ... .. . ... : ... .. . ... : ... .. . ...
ROW 1C : --- .. . ... : F-3 02 . ... : F-2 04 . ... : 0-# 01 . ... : ... .. . ...
ROW 1D : F-3 06 . ... : ... .. . ... : ... .. . ... : ... .. . ... : ... .. . ...
ROW 1E : --- .. . ... : F-3 02 . ... : E-2 04 . ... : 0-# 02 . ... : ... .. . ...
ROW 1F : F-3 06 . ... : ... .. . ... : ... .. . ... : ... .. . ... : ... .. . ...
ROW 20 : --- .. . ... : A-3 01 . ... : D-2 04 . ... : 0-# 01 . ... : ... .. . ...
ROW 21 : A-3 06 . ... : ... .. . ... : ... .. . ... : ... .. . ... : ... .. . ...
ROW 22 : --- .. . ... : A-3 01 . ... : ... .. . ... : 0-# 02 . ... : ... .. . ...
ROW 23 : A-3 06 . ... : ... .. . ... : F-2 04 . ... : 0-# 01 . ... : ... .. . ...
ROW 24 : --- .. . ... : A-3 02 . ... : G-2 04 . ... : ... .. . ... : ... .. . ...
ROW 25 : A-3 06 . ... : ... .. . ... : ... .. . ... : ... .. . ... : ... .. . ...
ROW 26 : --- .. . ... : A-3 02 . ... : ... .. . ... : 0-# 01 . ... : ... .. . ...
ROW 27 : A-3 06 . ... : ... .. . ... : ... .. . ... : ... .. . ... : ... .. . ...
ROW 28 : --- .. . ... : A-3 01 . ... : A-2 04 . ... : 0-# 01 . ... : ... .. . ...
ROW 29 : A-3 06 . ... : ... .. . ... : ... .. . ... : ... .. . ... : ... .. . ...
ROW 2A : --- .. . ... : A-3 01 . ... : C-3 04 . ... : 0-# 01 . ... : ... .. . ...
ROW 2B : A-3 06 . ... : ... .. . ... : ... .. . ... : ... .. . ... : ... .. . ...
ROW 2C : --- .. . ... : A-3 02 . ... : B-2 04 . ... : 0-# 01 . ... : ... .. . ...
ROW 2D : A-3 06 . ... : ... .. . ... : ... .. . ... : ... .. . ... : ... .. . ...
ROW 2E : --- .. . ... : A-3 02 . ... : A-2 04 . ... : 0-# 02 . ... : ... .. . ...
ROW 2F : A-3 06 . ... : ... .. . ... : ... .. . ... : ... .. . ... : ... .. . ...
ROW 30 : --- .. . ... : G-3 01 . ... : G-2 04 . ... : 0-# 01 . ... : ... .. . ...
ROW 31 : G-3 06 . ... : ... .. . ... : ... .. . ... : ... .. . ... : ... .. . ...
ROW 32 : --- .. . ... : G-3 01 . ... : ... .. . ... : 0-# 02 . ... : ... .. . ...
ROW 33 : G-3 06 . ... : ... .. . ... : A-2 04 . ... : 0-# 01 . ... : ... .. . ...
ROW 34 : --- .. . ... : G-3 02 . ... : C-3 04 . ... : ... .. . ... : ... .. . ...
ROW 35 : G-3 06 . ... : ... .. . ... : ... .. . ... : ... .. . ... : ... .. . ...
ROW 36 : --- .. . ... : G-3 02 . ... : ... .. . ... : 0-# 01 . ... : ... .. . ...
ROW 37 : G-3 06 . ... : ... .. . ... : ... .. . ... : ... .. . ... : ... .. . ...
ROW 38 : --- .. . ... : F-3 01 . ... : D-3 04 . ... : 0-# 01 . ... : ... .. . ...
ROW 39 : F-3 06 . ... : ... .. . ... : ... .. . ... : ... .. . ... : ... .. . ...
ROW 3A : --- .. . ... : F-3 01 . ... : G-2 04 . ... : 0-# 01 . ... : ... .. . ...
ROW 3B : F-3 06 . ... : ... .. . ... : ... .. . ... : ... .. . ... : ... .. . ...
ROW 3C : --- .. . ... : F-3 02 . ... : F-2 04 . ... : 0-# 01 . ... : ... .. . ...
ROW 3D : F-3 06 . ... : ... .. . ... : ... .. . ... : ... .. . ... : ... .. . ...
ROW 3E : --- .. . ... : F-3 02 . ... : E-2 04 . ... : 0-# 02 . ... : ... .. . ...
ROW 3F : F-3 06 . ... : ... .. . ... : ... .. . ... : ... .. . ... : ... .. . ...

PATTERN 01
ROW 00 : ... .. . ... : D-3 05 . ... : D-3 03 . ... : 0-# 01 . ... : ... .. . ...
ROW 01 : A-2 01 . ... : ... .. . ... : ... .. . ... : ... .. . ... : ... .. . ...
ROW 02 : ... .. . ... : F-3 05 . ... : D-3 03 . ... : 9-# 02 . ... : ... .. . ...
ROW 03 : A-2 01 . ... : ... .. . ... : ... .. . ... : 0-# 01 . ... : ... .. . ...
ROW 04 : ... .. . ... : G-3 05 . ... : D-3 03 . ... : 3-# 01 . ... : ... .. . ...
ROW 05 : A-2 02 . ... : ... .. . ... : ... .. . ... : ... .. . ... : ... .. . ...
ROW 06 : ... .. . ... : ... .. . ... : D-3 03 . ... : 9-# 02 . ... : ... .. . ...
ROW 07 : A-2 02 . ... : ... .. . ... : ... .. . ... : ... .. . ... : ... .. . ...
ROW 08 : ... .. . ... : ... .. . ... : D-3 03 . ... : 0-# 01 . ... : ... .. . ...
ROW 09 : A-2 01 . ... : ... .. . ... : ... .. . ... : ... .. . ... : ... .. . ...
ROW 0A : ... .. . ... : ... .. . ... : D-3 03 . ... : 0-# 01 . ... : ... .. . ...
ROW 0B : A-2 01 . ... : ... .. . ... : ... .. . ... : ... .. . ... : ... .. . ...
ROW 0C : ... .. . ... : ... .. . ... : D-3 03 . ... : 3-# 01 . ... : ... .. . ...
ROW 0D : A-2 02 . ... : ... .. . ... : ... .. . ... : ... .. . ... : ... .. . ...
ROW 0E : ... .. . ... : ... .. . ... : D-3 03 . ... : A-# 01 . ... : ... .. . ...
ROW 0F : A-2 02 . ... : ... .. . ... : ... .. . ... : ... .. . ... : ... .. . ...
ROW 10 : ... .. . ... : F-4 05 . ... : C-3 03 . ... : 0-# 01 . ... : ... .. . ...
ROW 11 : G-2 01 . ... : G-4 05 . ... : ... .. . ... : ... .. . ... : ... .. . ...
ROW 12 : ... .. . ... : A-4 05 . ... : C-3 03 . ... : 9-# 02 . ... : ... .. . ...
ROW 13 : G-2 01 . ... : ... .. . ... : ... .. . ... : 0-# 01 . ... : ... .. . ...
ROW 14 : ... .. . ... : D-4 05 . ... : C-3 03 . ... : 3-# 01 . ... : ... .. . ...
ROW 15 : G-2 02 . ... : ... .. . ... : ... .. . ... : ... .. . ... : ... .. . ...
ROW 16 : ... .. . ... : ... .. . ... : C-3 03 . ... : 9-# 02 . ... : ... .. . ...
ROW 17 : G-2 02 . ... : ... .. . ... : ... .. . ... : ... .. . ... : ... .. . ...
ROW 18 : ... .. . ... : ... .. . ... : A-2 03 . ... : 0-# 01 . ... : ... .. . ...
ROW 19 : F-2 01 . ... : ... .. . ... : ... .. . ... : ... .. . ... : ... .. . ...
ROW 1A : ... .. . ... : ... .. . ... : A-2 03 . ... : 0-# 01 . ... : ... .. . ...
ROW 1B : F-2 01 . ... : ... .. . ... : ... .. . ... : ... .. . ... : ... .. . ...
ROW 1C : ... .. . ... : ... .. . ... : A-2 03 . ... : 3-# 01 . ... : ... .. . ...
ROW 1D : F-2 02 . ... : ... .. . ... : ... .. . ... : ... .. . ... : ... .. . ...
ROW 1E : ... .. . ... : ... .. . ... : A-2 03 . ... : A-# 01 . ... : ... .. . ...
ROW 1F : F-2 02 . ... : ... .. . ... : ... .. . ... : ... .. . ... : ... .. . ...
ROW 20 : ... .. . ... : D-3 05 . ... : D-3 03 . ... : 0-# 01 . ... : ... .. . ...
ROW 21 : A-2 01 . ... : ... .. . ... : ... .. . ... : ... .. . ... : ... .. . ...
ROW 22 : ... .. . ... : F-3 05 . ... : D-3 03 . ... : 9-# 02 . ... : ... .. . ...
ROW 23 : A-2 01 . ... : ... .. . ... : ... .. . ... : 0-# 01 . ... : ... .. . ...
ROW 24 : ... .. . ... : G-3 05 . ... : D-3 03 . ... : 3-# 01 . ... : ... .. . ...
ROW 25 : A-2 02 . ... : ... .. . ... : ... .. . ... : ... .. . ... : ... .. . ...
ROW 26 : ... .. . ... : ... .. . ... : D-3 03 . ... : 9-# 02 . ... : ... .. . ...
ROW 27 : A-2 02 . ... : ... .. . ... : ... .. . ... : ... .. . ... : ... .. . ...
ROW 28 : ... .. . ... : ... .. . ... : D-3 03 . ... : 0-# 01 . ... : ... .. . ...
ROW 29 : A-2 01 . ... : ... .. . ... : ... .. . ... : ... .. . ... : ... .. . ...
ROW 2A : ... .. . ... : ... .. . ... : D-3 03 . ... : 0-# 01 . ... : ... .. . ...
ROW 2B : A-2 01 . ... : ... .. . ... : ... .. . ... : ... .. . ... : ... .. . ...
ROW 2C : ... .. . ... : ... .. . ... : D-3 03 . ... : 3-# 01 . ... : ... .. . ...
ROW 2D : A-2 02 . ... : ... .. . ... : ... .. . ... : ... .. . ... : ... .. . ...
ROW 2E : ... .. . ... : ... .. . ... : D-3 03 . ... : A-# 01 . ... : ... .. . ...
ROW 2F : A-2 02 . ... : ... .. . ... : ... .. . ... : ... .. . ... : ... .. . ...
ROW 30 : ... .. . ... : F-4 05 . ... : C-3 03 . ... : 0-# 01 . ... : ... .. . ...
ROW 31 : G-2 01 . ... : G-4 05 . ... : ... .. . ... : ... .. . ... : ... .. . ...
ROW 32 : ... .. . ... : A-4 05 . ... : C-3 03 . ... : 9-# 02 . ... : ... .. . ...
ROW 33 : G-2 01 . ... : ... .. . ... : ... .. . ... : 0-# 01 . ... : ... .. . ...
ROW 34 : ... .. . ... : C-5 05 . ... : C-3 03 . ... : 3-# 01 . ... : ... .. . ...
ROW 35 : G-2 02 . ... : ... .. . ... : ... .. . ... : ... .. . ... : ... .. . ...
ROW 36 : ... .. . ... : ... .. . ... : C-3 03 . ... : 9-# 02 . ... : ... .. . ...
ROW 37 : G-2 02 . ... : ... .. . ... : ... .. . ... : ... .. . ... : ... .. . ...
ROW 38 : ... .. . ... : ... .. . ... : A-2 03 . ... : 0-# 01 . ... : ... .. . ...
ROW 39 : F-2 01 . ... : ... .. . ... : ... .. . ... : ... .. . ... : ... .. . ...
ROW 3A : ... .. . ... : ... .. . ... : A-2 03 . ... : 0-# 01 . ... : ... .. . ...
ROW 3B : F-2 01 . ... : ... .. . ... : ... .. . ... : ... .. . ... : ... .. . ...
ROW 3C : ... .. . ... : ... .. . ... : A-2 03 . ... : 3-# 01 . ... : ... .. . ...
ROW 3D : F-2 02 . ... : ... .. . ... : ... .. . ... : ... .. . ... : ... .. . ...
ROW 3E : ... .. . ... : ... .. . ... : A-2 03 . ... : A-# 01 . ... : ... .. . ...
ROW 3F : F-2 02 . ... : ... .. . ... : ... .. . ... : ... .. . ... : ... .. . ...

PATTERN 02
ROW 00 : ... .. . ... : D-5 05 . ... : ... .. . ... : ... .. . ... : ... .. . ...
ROW 01 : ... .. . ... : ... .. . ... : ... .. . ... : ... .. . ... : ... .. . ...
ROW 02 : ... .. . ... : C-5 05 . ... : ... .. . ... : ... .. . ... : ... .. . ...
ROW 03 : ... .. . ... : A-4 05 . ... : ... .. . ... : ... .. . ... : ... .. . ...
ROW 04 : ... .. . ... : C-5 05 . ... : ... .. . ... : ... .. . ... : ... .. . ...
ROW 05 : ... .. . ... : ... .. . ... : ... .. . ... : ... .. . ... : ... .. . ...
ROW 06 : ... .. . ... : D-5 05 . ... : ... .. . ... : ... .. . ... : ... .. . ...
ROW 07 : ... .. . ... : ... .. . ... : ... .. . ... : ... .. . ... : ... .. . ...
ROW 08 : ... .. . ... : ... .. . ... : ... .. . ... : ... .. . ... : ... .. . ...
ROW 09 : ... .. . ... : ... .. . ... : ... .. . ... : ... .. . ... : ... .. . ...
ROW 0A : ... .. . ... : ... .. . ... : ... .. . ... : ... .. . ... : ... .. . ...
ROW 0B : ... .. . ... : ... .. . ... : ... .. . ... : ... .. . ... : ... .. . ...
ROW 0C : ... .. . ... : F-4 05 . ... : ... .. . ... : ... .. . ... : ... .. . ...
ROW 0D : ... .. . ... : E-4 05 . ... : ... .. . ... : ... .. . ... : ... .. . ...
ROW 0E : ... .. . ... : D-4 05 . ... : ... .. . ... : ... .. . ... : ... .. . ...
ROW 0F : ... .. . ... : C-4 05 . ... : ... .. . ... : ... .. . ... : ... .. . ...
ROW 10 : ... .. . ... : A-3 05 . ... : ... .. . ... : ... .. . ... : ... .. . ...
ROW 11 : ... .. . ... : ... .. . ... : ... .. . ... : ... .. . ... : ... .. . ...
ROW 12 : ... .. . ... : ... .. . ... : ... .. . ... : ... .. . ... : ... .. . ...
ROW 13 : ... .. . ... : ... .. . ... : ... .. . ... : ... .. . ... : ... .. . ...
ROW 14 : ... .. . ... : F-4 05 . ... : ... .. . ... : ... .. . ... : ... .. . ...
ROW 15 : ... .. . ... : E-4 05 . ... : ... .. . ... : ... .. . ... : ... .. . ...
ROW 16 : ... .. . ... : D-4 05 . ... : ... .. . ... : ... .. . ... : ... .. . ...
ROW 17 : ... .. . ... : C-4 05 . ... : ... .. . ... : ... .. . ... : ... .. . ...
ROW 18 : ... .. . ... : G-4 05 . ... : ... .. . ... : ... .. . ... : ... .. . ...
ROW 19 : ... .. . ... : F-4 05 . ... : ... .. . ... : ... .. . ... : ... .. . ...
ROW 1A : ... .. . ... : E-4 05 . ... : ... .. . ... : ... .. . ... : ... .. . ...
ROW 1B : ... .. . ... : D-4 05 . ... : ... .. . ... : ... .. . ... : ... .. . ...
ROW 1C : ... .. . ... : ... .. . ... : ... .. . ... : ... .. . ... : ... .. . ...
ROW 1D : ... .. . ... : ... .. . ... : ... .. . ... : ... .. . ... : ... .. . ...
ROW 1E : ... .. . ... : ... .. . ... : ... .. . ... : ... .. . ... : ... .. . ...
ROW 1F : ... .. . ... : ... .. . ... : ... .. . ... : ... .. . ... : ... .. . ...
ROW 20 : ... .. . ... : D-5 05 . ... : ... .. . ... : ... .. . ... : ... .. . ...
ROW 21 : ... .. . ... : ... .. . ... : ... .. . ... : ... .. . ... : ... .. . ...
ROW 22 : ... .. . ... : C-5 05 . ... : ... .. . ... : ... .. . ... : ... .. . ...
ROW 23 : ... .. . ... : A-4 05 . ... : ... .. . ... : ... .. . ... : ... .. . ...
ROW 24 : ... .. . ... : C-5 05 . ... : ... .. . ... : ... .. . ... : ... .. . ...
ROW 25 : ... .. . ... : ... .. . ... : ... .. . ... : ... .. . ... : ... .. . ...
ROW 26 : ... .. . ... : D-5 05 . ... : ... .. . ... : ... .. . ... : ... .. . ...
ROW 27 : ... .. . ... : ... .. . ... : ... .. . ... : ... .. . ... : ... .. . ...
ROW 28 : ... .. . ... : ... .. . ... : ... .. . ... : ... .. . ... : ... .. . ...
ROW 29 : ... .. . ... : ... .. . ... : ... .. . ... : ... .. . ... : ... .. . ...
ROW 2A : ... .. . ... : ... .. . ... : ... .. . ... : ... .. . ... : ... .. . ...
ROW 2B : ... .. . ... : ... .. . ... : ... .. . ... : ... .. . ... : ... .. . ...
ROW 2C : ... .. . ... : F-4 05 . ... : ... .. . ... : ... .. . ... : ... .. . ...
ROW 2D : ... .. . ... : E-4 05 . ... : ... .. . ... : ... .. . ... : ... .. . ...
ROW 2E : ... .. . ... : D-4 05 . ... : ... .. . ... : ... .. . ... : ... .. . ...
ROW 2F : ... .. . ... : C-4 05 . ... : ... .. . ... : ... .. . ... : ... .. . ...
ROW 30 : ... .. . ... : A-3 05 . ... : ... .. . ... : ... .. . ... : ... .. . ...
ROW 31 : ... .. . ... : ... .. . ... : ... .. . ... : ... .. . ... : ... .. . ...
ROW 32 : ... .. . ... : ... .. . ... : ... .. . ... : ... .. . ... : ... .. . ...
ROW 33 : ... .. . ... : ... .. . ... : ... .. . ... : ... .. . ... : ... .. . ...
ROW 34 : ... .. . ... : F-4 05 . ... : ... .. . ... : ... .. . ... : ... .. . ...
ROW 35 : ... .. . ... : E-4 05 . ... : ... .. . ... : ... .. . ... : ... .. . ...
ROW 36 : ... .. . ... : D-4 05 . ... : ... .. . ... : ... .. . ... : ... .. . ...
ROW 37 : ... .. . ... : C-4 05 . ... : ... .. . ... : ... .. . ... : ... .. . ...
ROW 38 : ... .. . ... : G-4 05 . ... : ... .. . ... : ... .. . ... : ... .. . ...
ROW 39 : ... .. . ... : F-4 05 . ... : ... .. . ... : ... .. . ... : ... .. . ...
ROW 3A : ... .. . ... : E-4 05 . ... : ... .. . ... : ... .. . ... : ... .. . ...
ROW 3B : ... .. . ... : D-4 05 . ... : ... .. . ... : ... .. . ... : ... .. . ...
ROW 3C : ... .. . ... : ... .. . ... : ... .. . ... : ... .. . ... : ... .. . ...
ROW 3D : ... .. . ... : ... .. . ... : ... .. . ... : ... .. . ... : ... .. . ...
ROW 3E : ... .. . ... : ... .. . ... : ... .. . ... : ... .. . ... : ... .. . ...
ROW 3F : ... .. . ... : ... .. . ... : ... .. . ... : ... .. . ... : ... .. . ...

TRACK  32   5 150 "Japan"
COLUMNS : 1 1 1 1 1

ORDER 00 : 00 00 00 00 00
ORDER 01 : 01 01 01 00 01
ORDER 02 : 00 00 00 00 00
ORDER 03 : 02 02 01 00 01
ORDER 04 : 03 03 00 00 02

PATTERN 00
ROW 00 : D-2 07 . ... : D-2 05 . ... : D-2 07 . ... : 0-# 01 . ... : ... .. . ...
ROW 01 : ... .. . ... : ... .. . ... : ... .. . ... : ... .. . ... : ... .. . ...
ROW 02 : E-2 07 . ... : E-2 05 . ... : ... .. . ... : F-# 01 . ... : ... .. . ...
ROW 03 : ... .. . ... : D-2 06 . ... : ... .. . ... : ... .. . ... : ... .. . ...
ROW 04 : F-2 07 . ... : F-2 05 . ... : ... .. . ... : 3-# 01 . ... : ... .. . ...
ROW 05 : ... .. . ... : E-2 06 . ... : --- .. . ... : ... .. . ... : ... .. . ...
ROW 06 : A-2 07 . ... : A-3 05 . ... : D-2 07 . ... : 0-# 01 . ... : ... .. . ...
ROW 07 : ... .. . ... : ... .. . ... : --- .. . ... : ... .. . ... : ... .. . ...
ROW 08 : A#2 07 . ... : ... .. . ... : D-2 07 . ... : 0-# 01 . ... : ... .. . ...
ROW 09 : ... .. . ... : ... .. . ... : ... .. . ... : ... .. . ... : ... .. . ...
ROW 0A : D-3 07 . ... : ... .. . ... : ... .. . ... : F-# 01 . ... : ... .. . ...
ROW 0B : ... .. . ... : ... .. . ... : ... .. . ... : ... .. . ... : ... .. . ...
ROW 0C : E-3 07 . ... : ... .. . ... : ... .. . ... : 3-# 01 . ... : ... .. . ...
ROW 0D : ... .. . ... : ... .. . ... : --- .. . ... : ... .. . ... : ... .. . ...
ROW 0E : F-3 07 . ... : ... .. . ... : D-2 07 . ... : 0-# 01 . ... : ... .. . ...
ROW 0F : ... .. . ... : ... .. . ... : ... .. . ... : ... .. . ... : ... .. . ...
ROW 10 : A-3 07 . ... : ... .. . ... : ... .. . ... : F-# 01 . ... : ... .. . ...
ROW 11 : ... .. . ... : ... .. . ... : --- .. . ... : ... .. . ... : ... .. . ...
ROW 12 : D-4 07 . ... : ... .. . ... : D-2 07 . ... : 0-# 01 . ... : ... .. . ...
ROW 13 : ... .. . ... : ... .. . ... : ... .. . ... : ... .. . ... : ... .. . ...
ROW 14 : F-4 05 . ... : F-3 05 . ... : ... .. . ... : 3-# 01 . ... : ... .. . ...
ROW 15 : ... .. . ... : ... .. . ... : ... .. . ... : ... .. . ... : ... .. . ...
ROW 16 : A-4 05 . ... : A-3 05 . ... : D-2 07 . ... : 0-# 01 . ... : ... .. . ...
ROW 17 : F-4 06 . ... : F-3 06 . ... : ... .. . ... : ... .. . ... : ... .. . ...
ROW 18 : G-4 05 . ... : G-3 05 . ... : D-2 07 . ... : 0-# 01 . ... : ... .. . ...
ROW 19 : A-4 06 . ... : A-3 06 . ... : ... .. . ... : ... .. . ... : ... .. . ...
ROW 1A : F-4 05 . ... : F-3 05 . ... : D-2 07 . ... : F-# 01 . ... : ... .. . ...
ROW 1B : G-4 06 . ... : G-3 06 . ... : ... .. . ... : ... .. . ... : ... .. . ...
ROW 1C : E-4 05 . ... : E-3 05 . ... : D-2 07 . ... : 3-# 01 . ... : ... .. . ...
ROW 1D : F-4 06 . ... : F-3 06 . ... : ... .. . ... : ... .. . ... : ... .. . ...
ROW 1E : C-4 05 . ... : C-3 05 . ... : D-2 07 . ... : F-# 01 . ... : ... .. . ...
ROW 1F : E-4 06 . ... : E-3 06 . ... : ... .. . ... : ... .. . ... : ... .. . ...

PATTERN 01
ROW 00 : F-2 07 . ... : F-3 05 . ... : C-2 07 . ... : ... .. . ... : ... .. . ...
ROW 01 : ... .. . ... : ... .. . ... : --- .. . ... : ... .. . ... : ... .. . ...
ROW 02 : ... .. . ... : ... .. . ... : C-2 07 . ... : ... .. . ... : ... .. . ...
ROW 03 : ... .. . ... : ... .. . ... : --- .. . ... : ... .. . ... : ... .. . ...
ROW 04 : ... .. . ... : ... .. . ... : C-2 07 . ... : ... .. . ... : ... .. . ...
ROW 05 : ... .. . ... : ... .. . ... : --- .. . ... : ... .. . ... : ... .. . ...
ROW 06 : ... .. . ... : ... .. . ... : C-2 07 . ... : ... .. . ... : ... .. . ...
ROW 07 : ... .. . ... : ... .. . ... : --- .. . ... : ... .. . ... : ... .. . ...
ROW 08 : ... .. . ... : ... .. . ... : C-2 07 . ... : ... .. . ... : ... .. . ...
ROW 09 : ... .. . ... : ... .. . ... : --- .. . ... : ... .. . ... : ... .. . ...
ROW 0A : ... .. . ... : ... .. . ... : C-2 07 . ... : ... .. . ... : ... .. . ...
ROW 0B : ... .. . ... : ... .. . ... : --- .. . ... : ... .. . ... : ... .. . ...
ROW 0C : ... .. . ... : ... .. . ... : C-2 07 . ... : ... .. . ... : ... .. . ...
ROW 0D : ... .. . ... : ... .. . ... : ... .. . ... : ... .. . ... : ... .. . ...
ROW 0E : ... .. . ... : ... .. . ... : ... .. . ... : ... .. . ... : ... .. . ...
ROW 0F : ... .. . ... : ... .. . ... : ... .. . ... : ... .. . ... : ... .. . ...
ROW 10 : E-2 07 . ... : E-3 05 . ... : A-1 07 . ... : ... .. . ... : ... .. . ...
ROW 11 : ... .. . ... : ... .. . ... : ... .. . ... : ... .. . ... : ... .. . ...
ROW 12 : ... .. . ... : ... .. . ... : ... .. . ... : ... .. . ... : ... .. . ...
ROW 13 : ... .. . ... : ... .. . ... : ... .. . ... : ... .. . ... : ... .. . ...
ROW 14 : ... .. . ... : ... .. . ... : ... .. . ... : ... .. . ... : ... .. . ...
ROW 15 : ... .. . ... : ... .. . ... : ... .. . ... : ... .. . ... : ... .. . ...
ROW 16 : ... .. . ... : ... .. . ... : ... .. . ... : ... .. . ... : ... .. . ...
ROW 17 : ... .. . ... : ... .. . ... : ... .. . ... : ... .. . ... : ... .. . ...
ROW 18 : E-3 07 . ... : A-3 07 . ... : A-3 07 . ... : ... .. . ... : ... .. . ...
ROW 19 : ... .. . ... : ... .. . ... : ... .. . ... : ... .. . ... : ... .. . ...
ROW 1A : C-3 07 . ... : F-3 07 . ... : F-3 07 . ... : ... .. . ... : ... .. . ...
ROW 1B : ... .. . ... : ... .. . ... : ... .. . ... : ... .. . ... : ... .. . ...
ROW 1C : D-3 07 . ... : G-3 07 . ... : G-3 07 . ... : ... .. . ... : ... .. . ...
ROW 1D : ... .. . ... : ... .. . ... : ... .. . ... : ... .. . ... : ... .. . ...
ROW 1E : B-2 07 . ... : E-3 07 . ... : E-3 07 . ... : ... .. . ... : ... .. . ...
ROW 1F : ... .. . ... : ... .. . ... : ... .. . ... : ... .. . ... : ... .. . ...

PATTERN 02
ROW 00 : F-2 07 . ... : F-3 05 . ... : ... .. . ... : ... .. . ... : ... .. . ...
ROW 01 : ... .. . ... : ... .. . ... : ... .. . ... : ... .. . ... : ... .. . ...
ROW 02 : ... .. . ... : ... .. . ... : ... .. . ... : ... .. . ... : ... .. . ...
ROW 03 : ... .. . ... : ... .. . ... : ... .. . ... : ... .. . ... : ... .. . ...
ROW 04 : ... .. . ... : ... .. . ... : ... .. . ... : ... .. . ... : ... .. . ...
ROW 05 : ... .. . ... : ... .. . ... : ... .. . ... : ... .. . ... : ... .. . ...
ROW 06 : ... .. . ... : ... .. . ... : ... .. . ... : ... .. . ... : ... .. . ...
ROW 07 : ... .. . ... : ... .. . ... : ... .. . ... : ... .. . ... : ... .. . ...
ROW 08 : ... .. . ... : ... .. . ... : ... .. . ... : ... .. . ... : ... .. . ...
ROW 09 : ... .. . ... : ... .. . ... : ... .. . ... : ... .. . ... : ... .. . ...
ROW 0A : ... .. . ... : ... .. . ... : ... .. . ... : ... .. . ... : ... .. . ...
ROW 0B : ... .. . ... : ... .. . ... : ... .. . ... : ... .. . ... : ... .. . ...
ROW 0C : ... .. . ... : ... .. . ... : ... .. . ... : ... .. . ... : ... .. . ...
ROW 0D : ... .. . ... : ... .. . ... : ... .. . ... : ... .. . ... : ... .. . ...
ROW 0E : ... .. . ... : ... .. . ... : ... .. . ... : ... .. . ... : ... .. . ...
ROW 0F : ... .. . ... : ... .. . ... : ... .. . ... : ... .. . ... : ... .. . ...
ROW 10 : G-2 07 . ... : G-3 05 . ... : ... .. . ... : ... .. . ... : ... .. . ...
ROW 11 : ... .. . ... : ... .. . ... : ... .. . ... : ... .. . ... : ... .. . ...
ROW 12 : ... .. . ... : ... .. . ... : ... .. . ... : ... .. . ... : ... .. . ...
ROW 13 : ... .. . ... : ... .. . ... : ... .. . ... : ... .. . ... : ... .. . ...
ROW 14 : ... .. . ... : ... .. . ... : ... .. . ... : ... .. . ... : ... .. . ...
ROW 15 : ... .. . ... : ... .. . ... : ... .. . ... : ... .. . ... : ... .. . ...
ROW 16 : ... .. . ... : ... .. . ... : ... .. . ... : ... .. . ... : ... .. . ...
ROW 17 : ... .. . ... : ... .. . ... : ... .. . ... : ... .. . ... : ... .. . ...
ROW 18 : E-3 07 . ... : A-3 07 . ... : ... .. . ... : ... .. . ... : ... .. . ...
ROW 19 : ... .. . ... : ... .. . ... : ... .. . ... : ... .. . ... : ... .. . ...
ROW 1A : C-3 07 . ... : F-3 07 . ... : ... .. . ... : ... .. . ... : ... .. . ...
ROW 1B : ... .. . ... : ... .. . ... : ... .. . ... : ... .. . ... : ... .. . ...
ROW 1C : D-3 07 . ... : G-3 07 . ... : ... .. . ... : ... .. . ... : ... .. . ...
ROW 1D : ... .. . ... : ... .. . ... : ... .. . ... : ... .. . ... : ... .. . ...
ROW 1E : B-2 07 . ... : E-3 07 . ... : ... .. . ... : ... .. . ... : ... .. . ...
ROW 1F : ... .. . ... : ... .. . ... : ... .. . ... : ... .. . ... : ... .. . ...

PATTERN 03
ROW 00 : D-3 07 . ... : D-3 05 . ... : ... .. . ... : ... .. . ... : ... .. . ...
ROW 01 : ... .. . ... : ... .. . ... : ... .. . ... : ... .. . ... : ... .. . ...
ROW 02 : ... .. . ... : ... .. . ... : ... .. . ... : ... .. . ... : ... .. . ...
ROW 03 : ... .. . ... : ... .. . ... : ... .. . ... : ... .. . ... : ... .. . ...
ROW 04 : ... .. . ... : ... .. . ... : ... .. . ... : ... .. . ... : ... .. . ...
ROW 05 : ... .. . ... : ... .. . ... : ... .. . ... : ... .. . ... : ... .. . ...
ROW 06 : ... .. . ... : ... .. . ... : ... .. . ... : ... .. . ... : ... .. . ...
ROW 07 : ... .. . ... : ... .. . ... : ... .. . ... : ... .. . ... : ... .. . ...
ROW 08 : ... .. . ... : ... .. . ... : ... .. . ... : ... .. . ... : ... .. . ...
ROW 09 : ... .. . ... : ... .. . ... : ... .. . ... : ... .. . ... : ... .. . ...
ROW 0A : ... .. . ... : ... .. . ... : ... .. . ... : ... .. . ... : ... .. . ...
ROW 0B : ... .. . ... : ... .. . ... : ... .. . ... : ... .. . ... : ... .. . ...
ROW 0C : ... .. . ... : ... .. . ... : ... .. . ... : ... .. . ... : ... .. . ...
ROW 0D : ... .. . ... : ... .. . ... : ... .. . ... : ... .. . ... : ... .. . ...
ROW 0E : ... .. . ... : ... .. . ... : ... .. . ... : ... .. . ... : ... .. . ...
ROW 0F : ... .. . ... : ... .. . ... : ... .. . ... : ... .. . ... : ... .. . ...
ROW 10 : D-3 07 . ... : D-3 05 . ... : ... .. . ... : ... .. . ... : ... .. . ...
ROW 11 : ... .. . ... : ... .. . ... : ... .. . ... : ... .. . ... : ... .. . ...
ROW 12 : E-3 07 . ... : E-3 05 . ... : ... .. . ... : ... .. . ... : ... .. . ...
ROW 13 : ... .. . ... : ... .. . ... : ... .. . ... : ... .. . ... : ... .. . ...
ROW 14 : F-3 07 . ... : F-3 05 . ... : ... .. . ... : ... .. . ... : ... .. . ...
ROW 15 : ... .. . ... : ... .. . ... : ... .. . ... : ... .. . ... : ... .. . ...
ROW 16 : A-3 07 . ... : A-3 05 . ... : ... .. . ... : ... .. . ... : ... .. . ...
ROW 17 : ... .. . ... : ... .. . ... : ... .. . ... : ... .. . ... : ... .. . ...
ROW 18 : A#3 07 . ... : A#3 05 . ... : ... .. . ... : ... .. . ... : ... .. . ...
ROW 19 : ... .. . ... : ... .. . ... : ... .. . ... : ... .. . ... : ... .. . ...
ROW 1A : D-4 07 . ... : D-4 05 . ... : ... .. . ... : ... .. . ... : ... .. . ...
ROW 1B : ... .. . ... : ... .. . ... : ... .. . ... : ... .. . ... : ... .. . ...
ROW 1C : A-3 07 . ... : A-3 05 . ... : ... .. . ... : ... .. . ... : ... .. . ...
ROW 1D : ... .. . ... : ... .. . ... : ... .. . ... : ... .. . ... : ... .. . ...
ROW 1E : E-3 07 . ... : E-3 05 . ... : ... .. . ... : ... .. . ... : ... .. . ...
ROW 1F : ... .. . ... : ... .. . ... : ... .. . ... : ... .. . ... : ... .. . ...

TRACK  12   7 150 "EgyptianTomb"
COLUMNS : 1 1 1 1 1

ORDER 00 : 00 00 00 00 00
ORDER 01 : 00 00 01 00 00
ORDER 02 : 00 00 02 00 00
ORDER 03 : 00 01 03 00 00
ORDER 04 : 01 01 04 00 00
ORDER 05 : 01 01 05 00 00
ORDER 06 : 02 02 06 00 00
ORDER 07 : 02 02 07 00 00
ORDER 08 : 03 02 00 00 00
ORDER 09 : 04 02 01 00 00
ORDER 0A : 00 02 02 00 00
ORDER 0B : 00 01 03 00 00
ORDER 0C : 00 00 00 00 00
ORDER 0D : 00 00 01 00 00
ORDER 0E : 00 00 02 00 00
ORDER 0F : 00 01 03 00 00
ORDER 10 : 01 01 04 00 00
ORDER 11 : 01 01 05 00 00
ORDER 12 : 02 02 06 00 00
ORDER 13 : 02 02 07 00 00
ORDER 14 : 03 02 00 00 00
ORDER 15 : 04 02 01 00 00
ORDER 16 : 00 02 02 00 00
ORDER 17 : 00 01 03 00 00
ORDER 18 : 03 02 01 00 00
ORDER 19 : 04 03 02 00 00
ORDER 1A : 00 03 07 00 00
ORDER 1B : 00 03 07 00 00
ORDER 1C : 05 04 03 00 00

PATTERN 00
ROW 00 : F#1 0E . ... : ... .. . ... : C#3 04 . ... : ... .. . ... : ... .. . ...
ROW 01 : ... .. . ... : ... .. . ... : ... .. . ... : ... .. . ... : ... .. . ...
ROW 02 : ... .. . ... : C#2 09 . ... : ... .. . ... : ... .. . ... : ... .. . ...
ROW 03 : ... .. . ... : ... .. . ... : ... .. . ... : ... .. . ... : ... .. . ...
ROW 04 : ... .. . ... : F-2 09 . ... : ... .. . ... : ... .. . ... : ... .. . ...
ROW 05 : ... .. . ... : ... .. . ... : ... .. . ... : ... .. . ... : ... .. . ...
ROW 06 : ... .. . ... : F#2 09 . ... : ... .. . ... : ... .. . ... : ... .. . ...
ROW 07 : ... .. . ... : ... .. . ... : ... .. . ... : ... .. . ... : ... .. . ...
ROW 08 : ... .. . ... : F-2 09 . ... : ... .. . ... : ... .. . ... : ... .. . ...
ROW 09 : ... .. . ... : ... .. . ... : ... .. . ... : ... .. . ... : ... .. . ...
ROW 0A : ... .. . ... : D-2 09 . ... : ... .. . ... : ... .. . ... : ... .. . ...
ROW 0B : ... .. . ... : ... .. . ... : ... .. . ... : ... .. . ... : ... .. . ...

PATTERN 01
ROW 00 : C#3 0C . ... : ... .. . ... : G#2 04 . ... : ... .. . ... : ... .. . ...
ROW 01 : ... .. . ... : ... .. . ... : ... .. . ... : ... .. . ... : ... .. . ...
ROW 02 : F#3 0C . ... : C#2 0A . ... : ... .. . ... : ... .. . ... : ... .. . ...
ROW 03 : ... .. . ... : ... .. . ... : ... .. . ... : ... .. . ... : ... .. . ...
ROW 04 : ... .. . ... : F-2 0A . ... : ... .. . ... : ... .. . ... : ... .. . ...
ROW 05 : ... .. . ... : ... .. . ... : ... .. . ... : ... .. . ... : ... .. . ...
ROW 06 : F-3 0C . ... : F#2 0A . ... : ... .. . ... : ... .. . ... : ... .. . ...
ROW 07 : ... .. . ... : ... .. . ... : ... .. . ... : ... .. . ... : ... .. . ...
ROW 08 : F#3 0C . ... : F-2 0A . ... : ... .. . ... : ... .. . ... : ... .. . ...
ROW 09 : ... .. . ... : ... .. . ... : ... .. . ... : ... .. . ... : ... .. . ...
ROW 0A : A-3 0C . ... : D-2 0A . ... : ... .. . ... : ... .. . ... : ... .. . ...
ROW 0B : ... .. . ... : ... .. . ... : ... .. . ... : ... .. . ... : ... .. . ...

PATTERN 02
ROW 00 : C#5 0D . ... : ... .. . ... : A-2 04 . ... : ... .. . ... : ... .. . ...
ROW 01 : ... .. . ... : ... .. . ... : ... .. . ... : ... .. . ... : ... .. . ...
ROW 02 : F#5 0D . ... : C#2 0B . ... : ... .. . ... : ... .. . ... : ... .. . ...
ROW 03 : ... .. . ... : ... .. . ... : ... .. . ... : ... .. . ... : ... .. . ...
ROW 04 : ... .. . ... : F-2 0B . ... : ... .. . ... : ... .. . ... : ... .. . ...
ROW 05 : ... .. . ... : ... .. . ... : ... .. . ... : ... .. . ... : ... .. . ...
ROW 06 : F-5 0D . ... : F#2 0B . ... : ... .. . ... : ... .. . ... : ... .. . ...
ROW 07 : ... .. . ... : ... .. . ... : ... .. . ... : ... .. . ... : ... .. . ...
ROW 08 : F#5 0D . ... : F-2 0B . ... : ... .. . ... : ... .. . ... : ... .. . ...
ROW 09 : ... .. . ... : ... .. . ... : ... .. . ... : ... .. . ... : ... .. . ...
ROW 0A : A-5 0D . ... : C#2 0B . ... : ... .. . ... : ... .. . ... : ... .. . ...
ROW 0B : ... .. . ... : ... .. . ... : ... .. . ... : ... .. . ... : ... .. . ...

PATTERN 03
ROW 00 : G#1 0E . ... : ... .. . ... : F#2 04 . ... : ... .. . ... : ... .. . ...
ROW 01 : ... .. . ... : ... .. . ... : ... .. . ... : ... .. . ... : ... .. . ...
ROW 02 : ... .. . ... : C#2 0B . ... : ... .. . ... : ... .. . ... : ... .. . ...
ROW 03 : ... .. . ... : ... .. . ... : ... .. . ... : ... .. . ... : ... .. . ...
ROW 04 : ... .. . ... : D-2 0B . ... : ... .. . ... : ... .. . ... : ... .. . ...
ROW 05 : ... .. . ... : ... .. . ... : ... .. . ... : ... .. . ... : ... .. . ...
ROW 06 : ... .. . ... : F-2 0B . ... : ... .. . ... : ... .. . ... : ... .. . ...
ROW 07 : ... .. . ... : ... .. . ... : ... .. . ... : ... .. . ... : ... .. . ...
ROW 08 : ... .. . ... : F#2 0B . ... : ... .. . ... : ... .. . ... : ... .. . ...
ROW 09 : ... .. . ... : ... .. . ... : ... .. . ... : ... .. . ... : ... .. . ...
ROW 0A : ... .. . ... : ... .. . ... : ... .. . ... : ... .. . ... : ... .. . ...
ROW 0B : ... .. . ... : ... .. . ... : ... .. . ... : ... .. . ... : ... .. . ...

PATTERN 04
ROW 00 : A-1 0E . ... : ... .. . ... : C#2 04 . ... : ... .. . ... : ... .. . ...
ROW 01 : ... .. . ... : ... .. . ... : ... .. . ... : ... .. . ... : ... .. . ...
ROW 02 : ... .. . ... : C#2 0B . ... : ... .. . ... : ... .. . ... : ... .. . ...
ROW 03 : ... .. . ... : ... .. . ... : ... .. . ... : ... .. . ... : ... .. . ...
ROW 04 : ... .. . ... : D-2 0B . ... : ... .. . ... : ... .. . ... : ... .. . ...
ROW 05 : ... .. . ... : ... .. . ... : ... .. . ... : ... .. . ... : ... .. . ...
ROW 06 : ... .. . ... : F-2 0B . ... : ... .. . ... : ... .. . ... : ... .. . ...
ROW 07 : ... .. . ... : ... .. . ... : ... .. . ... : ... .. . ... : ... .. . ...
ROW 08 : ... .. . ... : F#2 0B . ... : ... .. . ... : ... .. . ... : ... .. . ...
ROW 09 : ... .. . ... : F-2 0B . ... : ... .. . ... : ... .. . ... : ... .. . ...
ROW 0A : ... .. . ... : D-2 0B . ... : ... .. . ... : ... .. . ... : ... .. . ...
ROW 0B : ... .. . ... : ... .. . ... : ... .. . ... : ... .. . ... : ... .. . ...

PATTERN 05
ROW 00 : ... .. . ... : ... .. . ... : G#1 04 . ... : ... .. . ... : ... .. . ...
ROW 01 : ... .. . ... : ... .. . ... : ... .. . ... : ... .. . ... : ... .. . ...
ROW 02 : ... .. . ... : ... .. . ... : ... .. . ... : ... .. . ... : ... .. . ...
ROW 03 : C#2 09 . ... : ... .. . ... : ... .. . ... : ... .. . ... : ... .. . ...
ROW 04 : ... .. . ... : ... .. . ... : ... .. . ... : ... .. . ... : ... .. . ...
ROW 05 : D-2 09 . ... : ... .. . ... : ... .. . ... : ... .. . ... : ... .. . ...
ROW 06 : ... .. . ... : ... .. . ... : ... .. . ... : ... .. . ... : ... .. . ...
ROW 07 : F-2 09 . ... : ... .. . ... : ... .. . ... : ... .. . ... : ... .. . ...
ROW 08 : ... .. . ... : ... .. . ... : ... .. . ... : ... .. . ... : ... .. . ...
ROW 09 : F#2 09 . ... : ... .. . ... : ... .. . ... : ... .. . ... : ... .. . ...
ROW 0A : F-2 09 . ... : ... .. . ... : ... .. . ... : ... .. . ... : ... .. . ...
ROW 0B : D-2 09 . ... : ... .. . ... : ... .. . ... : ... .. . ... : ... .. . ...

PATTERN 06
ROW 00 : F#1 0E . ... : ... .. . ... : A-1 04 . ... : ... .. . ... : ... .. . ...
ROW 01 : ... .. . ... : ... .. . ... : ... .. . ... : ... .. . ... : ... .. . ...
ROW 02 : ... .. . ... : ... .. . ... : ... .. . ... : ... .. . ... : ... .. . ...
ROW 03 : ... .. . ... : ... .. . ... : ... .. . ... : ... .. . ... : ... .. . ...
ROW 04 : ... .. . ... : ... .. . ... : ... .. . ... : ... .. . ... : ... .. . ...
ROW 05 : ... .. . ... : ... .. . ... : ... .. . ... : ... .. . ... : ... .. . ...
ROW 06 : G#1 0E . ... : ... .. . ... : ... .. . ... : ... .. . ... : ... .. . ...
ROW 07 : ... .. . ... : ... .. . ... : ... .. . ... : ... .. . ... : ... .. . ...
ROW 08 : ... .. . ... : ... .. . ... : ... .. . ... : ... .. . ... : ... .. . ...
ROW 09 : C#2 0E . ... : ... .. . ... : ... .. . ... : ... .. . ... : ... .. . ...
ROW 0A : ... .. . ... : ... .. . ... : ... .. . ... : ... .. . ... : ... .. . ...
ROW 0B : ... .. . ... : ... .. . ... : ... .. . ... : ... .. . ... : ... .. . ...

PATTERN 07
ROW 00 : ... .. . ... : ... .. . ... : F#1 04 . ... : ... .. . ... : ... .. . ...
ROW 01 : ... .. . ... : ... .. . ... : ... .. . ... : ... .. . ... : ... .. . ...
ROW 02 : ... .. . ... : ... .. . ... : ... .. . ... : ... .. . ... : ... .. . ...
ROW 03 : ... .. . ... : ... .. . ... : ... .. . ... : ... .. . ... : ... .. . ...
ROW 04 : ... .. . ... : ... .. . ... : ... .. . ... : ... .. . ... : ... .. . ...
ROW 05 : ... .. . ... : ... .. . ... : ... .. . ... : ... .. . ... : ... .. . ...
ROW 06 : ... .. . ... : ... .. . ... : ... .. . ... : ... .. . ... : ... .. . ...
ROW 07 : ... .. . ... : ... .. . ... : ... .. . ... : ... .. . ... : ... .. . ...
ROW 08 : ... .. . ... : ... .. . ... : ... .. . ... : ... .. . ... : ... .. . ...
ROW 09 : ... .. . ... : ... .. . ... : ... .. . ... : ... .. . ... : ... .. . ...
ROW 0A : ... .. . ... : ... .. . ... : ... .. . ... : ... .. . ... : ... .. . ...
ROW 0B : ... .. . ... : ... .. . ... : ... .. . ... : ... .. . ... : ... .. . ...

TRACK  56   8 150 "WildWest"
COLUMNS : 1 1 1 1 1

ORDER 00 : 00 00 00 00 00
ORDER 01 : 00 00 00 00 00
ORDER 02 : 01 01 01 00 00

PATTERN 00
ROW 00 : ... .. . ... : E-2 01 . ... : E-2 01 . ... : 0-# 02 . ... : ... .. . ...
ROW 01 : E-2 09 . ... : ... .. . ... : ... .. . ... : ... .. . ... : ... .. . ...
ROW 02 : ... .. . ... : F-2 01 . ... : F-2 01 . ... : 0-# 02 . ... : ... .. . ...
ROW 03 : F-2 09 . ... : ... .. . ... : ... .. . ... : ... .. . ... : ... .. . ...
ROW 04 : ... .. . ... : G-2 01 . ... : C-3 01 . ... : 0-# 02 . ... : ... .. . ...
ROW 05 : G-2 09 . ... : ... .. . ... : ... .. . ... : ... .. . ... : ... .. . ...
ROW 06 : ... .. . ... : G-3 02 . ... : ... .. . ... : 5-# 01 . ... : ... .. . ...
ROW 07 : G-3 09 . ... : G-3 02 . ... : ... .. . ... : 5-# 02 . ... : ... .. . ...
ROW 08 : G-3 09 . ... : G-2 01 . ... : G-2 01 . ... : 0-# 02 . ... : ... .. . ...
ROW 09 : G-2 09 . ... : ... .. . ... : ... .. . ... : ... .. . ... : ... .. . ...
ROW 0A : ... .. . ... : A-2 01 . ... : ... .. . ... : 5-# 02 . ... : ... .. . ...
ROW 0B : A-2 09 . ... : ... .. . ... : ... .. . ... : ... .. . ... : ... .. . ...
ROW 0C : ... .. . ... : G-2 01 . ... : C-3 01 . ... : 0-# 02 . ... : ... .. . ...
ROW 0D : G-2 09 . ... : ... .. . ... : ... .. . ... : ... .. . ... : ... .. . ...
ROW 0E : ... .. . ... : G-3 02 . ... : ... .. . ... : 5-# 01 . ... : ... .. . ...
ROW 0F : G-3 09 . ... : G-3 02 . ... : ... .. . ... : 5-# 02 . ... : ... .. . ...
ROW 10 : G-3 09 . ... : F-2 01 . ... : G-2 01 . ... : 0-# 02 . ... : ... .. . ...
ROW 11 : F-2 09 . ... : ... .. . ... : ... .. . ... : ... .. . ... : ... .. . ...
ROW 12 : ... .. . ... : E-2 01 . ... : ... .. . ... : 5-# 01 . ... : ... .. . ...
ROW 13 : E-2 09 . ... : ... .. . ... : ... .. . ... : ... .. . ... : ... .. . ...
ROW 14 : ... .. . ... : D-2 01 . ... : D-3 01 . ... : 0-# 02 . ... : ... .. . ...
ROW 15 : D-2 09 . ... : ... .. . ... : ... .. . ... : ... .. . ... : ... .. . ...
ROW 16 : ... .. . ... : G-3 02 . ... : ... .. . ... : 5-# 01 . ... : ... .. . ...
ROW 17 : G-3 09 . ... : G-3 02 . ... : ... .. . ... : 5-# 02 . ... : ... .. . ...
ROW 18 : G-3 09 . ... : E-2 01 . ... : G-3 01 . ... : 0-# 02 . ... : ... .. . ...
ROW 19 : E-2 09 . ... : D-2 01 . ... : ... .. . ... : ... .. . ... : ... .. . ...
ROW 1A : D-2 09 . ... : B-1 01 . ... : ... .. . ... : 5-# 02 . ... : ... .. . ...
ROW 1B : B-1 09 . ... : ... .. . ... : ... .. . ... : ... .. . ... : ... .. . ...
ROW 1C : ... .. . ... : C-2 01 . ... : C-3 01 . ... : 0-# 02 . ... : ... .. . ...
ROW 1D : C-2 09 . ... : ... .. . ... : ... .. . ... : ... .. . ... : ... .. . ...
ROW 1E : ... .. . ... : G-3 02 . ... : ... .. . ... : 5-# 01 . ... : ... .. . ...
ROW 1F : G-3 09 . ... : G-3 02 . ... : ... .. . ... : 5-# 02 . ... : ... .. . ...
ROW 20 : G-3 09 . ... : G-2 01 . ... : G-2 01 . ... : 0-# 02 . ... : ... .. . ...
ROW 21 : G-2 09 . ... : ... .. . ... : ... .. . ... : ... .. . ... : ... .. . ...
ROW 22 : ... .. . ... : G-3 02 . ... : ... .. . ... : 5-# 01 . ... : ... .. . ...
ROW 23 : G-3 09 . ... : G-3 02 . ... : ... .. . ... : ... .. . ... : ... .. . ...
ROW 24 : G-3 09 . ... : C-2 01 . ... : C-3 01 . ... : 0-# 02 . ... : ... .. . ...
ROW 25 : C-2 09 . ... : ... .. . ... : ... .. . ... : ... .. . ... : ... .. . ...
ROW 26 : ... .. . ... : G-3 02 . ... : ... .. . ... : 5-# 01 . ... : ... .. . ...
ROW 27 : G-3 09 . ... : G-3 02 . ... : ... .. . ... : ... .. . ... : ... .. . ...
ROW 28 : G-3 09 . ... : G-2 01 . ... : G-2 01 . ... : 0-# 02 . ... : ... .. . ...
ROW 29 : G-2 09 . ... : ... .. . ... : ... .. . ... : ... .. . ... : ... .. . ...
ROW 2A : ... .. . ... : G-3 02 . ... : ... .. . ... : 5-# 02 . ... : ... .. . ...
ROW 2B : G-3 09 . ... : G-3 02 . ... : ... .. . ... : ... .. . ... : ... .. . ...
ROW 2C : G-3 09 . ... : C-2 01 . ... : C-3 01 . ... : 0-# 02 . ... : ... .. . ...
ROW 2D : C-2 09 . ... : ... .. . ... : ... .. . ... : ... .. . ... : ... .. . ...
ROW 2E : ... .. . ... : G-3 02 . ... : ... .. . ... : 5-# 01 . ... : ... .. . ...
ROW 2F : G-3 09 . ... : G-3 02 . ... : ... .. . ... : 5-# 02 . ... : ... .. . ...
ROW 30 : G-3 09 . ... : G-2 01 . ... : G-3 01 . ... : 0-# 02 . ... : ... .. . ...
ROW 31 : G-2 09 . ... : ... .. . ... : ... .. . ... : ... .. . ... : ... .. . ...
ROW 32 : ... .. . ... : G-3 02 . ... : ... .. . ... : 5-# 01 . ... : ... .. . ...
ROW 33 : G-3 09 . ... : G-3 02 . ... : ... .. . ... : 5-# 02 . ... : ... .. . ...
ROW 34 : G-3 09 . ... : C-2 01 . ... : C-3 01 . ... : 0-# 02 . ... : ... .. . ...
ROW 35 : C-2 09 . ... : ... .. . ... : ... .. . ... : 5-# 02 . ... : ... .. . ...
ROW 36 : ... .. . ... : G-3 02 . ... : ... .. . ... : 5-# 02 . ... : ... .. . ...
ROW 37 : G-3 09 . ... : G-3 02 . ... : ... .. . ... : 5-# 02 . ... : ... .. . ...

PATTERN 01
ROW 00 : ... .. . ... : G-3 01 . ... : G-2 01 . ... : ... .. . ... : ... .. . ...
ROW 01 : G-4 08 . ... : ... .. . ... : ... .. . ... : ... .. . ... : ... .. . ...
ROW 02 : ... .. . ... : C-4 01 . ... : C-2 01 . ... : ... .. . ... : ... .. . ...
ROW 03 : C-5 08 . ... : ... .. . ... : ... .. . ... : ... .. . ... : ... .. . ...
ROW 04 : ... .. . ... : E-4 01 . ... : C-3 01 . ... : ... .. . ... : ... .. . ...
ROW 05 : E-5 08 . ... : ... .. . ... : ... .. . ... : ... .. . ... : ... .. . ...
ROW 06 : ... .. . ... : ... .. . ... : ... .. . ... : ... .. . ... : ... .. . ...
ROW 07 : ... .. . ... : E-4 01 . ... : ... .. . ... : ... .. . ... : ... .. . ...
ROW 08 : E-5 08 . ... : E-4 01 . ... : G-3 01 . ... : ... .. . ... : ... .. . ...
ROW 09 : E-5 08 . ... : ... .. . ... : ... .. . ... : ... .. . ... : ... .. . ...
ROW 0A : ... .. . ... : D-4 01 . ... : ... .. . ... : ... .. . ... : ... .. . ...
ROW 0B : D-5 08 . ... : ... .. . ... : ... .. . ... : ... .. . ... : ... .. . ...
ROW 0C : ... .. . ... : C-4 01 . ... : C-3 01 . ... : ... .. . ... : ... .. . ...
ROW 0D : C-5 08 . ... : ... .. . ... : ... .. . ... : ... .. . ... : ... .. . ...
ROW 0E : ... .. . ... : ... .. . ... : ... .. . ... : ... .. . ... : ... .. . ...
ROW 0F : ... .. . ... : ... .. . ... : ... .. . ... : ... .. . ... : ... .. . ...
ROW 10 : ... .. . ... : G-3 01 . ... : G-2 01 . ... : ... .. . ... : ... .. . ...
ROW 11 : G-4 08 . ... : ... .. . ... : ... .. . ... : ... .. . ... : ... .. . ...
ROW 12 : ... .. . ... : ... .. . ... : ... .. . ... : ... .. . ... : ... .. . ...
ROW 13 : ... .. . ... : ... .. . ... : ... .. . ... : ... .. . ... : ... .. . ...
ROW 14 : ... .. . ... : G-3 01 . ... : F-2 01 . ... : ... .. . ... : ... .. . ...
ROW 15 : G-4 08 . ... : A-3 01 . ... : ... .. . ... : ... .. . ... : ... .. . ...
ROW 16 : A-4 08 . ... : C-4 01 . ... : ... .. . ... : ... .. . ... : ... .. . ...
ROW 17 : C-5 08 . ... : E-4 01 . ... : ... .. . ... : ... .. . ... : ... .. . ...
ROW 18 : E-5 08 . ... : C-4 01 . ... : F-2 01 . ... : ... .. . ... : ... .. . ...
ROW 19 : C-5 08 . ... : ... .. . ... : ... .. . ... : ... .. . ... : ... .. . ...
ROW 1A : ... .. . ... : A-3 01 . ... : ... .. . ... : ... .. . ... : ... .. . ...
ROW 1B : A-4 08 . ... : ... .. . ... : ... .. . ... : ... .. . ... : ... .. . ...
ROW 1C : ... .. . ... : G-3 01 . ... : C-3 01 . ... : ... .. . ... : ... .. . ...
ROW 1D : G-4 08 . ... : ... .. . ... : ... .. . ... : ... .. . ... : ... .. . ...
ROW 1E : ... .. . ... : ... .. . ... : ... .. . ... : ... .. . ... : ... .. . ...
ROW 1F : ... .. . ... : ... .. . ... : ... .. . ... : ... .. . ... : ... .. . ...
ROW 20 : ... .. . ... : E-3 01 . ... : G-2 01 . ... : ... .. . ... : ... .. . ...
ROW 21 : E-4 08 . ... : ... .. . ... : ... .. . ... : ... .. . ... : ... .. . ...
ROW 22 : ... .. . ... : D-3 01 . ... : ... .. . ... : ... .. . ... : ... .. . ...
ROW 23 : D-4 08 . ... : ... .. . ... : ... .. . ... : ... .. . ... : ... .. . ...
ROW 24 : ... .. . ... : E-3 01 . ... : C-3 01 . ... : ... .. . ... : ... .. . ...
ROW 25 : E-4 08 . ... : ... .. . ... : ... .. . ... : ... .. . ... : ... .. . ...
ROW 26 : ... .. . ... : G-3 01 . ... : ... .. . ... : ... .. . ... : ... .. . ...
ROW 27 : G-4 08 . ... : ... .. . ... : ... .. . ... : ... .. . ... : ... .. . ...
ROW 28 : ... .. . ... : ... .. . ... : G-2 01 . ... : ... .. . ... : ... .. . ...
ROW 29 : ... .. . ... : ... .. . ... : ... .. . ... : ... .. . ... : ... .. . ...
ROW 2A : ... .. . ... : E-3 01 . ... : ... .. . ... : ... .. . ... : ... .. . ...
ROW 2B : E-4 08 . ... : ... .. . ... : ... .. . ... : ... .. . ... : ... .. . ...
ROW 2C : ... .. . ... : D-3 01 . ... : G-3 01 . ... : ... .. . ... : ... .. . ...
ROW 2D : D-4 08 . ... : ... .. . ... : ... .. . ... : ... .. . ... : ... .. . ...
ROW 2E : ... .. . ... : ... .. . ... : ... .. . ... : ... .. . ... : ... .. . ...
ROW 2F : ... .. . ... : ... .. . ... : ... .. . ... : ... .. . ... : ... .. . ...
ROW 30 : ... .. . ... : E-3 01 . ... : G-3 01 . ... : ... .. . ... : ... .. . ...
ROW 31 : E-4 08 . ... : D-3 01 . ... : ... .. . ... : ... .. . ... : ... .. . ...
ROW 32 : D-4 08 . ... : B-2 01 . ... : ... .. . ... : ... .. . ... : ... .. . ...
ROW 33 : B-3 08 . ... : ... .. . ... : ... .. . ... : ... .. . ... : ... .. . ...
ROW 34 : ... .. . ... : C-3 01 . ... : C-3 01 . ... : ... .. . ... : ... .. . ...
ROW 35 : C-4 08 . ... : ... .. . ... : ... .. . ... : ... .. . ... : ... .. . ...
ROW 36 : ... .. . ... : ... .. . ... : ... .. . ... : ... .. . ... : ... .. . ...
ROW 37 : ... .. . ... : ... .. . ... : ... .. . ... : ... .. . ... : ... .. . ...

TRACK  36   7 150 "MedievalTimes"
COLUMNS : 1 1 1 1 1

ORDER 00 : 00 00 03 00 00
ORDER 01 : 00 00 01 01 00
ORDER 02 : 00 04 00 02 00
ORDER 03 : 00 04 01 01 00
ORDER 04 : 05 01 01 02 00
ORDER 05 : 02 02 00 04 00
ORDER 06 : 03 03 02 03 00
ORDER 07 : 06 05 05 01 00
ORDER 08 : 07 06 06 01 00
ORDER 09 : 01 01 02 02 00
ORDER 0A : 01 01 02 02 00
ORDER 0B : 08 07 04 05 00

PATTERN 00
ROW 00 : C#1 05 . ... : C#2 06 . ... : ... .. . ... : ... .. . ... : ... .. . ...
ROW 01 : ... .. . ... : ... .. . ... : ... .. . ... : ... .. . ... : ... .. . ...
ROW 02 : ... .. . ... : ... .. . ... : ... .. . ... : ... .. . ... : ... .. . ...
ROW 03 : F#1 05 . ... : C#3 06 . ... : F#2 01 . ... : ... .. . ... : ... .. . ...
ROW 04 : ... .. . ... : ... .. . ... : ... .. . ... : ... .. . ... : ... .. . ...
ROW 05 : ... .. . ... : ... .. . ... : ... .. . ... : ... .. . ... : ... .. . ...
ROW 06 : ... .. . ... : C#2 06 . ... : F#2 01 . ... : ... .. . ... : ... .. . ...
ROW 07 : ... .. . ... : --- .. . ... : ... .. . ... : ... .. . ... : ... .. . ...
ROW 08 : ... .. . ... : ... .. . ... : ... .. . ... : ... .. . ... : ... .. . ...
ROW 09 : G#1 05 . ... : C#2 06 . ... : F#2 01 . ... : ... .. . ... : ... .. . ...
ROW 0A : ... .. . ... : ... .. . ... : ... .. . ... : ... .. . ... : ... .. . ...
ROW 0B : ... .. . ... : ... .. . ... : ... .. . ... : ... .. . ... : ... .. . ...
ROW 0C : A-1 05 . ... : C#3 06 . ... : E-2 01 . ... : ... .. . ... : ... .. . ...
ROW 0D : ... .. . ... : ... .. . ... : ... .. . ... : ... .. . ... : ... .. . ...
ROW 0E : ... .. . ... : ... .. . ... : ... .. . ... : ... .. . ... : ... .. . ...
ROW 0F : ... .. . ... : C#2 06 . ... : E-2 01 . ... : ... .. . ... : ... .. . ...
ROW 10 : ... .. . ... : --- .. . ... : ... .. . ... : ... .. . ... : ... .. . ...
ROW 11 : ... .. . ... : ... .. . ... : ... .. . ... : ... .. . ... : ... .. . ...
ROW 12 : C#2 05 . ... : C#2 06 . ... : E-2 01 . ... : ... .. . ... : ... .. . ...
ROW 13 : ... .. . ... : ... .. . ... : ... .. . ... : ... .. . ... : ... .. . ...
ROW 14 : ... .. . ... : ... .. . ... : ... .. . ... : ... .. . ... : ... .. . ...
ROW 15 : B-1 05 . ... : D#3 06 . ... : F#2 01 . ... : ... .. . ... : ... .. . ...
ROW 16 : ... .. . ... : ... .. . ... : ... .. . ... : ... .. . ... : ... .. . ...
ROW 17 : ... .. . ... : ... .. . ... : ... .. . ... : ... .. . ... : ... .. . ...
ROW 18 : ... .. . ... : D#2 06 . ... : F#2 01 . ... : ... .. . ... : ... .. . ...
ROW 19 : ... .. . ... : --- .. . ... : ... .. . ... : ... .. . ... : ... .. . ...
ROW 1A : ... .. . ... : ... .. . ... : ... .. . ... : ... .. . ... : ... .. . ...
ROW 1B : G#1 05 . ... : D#2 06 . ... : F#2 01 . ... : ... .. . ... : ... .. . ...
ROW 1C : ... .. . ... : ... .. . ... : ... .. . ... : ... .. . ... : ... .. . ...
ROW 1D : ... .. . ... : ... .. . ... : ... .. . ... : ... .. . ... : ... .. . ...
ROW 1E : F#1 05 . ... : C#3 06 . ... : F#2 01 . ... : ... .. . ... : ... .. . ...
ROW 1F : ... .. . ... : ... .. . ... : ... .. . ... : ... .. . ... : ... .. . ...
ROW 20 : ... .. . ... : ... .. . ... : ... .. . ... : ... .. . ... : ... .. . ...
ROW 21 : ... .. . ... : C#2 06 . ... : E-2 04 . ... : ... .. . ... : ... .. . ...
ROW 22 : ... .. . ... : --- .. . ... : D#2 04 . ... : ... .. . ... : ... .. . ...
ROW 23 : ... .. . ... : ... .. . ... : D-2 04 . ... : ... .. . ... : ... .. . ...

PATTERN 01
ROW 00 : C#3 05 . ... : C#3 06 . ... : ... .. . ... : D-# 08 . ... : ... .. . ...
ROW 01 : ... .. . ... : ... .. . ... : ... .. . ... : ... .. . ... : ... .. . ...
ROW 02 : ... .. . ... : ... .. . ... : ... .. . ... : ... .. . ... : ... .. . ...
ROW 03 : C#3 05 . ... : C#2 06 . ... : F#2 01 . ... : ... .. . ... : ... .. . ...
ROW 04 : C#3 05 . ... : --- .. . ... : ... .. . ... : ... .. . ... : ... .. . ...
ROW 05 : ... .. . ... : ... .. . ... : F#3 01 . ... : ... .. . ... : ... .. . ...
ROW 06 : ... .. . ... : C#2 06 . ... : F#2 01 . ... : D-# 08 . ... : ... .. . ...
ROW 07 : ... .. . ... : ... .. . ... : ... .. . ... : ... .. . ... : ... .. . ...
ROW 08 : ... .. . ... : ... .. . ... : F#3 01 . ... : ... .. . ... : ... .. . ...
ROW 09 : G#2 05 . ... : C#3 06 . ... : F#2 01 . ... : D-# 08 . ... : ... .. . ...
ROW 0A : ... .. . ... : ... .. . ... : ... .. . ... : ... .. . ... : ... .. . ...
ROW 0B : ... .. . ... : ... .. . ... : F#3 01 . ... : ... .. . ... : ... .. . ...
ROW 0C : ... .. . ... : C#2 06 . ... : E-2 01 . ... : 3-# 08 . ... : ... .. . ...
ROW 0D : ... .. . ... : --- .. . ... : ... .. . ... : ... .. . ... : ... .. . ...
ROW 0E : ... .. . ... : ... .. . ... : E-3 01 . ... : ... .. . ... : ... .. . ...
ROW 0F : A-2 05 . ... : C#2 06 . ... : E-2 01 . ... : 7-# 08 . ... : ... .. . ...
ROW 10 : ... .. . ... : ... .. . ... : ... .. . ... : ... .. . ... : ... .. . ...
ROW 11 : ... .. . ... : ... .. . ... : E-3 01 . ... : ... .. . ... : ... .. . ...
ROW 12 : C#3 05 . ... : F#3 06 . ... : E-2 01 . ... : D-# 08 . ... : ... .. . ...
ROW 13 : ... .. . ... : ... .. . ... : ... .. . ... : ... .. . ... : ... .. . ...
ROW 14 : ... .. . ... : ... .. . ... : E-3 01 . ... : ... .. . ... : ... .. . ...
ROW 15 : B-2 05 . ... : F#2 06 . ... : F#2 01 . ... : ... .. . ... : ... .. . ...
ROW 16 : ... .. . ... : --- .. . ... : ... .. . ... : ... .. . ... : ... .. . ...
ROW 17 : ... .. . ... : ... .. . ... : F#3 01 . ... : ... .. . ... : ... .. . ...
ROW 18 : ... .. . ... : F#2 06 . ... : F#2 01 . ... : D-# 08 . ... : ... .. . ...
ROW 19 : ... .. . ... : ... .. . ... : ... .. . ... : ... .. . ... : ... .. . ...
ROW 1A : ... .. . ... : ... .. . ... : F#3 01 . ... : ... .. . ... : ... .. . ...
ROW 1B : G#2 05 . ... : D#3 06 . ... : F#2 01 . ... : D-# 08 . ... : ... .. . ...
ROW 1C : ... .. . ... : ... .. . ... : ... .. . ... : ... .. . ... : ... .. . ...
ROW 1D : ... .. . ... : ... .. . ... : F#3 01 . ... : ... .. . ... : ... .. . ...
ROW 1E : ... .. . ... : D#2 06 . ... : F#2 01 . ... : 3-# 08 . ... : ... .. . ...
ROW 1F : ... .. . ... : --- .. . ... : ... .. . ... : ... .. . ... : ... .. . ...
ROW 20 : ... .. . ... : ... .. . ... : ... .. . ... : ... .. . ... : ... .. . ...
ROW 21 : ... .. . ... : D#2 06 . ... : E-2 04 . ... : 7-# 08 . ... : ... .. . ...
ROW 22 : ... .. . ... : ... .. . ... : F-2 04 . ... : ... .. . ... : ... .. . ...
ROW 23 : ... .. . ... : ... .. . ... : F#2 04 . ... : ... .. . ... : ... .. . ...

PATTERN 02
ROW 00 : C#3 05 . ... : ... .. . ... : F#2 0C . ... : D-# 08 . ... : ... .. . ...
ROW 01 : ... .. . ... : ... .. . ... : F#3 0C . ... : ... .. . ... : ... .. . ...
ROW 02 : ... .. . ... : ... .. . ... : ... .. . ... : ... .. . ... : ... .. . ...
ROW 03 : C#3 05 . ... : E-3 06 . ... : F#2 0C . ... : D-# 08 . ... : ... .. . ...
ROW 04 : ... .. . ... : ... .. . ... : F#3 0C . ... : ... .. . ... : ... .. . ...
ROW 05 : ... .. . ... : ... .. . ... : ... .. . ... : A-# 08 . ... : ... .. . ...
ROW 06 : ... .. . ... : E-2 06 . ... : F#2 0C . ... : D-# 08 . ... : ... .. . ...
ROW 07 : ... .. . ... : --- .. . ... : F#3 0C . ... : ... .. . ... : ... .. . ...
ROW 08 : ... .. . ... : ... .. . ... : E-2 04 . ... : ... .. . ... : ... .. . ...
ROW 09 : G#2 05 . ... : E-2 06 . ... : ... .. . ... : D-# 08 . ... : ... .. . ...
ROW 0A : ... .. . ... : ... .. . ... : E-3 0C . ... : ... .. . ... : ... .. . ...
ROW 0B : ... .. . ... : ... .. . ... : ... .. . ... : A-# 08 . ... : ... .. . ...
ROW 0C : A-2 05 . ... : C#3 06 . ... : E-2 0C . ... : D-# 08 . ... : ... .. . ...
ROW 0D : ... .. . ... : ... .. . ... : E-3 0C . ... : ... .. . ... : ... .. . ...
ROW 0E : ... .. . ... : ... .. . ... : E-2 0C . ... : ... .. . ... : ... .. . ...
ROW 0F : ... .. . ... : C#2 06 . ... : ... .. . ... : D-# 08 . ... : ... .. . ...
ROW 10 : ... .. . ... : --- .. . ... : E-2 0C . ... : ... .. . ... : ... .. . ...
ROW 11 : ... .. . ... : ... .. . ... : E-3 0C . ... : A-# 08 . ... : ... .. . ...
ROW 12 : F#2 05 . ... : C#2 06 . ... : D#2 0C . ... : D-# 08 . ... : ... .. . ...
ROW 13 : ... .. . ... : ... .. . ... : ... .. . ... : ... .. . ... : ... .. . ...
ROW 14 : ... .. . ... : ... .. . ... : D#3 0C . ... : ... .. . ... : ... .. . ...
ROW 15 : G#2 05 . ... : D#3 06 . ... : D#2 0C . ... : D-# 08 . ... : ... .. . ...
ROW 16 : ... .. . ... : ... .. . ... : ... .. . ... : ... .. . ... : ... .. . ...
ROW 17 : ... .. . ... : ... .. . ... : D#3 0C . ... : A-# 08 . ... : ... .. . ...
ROW 18 : ... .. . ... : D#2 06 . ... : D#2 0C . ... : D-# 08 . ... : ... .. . ...
ROW 19 : ... .. . ... : --- .. . ... : ... .. . ... : ... .. . ... : ... .. . ...
ROW 1A : ... .. . ... : ... .. . ... : D#3 0C . ... : ... .. . ... : ... .. . ...
ROW 1B : F#2 05 . ... : D#2 06 . ... : F#2 0C . ... : D-# 08 . ... : ... .. . ...
ROW 1C : ... .. . ... : ... .. . ... : ... .. . ... : ... .. . ... : ... .. . ...
ROW 1D : ... .. . ... : ... .. . ... : F#3 0C . ... : A-# 08 . ... : ... .. . ...
ROW 1E : F#2 05 . ... : C#3 06 . ... : F#2 0C . ... : D-# 08 . ... : ... .. . ...
ROW 1F : ... .. . ... : ... .. . ... : ... .. . ... : ... .. . ... : ... .. . ...
ROW 20 : ... .. . ... : ... .. . ... : F#3 0C . ... : ... .. . ... : ... .. . ...
ROW 21 : ... .. . ... : C#2 06 . ... : F#2 0C . ... : D-# 08 . ... : ... .. . ...
ROW 22 : ... .. . ... : --- .. . ... : ... .. . ... : ... .. . ... : ... .. . ...
ROW 23 : ... .. . ... : ... .. . ... : F#3 0C . ... : A-# 08 . ... : ... .. . ...

PATTERN 03
ROW 00 : C#3 05 . ... : ... .. . ... : G#3 04 . ... : D-# 08 . ... : ... .. . ...
ROW 01 : ... .. . ... : ... .. . ... : ... .. . ... : ... .. . ... : ... .. . ...
ROW 02 : ... .. . ... : ... .. . ... : ... .. . ... : ... .. . ... : ... .. . ...
ROW 03 : C#3 05 . ... : F#1 05 . ... : C#4 04 . ... : D-# 08 . ... : ... .. . ...
ROW 04 : ... .. . ... : ... .. . ... : ... .. . ... : ... .. . ... : ... .. . ...
ROW 05 : ... .. . ... : F#1 05 . ... : ... .. . ... : 9-# 08 . ... : ... .. . ...
ROW 06 : ... .. . ... : F#1 05 . ... : ... .. . ... : D-# 08 . ... : ... .. . ...
ROW 07 : ... .. . ... : ... .. . ... : ... .. . ... : ... .. . ... : ... .. . ...
ROW 08 : ... .. . ... : F#1 05 . ... : ... .. . ... : ... .. . ... : ... .. . ...
ROW 09 : G#2 05 . ... : F#1 05 . ... : ... .. . ... : D-# 08 . ... : ... .. . ...
ROW 0A : ... .. . ... : ... .. . ... : ... .. . ... : ... .. . ... : ... .. . ...
ROW 0B : ... .. . ... : F#1 05 . ... : ... .. . ... : 9-# 08 . ... : ... .. . ...
ROW 0C : A-2 05 . ... : E-1 05 . ... : B-3 04 . ... : D-# 08 . ... : ... .. . ...
ROW 0D : ... .. . ... : ... .. . ... : ... .. . ... : ... .. . ... : ... .. . ...
ROW 0E : ... .. . ... : E-1 05 . ... : ... .. . ... : ... .. . ... : ... .. . ...
ROW 0F : ... .. . ... : E-1 05 . ... : ... .. . ... : D-# 08 . ... : ... .. . ...
ROW 10 : ... .. . ... : ... .. . ... : ... .. . ... : ... .. . ... : ... .. . ...
ROW 11 : ... .. . ... : E-1 05 . ... : ... .. . ... : 9-# 08 . ... : ... .. . ...
ROW 12 : G#2 05 . ... : E-1 05 . ... : ... .. . ... : D-# 08 . ... : ... .. . ...
ROW 13 : ... .. . ... : ... .. . ... : ... .. . ... : ... .. . ... : ... .. . ...
ROW 14 : ... .. . ... : E-1 05 . ... : ... .. . ... : ... .. . ... : ... .. . ...
ROW 15 : G#2 05 . ... : F#1 05 . ... : A-3 04 . ... : D-# 08 . ... : ... .. . ...
ROW 16 : ... .. . ... : ... .. . ... : ... .. . ... : ... .. . ... : ... .. . ...
ROW 17 : ... .. . ... : F#1 05 . ... : ... .. . ... : 9-# 08 . ... : ... .. . ...
ROW 18 : F#2 05 . ... : F#1 05 . ... : ... .. . ... : D-# 08 . ... : ... .. . ...
ROW 19 : ... .. . ... : ... .. . ... : ... .. . ... : ... .. . ... : ... .. . ...
ROW 1A : ... .. . ... : F#1 05 . ... : ... .. . ... : ... .. . ... : ... .. . ...
ROW 1B : F-2 05 . ... : F#1 05 . ... : ... .. . ... : D-# 08 . ... : ... .. . ...
ROW 1C : ... .. . ... : ... .. . ... : ... .. . ... : ... .. . ... : ... .. . ...
ROW 1D : ... .. . ... : F#1 05 . ... : ... .. . ... : 9-# 08 . ... : ... .. . ...
ROW 1E : F#2 05 . ... : F#1 05 . ... : A#3 04 . ... : D-# 08 . ... : ... .. . ...
ROW 1F : ... .. . ... : ... .. . ... : ... .. . ... : ... .. . ... : ... .. . ...
ROW 20 : ... .. . ... : ... .. . ... : ... .. . ... : ... .. . ... : ... .. . ...
ROW 21 : ... .. . ... : E-2 04 . ... : ... .. . ... : 3-# 08 . ... : ... .. . ...
ROW 22 : ... .. . ... : F-2 04 . ... : ... .. . ... : ... .. . ... : ... .. . ...
ROW 23 : ... .. . ... : F#2 04 . ... : ... .. . ... : 7-# 08 . ... : ... .. . ...

PATTERN 04
ROW 00 : C#3 05 . ... : C#2 06 . ... : ... .. . ... : 3-# 08 . ... : ... .. . ...
ROW 01 : ... .. . ... : ... .. . ... : ... .. . ... : ... .. . ... : ... .. . ...
ROW 02 : ... .. . ... : ... .. . ... : ... .. . ... : ... .. . ... : ... .. . ...
ROW 03 : F#3 05 . ... : C#3 0A . ... : F#2 01 . ... : 1-# 08 . ... : ... .. . ...
ROW 04 : ... .. . ... : ... .. . ... : ... .. . ... : ... .. . ... : ... .. . ...
ROW 05 : ... .. . ... : ... .. . ... : ... .. . ... : ... .. . ... : ... .. . ...
ROW 06 : ... .. . ... : C#2 06 . ... : F#2 01 . ... : ... .. . ... : ... .. . ...
ROW 07 : ... .. . ... : --- .. . ... : ... .. . ... : ... .. . ... : ... .. . ...
ROW 08 : ... .. . ... : ... .. . ... : ... .. . ... : ... .. . ... : ... .. . ...
ROW 09 : G#3 05 . ... : C#2 06 . ... : F#2 01 . ... : 3-# 08 . ... : ... .. . ...
ROW 0A : ... .. . ... : ... .. . ... : ... .. . ... : ... .. . ... : ... .. . ...
ROW 0B : ... .. . ... : ... .. . ... : ... .. . ... : ... .. . ... : ... .. . ...
ROW 0C : A-3 05 . ... : C#3 0A . ... : E-2 01 . ... : 1-# 08 . ... : ... .. . ...
ROW 0D : ... .. . ... : ... .. . ... : ... .. . ... : ... .. . ... : ... .. . ...
ROW 0E : ... .. . ... : ... .. . ... : ... .. . ... : ... .. . ... : ... .. . ...
ROW 0F : ... .. . ... : C#2 06 . ... : E-2 01 . ... : ... .. . ... : ... .. . ...
ROW 10 : ... .. . ... : --- .. . ... : ... .. . ... : ... .. . ... : ... .. . ...
ROW 11 : ... .. . ... : ... .. . ... : ... .. . ... : ... .. . ... : ... .. . ...
ROW 12 : C#4 05 . ... : C#2 06 . ... : E-2 01 . ... : 3-# 08 . ... : ... .. . ...
ROW 13 : ... .. . ... : ... .. . ... : ... .. . ... : ... .. . ... : ... .. . ...
ROW 14 : ... .. . ... : ... .. . ... : ... .. . ... : ... .. . ... : ... .. . ...
ROW 15 : B-3 05 . ... : D#3 0A . ... : F#2 01 . ... : 1-# 08 . ... : ... .. . ...
ROW 16 : ... .. . ... : ... .. . ... : ... .. . ... : ... .. . ... : ... .. . ...
ROW 17 : ... .. . ... : ... .. . ... : ... .. . ... : ... .. . ... : ... .. . ...
ROW 18 : ... .. . ... : D#2 06 . ... : F#2 01 . ... : ... .. . ... : ... .. . ...
ROW 19 : ... .. . ... : --- .. . ... : ... .. . ... : ... .. . ... : ... .. . ...
ROW 1A : ... .. . ... : ... .. . ... : ... .. . ... : ... .. . ... : ... .. . ...
ROW 1B : G#3 05 . ... : D#2 06 . ... : F#2 01 . ... : 3-# 08 . ... : ... .. . ...
ROW 1C : ... .. . ... : ... .. . ... : ... .. . ... : ... .. . ... : ... .. . ...
ROW 1D : ... .. . ... : ... .. . ... : ... .. . ... : ... .. . ... : ... .. . ...
ROW 1E : F#3 05 . ... : C#3 0A . ... : F#2 01 . ... : 3-# 08 . ... : ... .. . ...
ROW 1F : ... .. . ... : ... .. . ... : ... .. . ... : ... .. . ... : ... .. . ...
ROW 20 : ... .. . ... : ... .. . ... : ... .. . ... : ... .. . ... : ... .. . ...
ROW 21 : ... .. . ... : C#2 06 . ... : E-2 04 . ... : 7-# 08 . ... : ... .. . ...
ROW 22 : ... .. . ... : --- .. . ... : D#2 04 . ... : ... .. . ... : ... .. . ...
ROW 23 : ... .. . ... : ... .. . ... : D-2 04 . B02 : ... .. . ... : ... .. . ...

PATTERN 05
ROW 00 : F#2 05 . ... : F#2 04 . ... : F#2 01 . ... : 3-# 08 . ... : ... .. . ...
ROW 01 : ... .. . ... : ... .. . ... : ... .. . ... : ... .. . ... : ... .. . ...
ROW 02 : ... .. . ... : ... .. . ... : F#3 01 . ... : ... .. . ... : ... .. . ...
ROW 03 : F#2 05 . ... : ... .. . ... : F#2 01 . ... : 1-# 08 . ... : ... .. . ...
ROW 04 : ... .. . ... : ... .. . ... : ... .. . ... : ... .. . ... : ... .. . ...
ROW 05 : ... .. . ... : ... .. . ... : F#3 01 . ... : ... .. . ... : ... .. . ...
ROW 06 : ... .. . ... : ... .. . ... : F#2 01 . ... : ... .. . ... : ... .. . ...
ROW 07 : ... .. . ... : ... .. . ... : ... .. . ... : ... .. . ... : ... .. . ...
ROW 08 : ... .. . ... : ... .. . ... : F#3 01 . ... : ... .. . ... : ... .. . ...
ROW 09 : G#2 05 . ... : ... .. . ... : F#2 01 . ... : 3-# 08 . ... : ... .. . ...
ROW 0A : ... .. . ... : ... .. . ... : ... .. . ... : ... .. . ... : ... .. . ...
ROW 0B : ... .. . ... : ... .. . ... : F#3 01 . ... : ... .. . ... : ... .. . ...
ROW 0C : A-2 05 . ... : E-2 04 . ... : E-2 01 . ... : 1-# 08 . ... : ... .. . ...
ROW 0D : ... .. . ... : ... .. . ... : ... .. . ... : ... .. . ... : ... .. . ...
ROW 0E : ... .. . ... : ... .. . ... : E-3 01 . ... : ... .. . ... : ... .. . ...
ROW 0F : ... .. . ... : ... .. . ... : E-2 01 . ... : ... .. . ... : ... .. . ...
ROW 10 : ... .. . ... : ... .. . ... : ... .. . ... : ... .. . ... : ... .. . ...
ROW 11 : ... .. . ... : ... .. . ... : E-3 01 . ... : ... .. . ... : ... .. . ...
ROW 12 : C#3 05 . ... : ... .. . ... : E-2 01 . ... : 3-# 08 . ... : ... .. . ...
ROW 13 : ... .. . ... : ... .. . ... : ... .. . ... : ... .. . ... : ... .. . ...
ROW 14 : ... .. . ... : ... .. . ... : E-3 01 . ... : ... .. . ... : ... .. . ...
ROW 15 : B-2 05 . ... : C#2 04 . ... : F#2 01 . ... : 1-# 08 . ... : ... .. . ...
ROW 16 : ... .. . ... : ... .. . ... : ... .. . ... : ... .. . ... : ... .. . ...
ROW 17 : ... .. . ... : ... .. . ... : F#3 01 . ... : ... .. . ... : ... .. . ...
ROW 18 : A-2 05 . ... : D#2 04 . ... : F#2 01 . ... : ... .. . ... : ... .. . ...
ROW 19 : ... .. . ... : ... .. . ... : ... .. . ... : ... .. . ... : ... .. . ...
ROW 1A : ... .. . ... : ... .. . ... : F#3 01 . ... : ... .. . ... : ... .. . ...
ROW 1B : G#2 05 . ... : E-2 04 . ... : F#2 01 . ... : 3-# 08 . ... : ... .. . ...
ROW 1C : ... .. . ... : ... .. . ... : ... .. . ... : ... .. . ... : ... .. . ...
ROW 1D : ... .. . ... : ... .. . ... : F#3 01 . ... : ... .. . ... : ... .. . ...
ROW 1E : A-2 05 . ... : D#2 04 . ... : F#2 01 . ... : 3-# 08 . ... : ... .. . ...
ROW 1F : ... .. . ... : ... .. . ... : ... .. . ... : ... .. . ... : ... .. . ...
ROW 20 : ... .. . ... : ... .. . ... : F#3 01 . ... : ... .. . ... : ... .. . ...
ROW 21 : ... .. . ... : ... .. . ... : F#2 01 . ... : 7-# 08 . ... : ... .. . ...
ROW 22 : ... .. . ... : ... .. . ... : ... .. . ... : ... .. . ... : ... .. . ...
ROW 23 : ... .. . ... : ... .. . ... : F#3 01 . ... : ... .. . B02 : ... .. . ...

PATTERN 06
ROW 00 : F#2 05 . ... : F#2 04 . ... : F#2 01 . ... : ... .. . ... : ... .. . ...
ROW 01 : ... .. . ... : ... .. . ... : ... .. . ... : ... .. . ... : ... .. . ...
ROW 02 : ... .. . ... : ... .. . ... : F#3 01 . ... : ... .. . ... : ... .. . ...
ROW 03 : ... .. . ... : ... .. . ... : F#2 01 . ... : ... .. . ... : ... .. . ...
ROW 04 : ... .. . ... : ... .. . ... : ... .. . ... : ... .. . ... : ... .. . ...
ROW 05 : ... .. . ... : ... .. . ... : F#3 01 . ... : ... .. . ... : ... .. . ...
ROW 06 : ... .. . ... : ... .. . ... : F#2 01 . ... : ... .. . ... : ... .. . ...
ROW 07 : ... .. . ... : ... .. . ... : ... .. . ... : ... .. . ... : ... .. . ...
ROW 08 : ... .. . ... : ... .. . ... : F#3 01 . ... : ... .. . ... : ... .. . ...
ROW 09 : ... .. . ... : E-2 04 . ... : E-3 01 . ... : ... .. . ... : ... .. . ...
ROW 0A : ... .. . ... : ... .. . ... : ... .. . ... : ... .. . ... : ... .. . ...
ROW 0B : ... .. . ... : ... .. . ... : ... .. . ... : ... .. . ... : ... .. . ...
ROW 0C : E-2 05 . ... : ... .. . ... : ... .. . ... : ... .. . ... : ... .. . ...
ROW 0D : ... .. . ... : ... .. . ... : ... .. . ... : ... .. . ... : ... .. . ...
ROW 0E : ... .. . ... : ... .. . ... : E-3 01 . ... : ... .. . ... : ... .. . ...
ROW 0F : ... .. . ... : A-2 04 . ... : A-2 01 . ... : ... .. . ... : ... .. . ...
ROW 10 : ... .. . ... : ... .. . ... : ... .. . ... : ... .. . ... : ... .. . ...
ROW 11 : ... .. . ... : ... .. . ... : E-3 01 . ... : ... .. . ... : ... .. . ...
ROW 12 : ... .. . ... : G#2 04 . ... : G#2 01 . ... : ... .. . ... : ... .. . ...
ROW 13 : ... .. . ... : ... .. . ... : ... .. . ... : ... .. . ... : ... .. . ...
ROW 14 : ... .. . ... : ... .. . ... : ... .. . ... : ... .. . ... : ... .. . ...
ROW 15 : C#2 05 . ... : ... .. . ... : ... .. . ... : ... .. . ... : ... .. . ...
ROW 16 : ... .. . ... : ... .. . ... : ... .. . ... : ... .. . ... : ... .. . ...
ROW 17 : ... .. . ... : ... .. . ... : ... .. . ... : ... .. . ... : ... .. . ...
ROW 18 : D#2 05 . ... : C#3 04 . ... : C#3 01 . ... : ... .. . ... : ... .. . ...
ROW 19 : ... .. . ... : ... .. . ... : ... .. . ... : ... .. . ... : ... .. . ...
ROW 1A : ... .. . ... : ... .. . ... : C#3 01 . ... : ... .. . ... : ... .. . ...
ROW 1B : E-2 05 . ... : B-2 04 . ... : B-2 01 . ... : ... .. . ... : ... .. . ...
ROW 1C : ... .. . ... : ... .. . ... : ... .. . ... : ... .. . ... : ... .. . ...
ROW 1D : ... .. . ... : ... .. . ... : B-2 01 . ... : ... .. . ... : ... .. . ...
ROW 1E : D#2 05 . ... : A-2 04 . ... : A-2 01 . ... : ... .. . ... : ... .. . ...
ROW 1F : ... .. . ... : ... .. . ... : ... .. . ... : ... .. . ... : ... .. . ...
ROW 20 : ... .. . ... : ... .. . ... : A-2 01 . ... : ... .. . ... : ... .. . ...
ROW 21 : ... .. . ... : B-2 04 . ... : B-2 01 . ... : ... .. . ... : ... .. . ...
ROW 22 : ... .. . ... : ... .. . ... : ... .. . ... : ... .. . ... : ... .. . ...
ROW 23 : ... .. . ... : ... .. . ... : B-2 01 . ... : ... .. . ... : ... .. . ...

PATTERN 07
ROW 00 : F#2 05 . ... : ... .. . ... : ... .. . ... : ... .. . ... : ... .. . ...
ROW 01 : ... .. . ... : ... .. . ... : ... .. . ... : ... .. . ... : ... .. . ...
ROW 02 : ... .. . ... : ... .. . ... : ... .. . ... : ... .. . ... : ... .. . ...
ROW 03 : ... .. . ... : F#1 05 . ... : ... .. . ... : ... .. . ... : ... .. . ...
ROW 04 : ... .. . ... : ... .. . ... : ... .. . ... : ... .. . ... : ... .. . ...
ROW 05 : ... .. . ... : F#1 05 . ... : ... .. . ... : ... .. . ... : ... .. . ...
ROW 06 : ... .. . ... : F#1 05 . ... : ... .. . ... : ... .. . ... : ... .. . ...
ROW 07 : ... .. . ... : ... .. . ... : ... .. . ... : ... .. . ... : ... .. . ...
ROW 08 : ... .. . ... : F#1 05 . ... : ... .. . ... : ... .. . ... : ... .. . ...
ROW 09 : E-2 05 . ... : F#1 05 . ... : ... .. . ... : ... .. . ... : ... .. . ...
ROW 0A : ... .. . ... : ... .. . ... : ... .. . ... : ... .. . ... : ... .. . ...
ROW 0B : ... .. . ... : F#1 05 . ... : ... .. . ... : ... .. . ... : ... .. . ...
ROW 0C : ... .. . ... : E-1 05 . ... : ... .. . ... : ... .. . ... : ... .. . ...
ROW 0D : ... .. . ... : ... .. . ... : ... .. . ... : ... .. . ... : ... .. . ...
ROW 0E : ... .. . ... : E-1 05 . ... : ... .. . ... : ... .. . ... : ... .. . ...
ROW 0F : A-2 05 . ... : E-1 05 . ... : ... .. . ... : ... .. . ... : ... .. . ...
ROW 10 : ... .. . ... : ... .. . ... : ... .. . ... : ... .. . ... : ... .. . ...
ROW 11 : ... .. . ... : E-1 05 . ... : ... .. . ... : ... .. . ... : ... .. . ...
ROW 12 : G#2 05 . ... : E-1 05 . ... : ... .. . ... : ... .. . ... : ... .. . ...
ROW 13 : ... .. . ... : ... .. . ... : ... .. . ... : ... .. . ... : ... .. . ...
ROW 14 : ... .. . ... : E-1 05 . ... : ... .. . ... : ... .. . ... : ... .. . ...
ROW 15 : ... .. . ... : F#1 05 . ... : ... .. . ... : ... .. . ... : ... .. . ...
ROW 16 : ... .. . ... : ... .. . ... : ... .. . ... : ... .. . ... : ... .. . ...
ROW 17 : ... .. . ... : F#1 05 . ... : ... .. . ... : ... .. . ... : ... .. . ...
ROW 18 : C#3 05 . ... : F#1 05 . ... : ... .. . ... : ... .. . ... : ... .. . ...
ROW 19 : ... .. . ... : ... .. . ... : ... .. . ... : ... .. . ... : ... .. . ...
ROW 1A : ... .. . ... : F#1 05 . ... : ... .. . ... : ... .. . ... : ... .. . ...
ROW 1B : B-2 05 . ... : F#1 05 . ... : ... .. . ... : ... .. . ... : ... .. . ...
ROW 1C : ... .. . ... : ... .. . ... : ... .. . ... : ... .. . ... : ... .. . ...
ROW 1D : ... .. . ... : F#1 05 . ... : ... .. . ... : ... .. . ... : ... .. . ...
ROW 1E : A-2 05 . ... : F#1 05 . ... : ... .. . ... : ... .. . ... : ... .. . ...
ROW 1F : ... .. . ... : ... .. . ... : ... .. . ... : ... .. . ... : ... .. . ...
ROW 20 : ... .. . ... : ... .. . ... : ... .. . ... : ... .. . ... : ... .. . ...
ROW 21 : B-2 05 . ... : E-2 04 . ... : ... .. . ... : ... .. . ... : ... .. . ...
ROW 22 : ... .. . ... : F-2 04 . ... : ... .. . ... : ... .. . ... : ... .. . ...
ROW 23 : ... .. . ... : F#2 04 . B02 : ... .. . ... : ... .. . ... : ... .. . ...

PATTERN 08
ROW 00 : F#2 05 . ... : ... .. . ... : ... .. . ... : ... .. . ... : ... .. . ...
ROW 01 : ... .. . ... : ... .. . ... : ... .. . ... : ... .. . ... : ... .. . ...
ROW 02 : ... .. . ... : ... .. . ... : ... .. . ... : ... .. . ... : ... .. . ...
ROW 03 : ... .. . ... : ... .. . ... : ... .. . ... : ... .. . ... : ... .. . ...
ROW 04 : ... .. . ... : ... .. . ... : ... .. . ... : ... .. . ... : ... .. . ...
ROW 05 : ... .. . ... : ... .. . ... : ... .. . ... : ... .. . ... : ... .. . ...
ROW 06 : ... .. . ... : ... .. . ... : ... .. . ... : ... .. . ... : ... .. . ...
ROW 07 : ... .. . ... : ... .. . ... : ... .. . ... : ... .. . ... : ... .. . ...
ROW 08 : ... .. . ... : ... .. . ... : ... .. . ... : ... .. . ... : ... .. . ...
ROW 09 : ... .. . ... : ... .. . ... : ... .. . ... : ... .. . ... : ... .. . ...
ROW 0A : ... .. . ... : ... .. . ... : ... .. . ... : ... .. . ... : ... .. . ...
ROW 0B : ... .. . ... : ... .. . ... : ... .. . ... : ... .. . ... : ... .. . ...
ROW 0C : E-2 05 . ... : ... .. . ... : ... .. . ... : ... .. . ... : ... .. . ...
ROW 0D : ... .. . ... : ... .. . ... : ... .. . ... : ... .. . ... : ... .. . ...
ROW 0E : ... .. . ... : ... .. . ... : ... .. . ... : ... .. . ... : ... .. . ...
ROW 0F : ... .. . ... : ... .. . ... : ... .. . ... : ... .. . ... : ... .. . ...
ROW 10 : ... .. . ... : ... .. . ... : ... .. . ... : ... .. . ... : ... .. . ...
ROW 11 : ... .. . ... : ... .. . ... : ... .. . ... : ... .. . ... : ... .. . ...
ROW 12 : ... .. . ... : ... .. . ... : ... .. . ... : ... .. . ... : ... .. . ...
ROW 13 : ... .. . ... : ... .. . ... : ... .. . ... : ... .. . ... : ... .. . ...
ROW 14 : ... .. . ... : ... .. . ... : ... .. . ... : ... .. . ... : ... .. . ...
ROW 15 : C#2 05 . ... : ... .. . ... : ... .. . ... : ... .. . ... : ... .. . ...
ROW 16 : ... .. . ... : ... .. . ... : ... .. . ... : ... .. . ... : ... .. . ...
ROW 17 : ... .. . ... : ... .. . ... : ... .. . ... : ... .. . ... : ... .. . ...
ROW 18 : D#2 05 . ... : ... .. . ... : ... .. . ... : ... .. . ... : ... .. . ...
ROW 19 : ... .. . ... : ... .. . ... : ... .. . ... : ... .. . ... : ... .. . ...
ROW 1A : ... .. . ... : ... .. . ... : ... .. . ... : ... .. . ... : ... .. . ...
ROW 1B : E-2 05 . ... : ... .. . ... : ... .. . ... : ... .. . ... : ... .. . ...
ROW 1C : ... .. . ... : ... .. . ... : ... .. . ... : ... .. . ... : ... .. . ...
ROW 1D : ... .. . ... : ... .. . ... : ... .. . ... : ... .. . ... : ... .. . ...
ROW 1E : D#2 05 . ... : ... .. . ... : ... .. . ... : ... .. . ... : ... .. . ...
ROW 1F : ... .. . ... : ... .. . ... : ... .. . ... : ... .. . ... : ... .. . ...
ROW 20 : ... .. . ... : ... .. . ... : ... .. . ... : ... .. . ... : ... .. . ...
ROW 21 : ... .. . ... : ... .. . ... : ... .. . ... : ... .. . ... : ... .. . ...
ROW 22 : ... .. . ... : ... .. . ... : ... .. . ... : ... .. . ... : ... .. . ...
ROW 23 : ... .. . B02 : ... .. . ... : ... .. . ... : ... .. . ... : ... .. . ...

TRACK  32   8 150 "ImperialRome"
COLUMNS : 1 1 1 1 1

ORDER 00 : 00 00 00 00 00
ORDER 01 : 00 00 00 00 00
ORDER 02 : 03 03 00 00 00
ORDER 03 : 04 04 00 01 00
ORDER 04 : 06 06 03 01 00
ORDER 05 : 06 06 03 01 00
ORDER 06 : 05 05 03 02 00
ORDER 07 : 05 05 03 02 00
ORDER 08 : 07 07 03 00 00
ORDER 09 : 08 08 03 02 00

PATTERN 00
ROW 00 : E-2 0C . ... : A-1 05 . ... : E-2 09 . ... : 3-# 08 . ... : ... .. . ...
ROW 01 : ... .. . ... : ... .. . ... : E-2 09 . ... : ... .. . ... : ... .. . ...
ROW 02 : ... .. . ... : ... .. . ... : E-2 09 . ... : 5-# 08 . ... : ... .. . ...
ROW 03 : ... .. . ... : ... .. . ... : --- .. . ... : ... .. . ... : ... .. . ...
ROW 04 : G-2 0C . ... : D-2 05 . ... : E-2 09 . ... : 3-# 08 . ... : ... .. . ...
ROW 05 : ... .. . ... : ... .. . ... : ... .. . ... : ... .. . ... : ... .. . ...
ROW 06 : ... .. . ... : ... .. . ... : --- 09 . ... : ... .. . ... : ... .. . ...
ROW 07 : ... .. . ... : ... .. . ... : ... .. . ... : ... .. . ... : ... .. . ...
ROW 08 : F-2 0C . ... : A-1 05 . ... : G-2 09 . ... : 3-# 08 . ... : ... .. . ...
ROW 09 : ... .. . ... : ... .. . ... : --- 09 . ... : ... .. . ... : ... .. . ...
ROW 0A : G-2 0C . ... : B-1 05 . ... : G-2 09 . ... : 3-# 08 . ... : ... .. . ...
ROW 0B : ... .. . ... : ... .. . ... : --- .. . ... : ... .. . ... : ... .. . ...
ROW 0C : F-2 0C . ... : C-2 05 . ... : G-2 09 . ... : 3-# 08 . ... : ... .. . ...
ROW 0D : ... .. . ... : ... .. . ... : ... .. . ... : ... .. . ... : ... .. . ...
ROW 0E : ... .. . ... : ... .. . ... : --- .. . ... : ... .. . ... : ... .. . ...
ROW 0F : ... .. . ... : ... .. . ... : ... .. . ... : ... .. . ... : ... .. . ...
ROW 10 : ... .. . ... : ... .. . ... : F-2 09 . ... : ... .. . ... : ... .. . ...
ROW 11 : ... .. . ... : ... .. . ... : ... .. . ... : ... .. . ... : ... .. . ...
ROW 12 : ... .. . ... : ... .. . ... : --- .. . ... : 5-# 08 . ... : ... .. . ...
ROW 13 : ... .. . ... : ... .. . ... : ... .. . ... : ... .. . ... : ... .. . ...
ROW 14 : D-2 0C . ... : G-1 05 . ... : F-2 09 . ... : 3-# 08 . ... : ... .. . ...
ROW 15 : ... .. . ... : ... .. . ... : ... .. . ... : ... .. . ... : ... .. . ...
ROW 16 : ... .. . ... : ... .. . ... : F-2 09 . ... : 3-# 08 . ... : ... .. . ...
ROW 17 : ... .. . ... : ... .. . ... : --- .. . ... : 5-# 08 . ... : ... .. . ...
ROW 18 : G-2 0C . ... : D-2 05 . ... : A-2 09 . ... : 3-# 08 . ... : ... .. . ...
ROW 19 : ... .. . ... : ... .. . ... : ... .. . ... : 5-# 08 . ... : ... .. . ...
ROW 1A : ... .. . ... : ... .. . ... : --- .. . ... : ... .. . ... : ... .. . ...
ROW 1B : ... .. . ... : ... .. . ... : ... .. . ... : ... .. . ... : ... .. . ...
ROW 1C : F-2 0C . ... : C-2 05 . ... : A-2 09 . ... : 3-# 08 . ... : ... .. . ...
ROW 1D : ... .. . ... : ... .. . ... : ... .. . ... : ... .. . ... : ... .. . ...
ROW 1E : ... .. . ... : ... .. . ... : --- .. . ... : ... .. . ... : ... .. . ...
ROW 1F : ... .. . ... : ... .. . ... : ... .. . ... : ... .. . ... : ... .. . ...

PATTERN 01
ROW 00 : F-3 0C . ... : D-2 04 . ... : B-2 04 . ... : 3-# 08 . ... : ... .. . ...
ROW 01 : ... .. . ... : ... .. . ... : --- .. . ... : ... .. . ... : ... .. . ...
ROW 02 : ... .. . ... : A-2 04 . ... : B-2 04 . ... : 3-# 08 . ... : ... .. . ...
ROW 03 : ... .. . ... : ... .. . ... : --- .. . ... : ... .. . ... : ... .. . ...
ROW 04 : A-3 0C . ... : G-2 04 . ... : B-2 04 . ... : 3-# 08 . ... : ... .. . ...
ROW 05 : ... .. . ... : ... .. . ... : ... .. . ... : ... .. . ... : ... .. . ...
ROW 06 : ... .. . ... : A-2 04 . ... : --- 04 . ... : 3-# 08 . ... : ... .. . ...
ROW 07 : ... .. . ... : ... .. . ... : ... .. . ... : ... .. . ... : ... .. . ...
ROW 08 : G-3 0C . ... : C-2 04 . ... : G-2 04 . ... : 5-# 08 . ... : ... .. . ...
ROW 09 : ... .. . ... : ... .. . ... : --- 04 . ... : ... .. . ... : ... .. . ...
ROW 0A : A-3 0C . ... : G-2 04 . ... : G-2 04 . ... : 3-# 08 . ... : ... .. . ...
ROW 0B : ... .. . ... : ... .. . ... : --- .. . ... : ... .. . ... : ... .. . ...
ROW 0C : G-3 0C . ... : A-2 04 . ... : G-2 04 . ... : 3-# 08 . ... : ... .. . ...
ROW 0D : ... .. . ... : ... .. . ... : ... .. . ... : ... .. . ... : ... .. . ...
ROW 0E : ... .. . ... : G-2 04 . ... : --- .. . ... : 3-# 08 . ... : ... .. . ...
ROW 0F : ... .. . ... : ... .. . ... : ... .. . ... : ... .. . ... : ... .. . ...
ROW 10 : ... .. . ... : F-2 04 . ... : F-2 04 . ... : 5-# 08 . ... : ... .. . ...
ROW 11 : ... .. . ... : ... .. . ... : ... .. . ... : ... .. . ... : ... .. . ...
ROW 12 : ... .. . ... : A-2 04 . ... : --- .. . ... : 3-# 08 . ... : ... .. . ...
ROW 13 : ... .. . ... : ... .. . ... : ... .. . ... : ... .. . ... : ... .. . ...
ROW 14 : E-3 0C . ... : E-2 04 . ... : F-2 04 . ... : 3-# 08 . ... : ... .. . ...
ROW 15 : ... .. . ... : ... .. . ... : ... .. . ... : ... .. . ... : ... .. . ...
ROW 16 : ... .. . ... : ... .. . ... : --- .. . ... : 3-# 08 . ... : ... .. . ...
ROW 17 : ... .. . ... : ... .. . ... : ... .. . ... : ... .. . ... : ... .. . ...
ROW 18 : A-3 0C . ... : A-2 05 . ... : E-2 04 . ... : 5-# 08 . ... : ... .. . ...
ROW 19 : ... .. . ... : ... .. . ... : ... .. . ... : ... .. . ... : ... .. . ...
ROW 1A : ... .. . ... : ... .. . ... : --- .. . ... : 5-# 08 . ... : ... .. . ...
ROW 1B : ... .. . ... : ... .. . ... : ... .. . ... : ... .. . ... : ... .. . ...
ROW 1C : G-3 0C . ... : G-2 05 . ... : E-2 04 . ... : 5-# 08 . ... : ... .. . ...
ROW 1D : ... .. . ... : ... .. . ... : ... .. . ... : ... .. . ... : ... .. . ...
ROW 1E : ... .. . ... : ... .. . ... : --- .. . ... : 5-# 08 . ... : ... .. . ...
ROW 1F : ... .. . ... : ... .. . ... : ... .. . ... : ... .. . ... : ... .. . ...

PATTERN 02
ROW 00 : B-1 0C . ... : F-4 0C . ... : B-2 09 . ... : 1-# 08 . ... : ... .. . ...
ROW 01 : ... .. . ... : ... .. . ... : B-2 09 . ... : 1-# 08 . ... : ... .. . ...
ROW 02 : D-2 0C . ... : B-4 0C . ... : B-2 09 . ... : 1-# 08 . ... : ... .. . ...
ROW 03 : ... .. . ... : ... .. . ... : B-2 09 . ... : --- .. . ... : ... .. . ...
ROW 04 : F-2 0C . ... : C-5 0C . ... : B-2 09 . ... : ... .. . ... : ... .. . ...
ROW 05 : ... .. . ... : ... .. . ... : B-2 09 . ... : ... .. . ... : ... .. . ...
ROW 06 : ... .. . ... : B-4 0C . ... : B-2 09 . ... : ... .. . ... : ... .. . ...
ROW 07 : ... .. . ... : ... .. . ... : B-2 09 . ... : ... .. . ... : ... .. . ...
ROW 08 : G-1 0C . ... : G-4 0C . ... : G-2 09 . ... : 1-# 08 . ... : ... .. . ...
ROW 09 : ... .. . ... : ... .. . ... : G-2 09 . ... : 1-# 08 . ... : ... .. . ...
ROW 0A : A-1 0C . ... : B-4 0C . ... : G-2 09 . ... : 1-# 08 . ... : ... .. . ...
ROW 0B : ... .. . ... : ... .. . ... : G-2 09 . ... : --- .. . ... : ... .. . ...
ROW 0C : D-2 0C . ... : C-5 0C . ... : G-2 09 . ... : ... .. . ... : ... .. . ...
ROW 0D : ... .. . ... : ... .. . ... : G-2 09 . ... : ... .. . ... : ... .. . ...
ROW 0E : ... .. . ... : B-4 0C . ... : G-2 09 . ... : ... .. . ... : ... .. . ...
ROW 0F : ... .. . ... : ... .. . ... : G-2 09 . ... : ... .. . ... : ... .. . ...
ROW 10 : F-2 0C . ... : E-4 0C . ... : F-2 09 . ... : 1-# 08 . ... : ... .. . ...
ROW 11 : ... .. . ... : ... .. . ... : F-2 09 . ... : 1-# 08 . ... : ... .. . ...
ROW 12 : A-2 0C . ... : F-4 0C . ... : F-2 09 . ... : 1-# 08 . ... : ... .. . ...
ROW 13 : ... .. . ... : ... .. . ... : F-2 09 . ... : --- .. . ... : ... .. . ...
ROW 14 : B-2 0C . ... : G-4 0C . ... : F-2 09 . ... : ... .. . ... : ... .. . ...
ROW 15 : ... .. . ... : ... .. . ... : F-2 09 . ... : ... .. . ... : ... .. . ...
ROW 16 : E-2 0C . ... : F-4 0C . ... : F-2 09 . ... : ... .. . ... : ... .. . ...
ROW 17 : ... .. . ... : ... .. . ... : F-2 09 . ... : ... .. . ... : ... .. . ...
ROW 18 : F-2 0C . ... : F-4 0C . ... : E-2 09 . ... : 1-# 08 . ... : ... .. . ...
ROW 19 : ... .. . ... : ... .. . ... : E-2 09 . ... : 1-# 08 . ... : ... .. . ...
ROW 1A : G-2 0C . ... : ... .. . ... : E-2 09 . ... : 1-# 08 . ... : ... .. . ...
ROW 1B : ... .. . ... : ... .. . ... : E-2 09 . ... : --- .. . ... : ... .. . ...
ROW 1C : E-2 0C . ... : ... .. . ... : E-2 09 . ... : ... .. . ... : ... .. . ...
ROW 1D : ... .. . ... : ... .. . ... : E-2 09 . ... : ... .. . ... : ... .. . ...
ROW 1E : ... .. . ... : ... .. . ... : E-2 09 . ... : ... .. . ... : ... .. . ...
ROW 1F : ... .. . ... : ... .. . ... : ... .. . ... : ... .. . ... : ... .. . ...

PATTERN 03
ROW 00 : E-3 05 . ... : A-1 10 . ... : E-2 09 . ... : ... .. . ... : ... .. . ...
ROW 01 : ... .. . ... : A-2 10 . ... : A-2 04 . ... : ... .. . ... : ... .. . ...
ROW 02 : --- .. . ... : ... .. . ... : ... .. . ... : ... .. . ... : ... .. . ...
ROW 03 : ... .. . ... : ... .. . ... : ... .. . ... : ... .. . ... : ... .. . ...
ROW 04 : E-3 05 . ... : A-1 10 . ... : E-2 09 . ... : ... .. . ... : ... .. . ...
ROW 05 : ... .. . ... : A-2 10 . ... : ... .. . ... : ... .. . ... : ... .. . ...
ROW 06 : D#3 05 . ... : ... .. . ... : --- .. . ... : ... .. . ... : ... .. . ...
ROW 07 : ... .. . ... : ... .. . ... : ... .. . ... : ... .. . ... : ... .. . ...
ROW 08 : --- .. . ... : A-1 10 . ... : E-2 09 . ... : ... .. . ... : ... .. . ...
ROW 09 : ... .. . ... : A-2 10 . ... : E-2 04 . ... : ... .. . ... : ... .. . ...
ROW 0A : E-3 05 . ... : ... .. . ... : ... .. . ... : ... .. . ... : ... .. . ...
ROW 0B : ... .. . ... : A-2 10 . ... : --- .. . ... : ... .. . ... : ... .. . ...
ROW 0C : D#3 05 . ... : A-1 10 . ... : E-2 09 . ... : ... .. . ... : ... .. . ...
ROW 0D : ... .. . ... : ... .. . ... : ... .. . ... : ... .. . ... : ... .. . ...
ROW 0E : E-3 05 . ... : ... .. . ... : --- .. . ... : ... .. . ... : ... .. . ...
ROW 0F : ... .. . ... : A-2 10 . ... : ... .. . ... : ... .. . ... : ... .. . ...
ROW 10 : E-3 05 . ... : A-1 10 . ... : E-2 09 . ... : ... .. . ... : ... .. . ...
ROW 11 : ... .. . ... : A-2 10 . ... : ... .. . ... : ... .. . ... : ... .. . ...
ROW 12 : --- .. . ... : A-1 10 . ... : --- .. . ... : ... .. . ... : ... .. . ...
ROW 13 : ... .. . ... : ... .. . ... : ... .. . ... : ... .. . ... : ... .. . ...
ROW 14 : E-3 05 . ... : A-1 10 . ... : E-2 09 . ... : ... .. . ... : ... .. . ...
ROW 15 : ... .. . ... : A-2 10 . ... : ... .. . ... : ... .. . ... : ... .. . ...
ROW 16 : D#3 05 . ... : ... .. . ... : --- .. . ... : ... .. . ... : ... .. . ...
ROW 17 : ... .. . ... : ... .. . ... : ... .. . ... : ... .. . ... : ... .. . ...
ROW 18 : E-3 05 . ... : A-1 10 . ... : E-2 09 . ... : ... .. . ... : ... .. . ...
ROW 19 : ... .. . ... : A-2 10 . ... : ... .. . ... : ... .. . ... : ... .. . ...
ROW 1A : D#3 05 . ... : A-1 10 . ... : --- .. . ... : ... .. . ... : ... .. . ...
ROW 1B : ... .. . ... : ... .. . ... : ... .. . ... : ... .. . ... : ... .. . ...
ROW 1C : G-3 05 . ... : A-1 10 . ... : E-2 09 . ... : ... .. . ... : ... .. . ...
ROW 1D : ... .. . ... : A-2 10 . ... : ... .. . ... : ... .. . ... : ... .. . ...
ROW 1E : ... .. . ... : A-1 10 . ... : --- .. . ... : ... .. . ... : ... .. . ...
ROW 1F : ... .. . ... : ... .. . ... : ... .. . ... : ... .. . ... : ... .. . ...

PATTERN 04
ROW 00 : E-3 05 . ... : A-1 10 . ... : ... .. . ... : ... .. . ... : ... .. . ...
ROW 01 : ... .. . ... : E-3 06 . ... : ... .. . ... : ... .. . ... : ... .. . ...
ROW 02 : --- .. . ... : ... .. . ... : ... .. . ... : ... .. . ... : ... .. . ...
ROW 03 : ... .. . ... : ... .. . ... : ... .. . ... : ... .. . ... : ... .. . ...
ROW 04 : E-3 05 . ... : A-1 10 . ... : ... .. . ... : ... .. . ... : ... .. . ...
ROW 05 : ... .. . ... : E-3 06 . ... : ... .. . ... : ... .. . ... : ... .. . ...
ROW 06 : D#3 05 . ... : ... .. . ... : ... .. . ... : ... .. . ... : ... .. . ...
ROW 07 : ... .. . ... : D#3 06 . ... : ... .. . ... : ... .. . ... : ... .. . ...
ROW 08 : --- .. . ... : A-1 10 . ... : ... .. . ... : ... .. . ... : ... .. . ...
ROW 09 : ... .. . ... : A-2 10 . ... : ... .. . ... : ... .. . ... : ... .. . ...
ROW 0A : E-3 05 . ... : ... .. . ... : ... .. . ... : ... .. . ... : ... .. . ...
ROW 0B : ... .. . ... : E-3 06 . ... : ... .. . ... : ... .. . ... : ... .. . ...
ROW 0C : D#3 05 . ... : A-1 10 . ... : ... .. . ... : ... .. . ... : ... .. . ...
ROW 0D : ... .. . ... : D#3 06 . ... : ... .. . ... : ... .. . ... : ... .. . ...
ROW 0E : E-3 05 . ... : ... .. . ... : ... .. . ... : ... .. . ... : ... .. . ...
ROW 0F : ... .. . ... : E-3 06 . ... : ... .. . ... : ... .. . ... : ... .. . ...
ROW 10 : E-3 05 . ... : A-1 10 . ... : ... .. . ... : ... .. . ... : ... .. . ...
ROW 11 : ... .. . ... : E-3 06 . ... : ... .. . ... : ... .. . ... : ... .. . ...
ROW 12 : --- .. . ... : A-1 10 . ... : ... .. . ... : ... .. . ... : ... .. . ...
ROW 13 : ... .. . ... : A-2 10 . ... : ... .. . ... : ... .. . ... : ... .. . ...
ROW 14 : E-3 05 . ... : A-1 10 . ... : ... .. . ... : ... .. . ... : ... .. . ...
ROW 15 : ... .. . ... : E-3 06 . ... : ... .. . ... : ... .. . ... : ... .. . ...
ROW 16 : D#3 05 . ... : ... .. . ... : ... .. . ... : ... .. . ... : ... .. . ...
ROW 17 : ... .. . ... : D#3 06 . ... : ... .. . ... : ... .. . ... : ... .. . ...
ROW 18 : E-3 05 . ... : A-1 10 . ... : ... .. . ... : ... .. . ... : ... .. . ...
ROW 19 : ... .. . ... : E-3 06 . ... : ... .. . ... : ... .. . ... : ... .. . ...
ROW 1A : D#3 05 . ... : ... .. . ... : ... .. . ... : ... .. . ... : ... .. . ...
ROW 1B : ... .. . ... : D#3 06 . ... : ... .. . ... : ... .. . ... : ... .. . ...
ROW 1C : G-3 05 . ... : A-1 10 . ... : ... .. . ... : ... .. . ... : ... .. . ...
ROW 1D : ... .. . ... : G-3 06 . ... : ... .. . ... : ... .. . ... : ... .. . ...
ROW 1E : ... .. . ... : ... .. . ... : ... .. . ... : ... .. . ... : ... .. . ...
ROW 1F : ... .. . ... : ... .. . ... : ... .. . ... : ... .. . ... : ... .. . ...

PATTERN 05
ROW 00 : E-4 05 . ... : C-5 05 . ... : ... .. . ... : ... .. . ... : ... .. . ...
ROW 01 : --- .. . ... : --- .. . ... : ... .. . ... : ... .. . ... : ... .. . ...
ROW 02 : E-4 05 . ... : C-5 05 . ... : ... .. . ... : ... .. . ... : ... .. . ...
ROW 03 : ... .. . ... : ... .. . ... : ... .. . ... : ... .. . ... : ... .. . ...
ROW 04 : ... .. . ... : ... .. . ... : ... .. . ... : ... .. . ... : ... .. . ...
ROW 05 : ... .. . ... : ... .. . ... : ... .. . ... : ... .. . ... : ... .. . ...
ROW 06 : ... .. . ... : ... .. . ... : ... .. . ... : ... .. . ... : ... .. . ...
ROW 07 : ... .. . ... : ... .. . ... : ... .. . ... : ... .. . ... : ... .. . ...
ROW 08 : E-4 05 . ... : B-4 05 . ... : ... .. . ... : ... .. . ... : ... .. . ...
ROW 09 : ... .. . ... : ... .. . ... : ... .. . ... : ... .. . ... : ... .. . ...
ROW 0A : --- .. . ... : --- .. . ... : ... .. . ... : ... .. . ... : ... .. . ...
ROW 0B : ... .. . ... : ... .. . ... : ... .. . ... : ... .. . ... : ... .. . ...
ROW 0C : ... .. . ... : ... .. . ... : ... .. . ... : ... .. . ... : ... .. . ...
ROW 0D : ... .. . ... : ... .. . ... : ... .. . ... : ... .. . ... : ... .. . ...
ROW 0E : ... .. . ... : E-2 08 . ... : ... .. . ... : ... .. . ... : ... .. . ...
ROW 0F : ... .. . ... : ... .. . ... : ... .. . ... : ... .. . ... : ... .. . ...
ROW 10 : ... .. . ... : F-2 08 . ... : ... .. . ... : ... .. . ... : ... .. . ...
ROW 11 : ... .. . ... : ... .. . ... : ... .. . ... : ... .. . ... : ... .. . ...
ROW 12 : ... .. . ... : G-2 08 . ... : ... .. . ... : ... .. . ... : ... .. . ...
ROW 13 : ... .. . ... : ... .. . ... : ... .. . ... : ... .. . ... : ... .. . ...
ROW 14 : ... .. . ... : G-2 08 . ... : ... .. . ... : ... .. . ... : ... .. . ...
ROW 15 : ... .. . ... : F-2 08 . ... : ... .. . ... : ... .. . ... : ... .. . ...
ROW 16 : ... .. . ... : E-2 08 . ... : ... .. . ... : ... .. . ... : ... .. . ...
ROW 17 : ... .. . ... : ... .. . ... : ... .. . ... : ... .. . ... : ... .. . ...
ROW 18 : ... .. . ... : ... .. . ... : ... .. . ... : ... .. . ... : ... .. . ...
ROW 19 : ... .. . ... : ... .. . ... : ... .. . ... : ... .. . ... : ... .. . ...
ROW 1A : ... .. . ... : ... .. . ... : ... .. . ... : ... .. . ... : ... .. . ...
ROW 1B : ... .. . ... : ... .. . ... : ... .. . ... : ... .. . ... : ... .. . ...
ROW 1C : ... .. . ... : ... .. . ... : ... .. . ... : ... .. . ... : ... .. . ...
ROW 1D : ... .. . ... : ... .. . ... : ... .. . ... : ... .. . ... : ... .. . ...
ROW 1E : ... .. . ... : ... .. . ... : ... .. . ... : ... .. . ... : ... .. . ...
ROW 1F : ... .. . ... : ... .. . ... : ... .. . ... : ... .. . ... : ... .. . ...

PATTERN 06
ROW 00 : C-4 05 . ... : C-7 08 . ... : ... .. . ... : ... .. . ... : ... .. . ...
ROW 01 : ... .. . ... : A-2 10 . ... : ... .. . ... : ... .. . ... : ... .. . ...
ROW 02 : C-6 08 . ... : ... .. . ... : ... .. . ... : ... .. . ... : ... .. . ...
ROW 03 : ... .. . ... : ... .. . ... : ... .. . ... : ... .. . ... : ... .. . ...
ROW 04 : C-4 05 . ... : A-1 10 . ... : ... .. . ... : ... .. . ... : ... .. . ...
ROW 05 : ... .. . ... : A-2 10 . ... : ... .. . ... : ... .. . ... : ... .. . ...
ROW 06 : B-3 05 . ... : C-6 08 . ... : ... .. . ... : ... .. . ... : ... .. . ...
ROW 07 : ... .. . ... : ... .. . ... : ... .. . ... : ... .. . ... : ... .. . ...
ROW 08 : --- 04 . ... : A-1 10 . ... : ... .. . ... : ... .. . ... : ... .. . ...
ROW 09 : ... .. . ... : A-2 10 . ... : ... .. . ... : ... .. . ... : ... .. . ...
ROW 0A : C-4 05 . ... : C-6 08 . ... : ... .. . ... : ... .. . ... : ... .. . ...
ROW 0B : C-4 05 . ... : C-5 08 . ... : ... .. . ... : ... .. . ... : ... .. . ...
ROW 0C : C-6 08 . ... : A-1 10 . ... : ... .. . ... : ... .. . ... : ... .. . ...
ROW 0D : B-3 05 . ... : B-4 08 . ... : ... .. . ... : ... .. . ... : ... .. . ...
ROW 0E : C-4 05 . ... : C-6 08 . ... : ... .. . ... : ... .. . ... : ... .. . ...
ROW 0F : ... .. . ... : ... .. . ... : ... .. . ... : ... .. . ... : ... .. . ...
ROW 10 : C-6 08 . ... : A-1 10 . ... : ... .. . ... : ... .. . ... : ... .. . ...
ROW 11 : ... .. . ... : A-2 10 . ... : ... .. . ... : ... .. . ... : ... .. . ...
ROW 12 : C-6 08 . ... : A-1 10 . ... : ... .. . ... : ... .. . ... : ... .. . ...
ROW 13 : --- .. . ... : ... .. . ... : ... .. . ... : ... .. . ... : ... .. . ...
ROW 14 : C-6 08 . ... : A-1 10 . ... : ... .. . ... : ... .. . ... : ... .. . ...
ROW 15 : ... .. . ... : A-2 10 . ... : ... .. . ... : ... .. . ... : ... .. . ...
ROW 16 : C-6 08 . ... : C-5 08 . ... : ... .. . ... : ... .. . ... : ... .. . ...
ROW 17 : ... .. . ... : ... .. . ... : ... .. . ... : ... .. . ... : ... .. . ...
ROW 18 : C-6 08 . ... : A-1 10 . ... : ... .. . ... : ... .. . ... : ... .. . ...
ROW 19 : --- .. . ... : A-2 10 . ... : ... .. . ... : ... .. . ... : ... .. . ...
ROW 1A : C#4 05 . ... : A-1 10 . ... : ... .. . ... : ... .. . ... : ... .. . ...
ROW 1B : ... .. . ... : A-2 10 . ... : ... .. . ... : ... .. . ... : ... .. . ...
ROW 1C : C-4 01 . ... : A-1 10 . ... : ... .. . ... : ... .. . ... : ... .. . ...
ROW 1D : G#3 05 . ... : C-5 08 . ... : ... .. . ... : ... .. . ... : ... .. . ...
ROW 1E : A#3 05 . ... : A#4 08 . ... : ... .. . ... : ... .. . ... : ... .. . ...
ROW 1F : ... .. . ... : ... .. . ... : ... .. . ... : ... .. . ... : ... .. . ...

PATTERN 07
ROW 00 : E-4 05 . ... : B-4 03 . ... : ... .. . ... : ... .. . ... : ... .. . ...
ROW 01 : --- .. . ... : --- .. . ... : ... .. . ... : ... .. . ... : ... .. . ...
ROW 02 : E-4 05 . ... : B-4 03 . ... : ... .. . ... : ... .. . ... : ... .. . ...
ROW 03 : ... .. . ... : ... .. . ... : ... .. . ... : ... .. . ... : ... .. . ...
ROW 04 : ... .. . ... : ... .. . ... : ... .. . ... : ... .. . ... : ... .. . ...
ROW 05 : ... .. . ... : ... .. . ... : ... .. . ... : ... .. . ... : ... .. . ...
ROW 06 : E-4 05 . ... : B-4 03 . ... : ... .. . ... : ... .. . ... : ... .. . ...
ROW 07 : ... .. . ... : ... .. . ... : ... .. . ... : ... .. . ... : ... .. . ...
ROW 08 : G-4 05 . ... : D-5 03 . ... : ... .. . ... : ... .. . ... : ... .. . ...
ROW 09 : ... .. . ... : ... .. . ... : ... .. . ... : ... .. . ... : ... .. . ...
ROW 0A : G-4 05 . ... : D-5 03 . ... : ... .. . ... : ... .. . ... : ... .. . ...
ROW 0B : ... .. . ... : ... .. . ... : ... .. . ... : ... .. . ... : ... .. . ...
ROW 0C : ... .. . ... : ... .. . ... : ... .. . ... : ... .. . ... : ... .. . ...
ROW 0D : ... .. . ... : ... .. . ... : ... .. . ... : ... .. . ... : ... .. . ...
ROW 0E : G-4 05 . ... : D-5 03 . ... : ... .. . ... : ... .. . ... : ... .. . ...
ROW 0F : ... .. . ... : ... .. . ... : ... .. . ... : ... .. . ... : ... .. . ...
ROW 10 : F-4 05 . ... : C-5 03 . ... : ... .. . ... : ... .. . ... : ... .. . ...
ROW 11 : ... .. . ... : ... .. . ... : ... .. . ... : ... .. . ... : ... .. . ...
ROW 12 : G-4 05 . ... : D-5 03 . ... : ... .. . ... : ... .. . ... : ... .. . ...
ROW 13 : ... .. . ... : ... .. . ... : ... .. . ... : ... .. . ... : ... .. . ...
ROW 14 : F-4 05 . ... : C-5 03 . ... : ... .. . ... : ... .. . ... : ... .. . ...
ROW 15 : ... .. . ... : ... .. . ... : ... .. . ... : ... .. . ... : ... .. . ...
ROW 16 : E-4 05 . ... : B-4 03 . ... : ... .. . ... : ... .. . ... : ... .. . ...
ROW 17 : ... .. . ... : ... .. . ... : ... .. . ... : ... .. . ... : ... .. . ...
ROW 18 : D-4 05 . ... : A-4 03 . ... : ... .. . ... : ... .. . ... : ... .. . ...
ROW 19 : ... .. . ... : ... .. . ... : ... .. . ... : ... .. . ... : ... .. . ...
ROW 1A : ... .. . ... : ... .. . ... : ... .. . ... : ... .. . ... : ... .. . ...
ROW 1B : ... .. . ... : ... .. . ... : ... .. . ... : ... .. . ... : ... .. . ...
ROW 1C : ... .. . ... : ... .. . ... : ... .. . ... : ... .. . ... : ... .. . ...
ROW 1D : ... .. . ... : ... .. . ... : ... .. . ... : ... .. . ... : ... .. . ...
ROW 1E : ... .. . ... : ... .. . ... : ... .. . ... : ... .. . ... : ... .. . ...
ROW 1F : ... .. . ... : ... .. . ... : ... .. . ... : ... .. . ... : ... .. . ...

PATTERN 08
ROW 00 : D-4 05 . ... : A-4 03 . ... : ... .. . ... : ... .. . ... : ... .. . ...
ROW 01 : ... .. . ... : ... .. . ... : ... .. . ... : ... .. . ... : ... .. . ...
ROW 02 : E-4 05 . ... : B-4 03 . ... : ... .. . ... : ... .. . ... : ... .. . ...
ROW 03 : ... .. . ... : ... .. . ... : ... .. . ... : ... .. . ... : ... .. . ...
ROW 04 : D-4 05 . ... : A-4 03 . ... : ... .. . ... : ... .. . ... : ... .. . ...
ROW 05 : ... .. . ... : ... .. . ... : ... .. . ... : ... .. . ... : ... .. . ...
ROW 06 : C-4 05 . ... : G-4 03 . ... : ... .. . ... : ... .. . ... : ... .. . ...
ROW 07 : ... .. . ... : ... .. . ... : ... .. . ... : ... .. . ... : ... .. . ...
ROW 08 : B-3 05 . ... : F#4 03 . ... : ... .. . ... : ... .. . ... : ... .. . ...
ROW 09 : ... .. . ... : ... .. . ... : ... .. . ... : ... .. . ... : ... .. . ...
ROW 0A : E-4 05 . ... : B-4 03 . ... : ... .. . ... : ... .. . ... : ... .. . ...
ROW 0B : --- .. . ... : --- .. . ... : ... .. . ... : ... .. . ... : ... .. . ...
ROW 0C : E-4 05 . ... : B-4 03 . ... : ... .. . ... : ... .. . ... : ... .. . ...
ROW 0D : ... .. . ... : ... .. . ... : ... .. . ... : ... .. . ... : ... .. . ...
ROW 0E : ... .. . ... : ... .. . ... : ... .. . ... : ... .. . ... : ... .. . ...
ROW 0F : ... .. . ... : ... .. . ... : ... .. . ... : ... .. . ... : ... .. . ...
ROW 10 : E-4 05 . ... : B-4 03 . ... : ... .. . ... : ... .. . ... : ... .. . ...
ROW 11 : ... .. . ... : ... .. . ... : ... .. . ... : ... .. . ... : ... .. . ...
ROW 12 : G-4 05 . ... : D-5 03 . ... : ... .. . ... : ... .. . ... : ... .. . ...
ROW 13 : ... .. . ... : ... .. . ... : ... .. . ... : ... .. . ... : ... .. . ...
ROW 14 : G-4 05 . ... : D-5 03 . ... : ... .. . ... : ... .. . ... : ... .. . ...
ROW 15 : ... .. . ... : ... .. . ... : ... .. . ... : ... .. . ... : ... .. . ...
ROW 16 : ... .. . ... : ... .. . ... : ... .. . ... : ... .. . ... : ... .. . ...
ROW 17 : ... .. . ... : ... .. . ... : ... .. . ... : ... .. . ... : ... .. . ...
ROW 18 : G-4 05 . ... : D-5 03 . ... : ... .. . ... : ... .. . ... : ... .. . ...
ROW 19 : ... .. . ... : ... .. . ... : ... .. . ... : ... .. . ... : ... .. . ...
ROW 1A : F-4 05 . ... : C-5 03 . ... : ... .. . ... : ... .. . ... : ... .. . ...
ROW 1B : ... .. . ... : ... .. . ... : ... .. . ... : ... .. . ... : ... .. . ...
ROW 1C : G-4 05 . ... : D-5 03 . ... : ... .. . ... : ... .. . ... : ... .. . ...
ROW 1D : ... .. . ... : ... .. . ... : ... .. . ... : ... .. . ... : ... .. . ...
ROW 1E : E-4 05 . ... : B-4 03 . ... : ... .. . ... : ... .. . ... : ... .. . ...
ROW 1F : ... .. . ... : ... .. . ... : ... .. . ... : ... .. . ... : ... .. . ...

TRACK   3   5 150 "sfx_slash"
COLUMNS : 1 1 1 1 1

ORDER 00 : 00 00 00 00 00

PATTERN 00
ROW 00 : ... .. . ... : ... .. . ... : ... .. . ... : 8-# 0B . ... : ... .. . ...
ROW 01 : ... .. . ... : ... .. . ... : ... .. . ... : B-# 0C . ... : ... .. . ...
ROW 02 : ... .. . ... : ... .. . ... : ... .. . ... : 0-# 00 . ... : ... .. . ...

TRACK  15   1 150 "sfx_monsterdeath"
COLUMNS : 1 1 1 1 1

ORDER 00 : 00 00 00 00 00

PATTERN 00
ROW 00 : E-2 0E . ... : ... .. . ... : ... .. . ... : ... .. . ... : ... .. . ...
ROW 01 : F-2 0E . ... : ... .. . ... : ... .. . ... : ... .. . ... : ... .. . ...
ROW 02 : G-2 0E . ... : ... .. . ... : ... .. . ... : ... .. . ... : ... .. . ...
ROW 03 : D-3 0E . ... : ... .. . ... : ... .. . ... : ... .. . ... : ... .. . ...
ROW 04 : D#2 0E . ... : ... .. . ... : ... .. . ... : ... .. . ... : ... .. . ...
ROW 05 : D-2 0E . ... : ... .. . ... : ... .. . ... : ... .. . ... : ... .. . ...
ROW 06 : C-2 0E . ... : ... .. . ... : ... .. . ... : ... .. . ... : ... .. . ...
ROW 07 : ... .. . ... : ... .. . ... : ... .. . ... : ... .. . ... : ... .. . ...
ROW 08 : ... .. . ... : ... .. . ... : ... .. . ... : ... .. . ... : ... .. . ...
ROW 09 : ... .. . ... : ... .. . ... : ... .. . ... : ... .. . ... : ... .. . ...
ROW 0A : ... .. . ... : ... .. . ... : ... .. . ... : ... .. . ... : ... .. . ...
ROW 0B : ... .. . ... : ... .. . ... : ... .. . ... : ... .. . ... : ... .. . ...
ROW 0C : C-3 00 . ... : ... .. . ... : ... .. . ... : ... .. . ... : ... .. . ...
ROW 0D : ... .. . ... : ... .. . ... : ... .. . ... : ... .. . ... : ... .. . ...
ROW 0E : ... .. . ... : ... .. . ... : ... .. . ... : ... .. . ... : ... .. . ...

TRACK   5   4 150 "sfx_cursor"
COLUMNS : 1 1 1 1 1

ORDER 00 : 00 00 00 00 00

PATTERN 00
ROW 00 : G-4 0A . ... : ... .. . ... : ... .. . ... : ... .. . ... : ... .. . ...
ROW 01 : A-3 0A . ... : ... .. . ... : ... .. . ... : ... .. . ... : ... .. . ...
ROW 02 : ... .. . ... : ... .. . ... : ... .. . ... : ... .. . ... : ... .. . ...
ROW 03 : C-4 00 . ... : ... .. . ... : ... .. . ... : ... .. . ... : ... .. . ...
ROW 04 : ... .. . ... : ... .. . ... : ... .. . ... : ... .. . ... : ... .. . ...

TRACK  30   1 150 "sfx_powerup"
COLUMNS : 1 1 1 1 1

ORDER 00 : 00 00 00 00 00

PATTERN 00
ROW 00 : F-3 0F . ... : ... .. . ... : ... .. . ... : ... .. . ... : ... .. . ...
ROW 01 : ... .. . ... : ... .. . ... : ... .. . ... : ... .. . ... : ... .. . ...
ROW 02 : G-3 0F . ... : ... .. . ... : ... .. . ... : ... .. . ... : ... .. . ...
ROW 03 : ... .. . ... : ... .. . ... : ... .. . ... : ... .. . ... : ... .. . ...
ROW 04 : A-3 0F . ... : ... .. . ... : ... .. . ... : ... .. . ... : ... .. . ...
ROW 05 : ... .. . ... : ... .. . ... : ... .. . ... : ... .. . ... : ... .. . ...
ROW 06 : B-3 0F . ... : ... .. . ... : ... .. . ... : ... .. . ... : ... .. . ...
ROW 07 : ... .. . ... : ... .. . ... : ... .. . ... : ... .. . ... : ... .. . ...
ROW 08 : C-4 0F . ... : ... .. . ... : ... .. . ... : ... .. . ... : ... .. . ...
ROW 09 : ... .. . ... : ... .. . ... : ... .. . ... : ... .. . ... : ... .. . ...
ROW 0A : D-4 0F . ... : ... .. . ... : ... .. . ... : ... .. . ... : ... .. . ...
ROW 0B : ... .. . ... : ... .. . ... : ... .. . ... : ... .. . ... : ... .. . ...
ROW 0C : E-4 0F . ... : ... .. . ... : ... .. . ... : ... .. . ... : ... .. . ...
ROW 0D : ... .. . ... : ... .. . ... : ... .. . ... : ... .. . ... : ... .. . ...
ROW 0E : ... .. . ... : ... .. . ... : ... .. . ... : ... .. . ... : ... .. . ...
ROW 0F : ... .. . ... : ... .. . ... : ... .. . ... : ... .. . ... : ... .. . ...
ROW 10 : ... .. . ... : ... .. . ... : ... .. . ... : ... .. . ... : ... .. . ...
ROW 11 : ... .. . ... : ... .. . ... : ... .. . ... : ... .. . ... : ... .. . ...
ROW 12 : ... .. . ... : ... .. . ... : ... .. . ... : ... .. . ... : ... .. . ...
ROW 13 : ... .. . ... : ... .. . ... : ... .. . ... : ... .. . ... : ... .. . ...
ROW 14 : ... .. . ... : ... .. . ... : ... .. . ... : ... .. . ... : ... .. . ...
ROW 15 : ... .. . ... : ... .. . ... : ... .. . ... : ... .. . ... : ... .. . ...
ROW 16 : ... .. . ... : ... .. . ... : ... .. . ... : ... .. . ... : ... .. . ...
ROW 17 : ... .. . ... : ... .. . ... : ... .. . ... : ... .. . ... : ... .. . ...
ROW 18 : C-4 00 . ... : ... .. . ... : ... .. . ... : ... .. . ... : ... .. . ...
ROW 19 : ... .. . ... : ... .. . ... : ... .. . ... : ... .. . ... : ... .. . ...
ROW 1A : ... .. . ... : ... .. . ... : ... .. . ... : ... .. . ... : ... .. . ...
ROW 1B : ... .. . ... : ... .. . ... : ... .. . ... : ... .. . ... : ... .. . ...
ROW 1C : ... .. . ... : ... .. . ... : ... .. . ... : ... .. . ... : ... .. . ...
ROW 1D : ... .. . ... : ... .. . ... : ... .. . ... : ... .. . ... : ... .. . ...

TRACK   5   5 150 "sfx_damage"
COLUMNS : 1 1 1 1 1

ORDER 00 : 00 00 00 00 00

PATTERN 00
ROW 00 : ... .. . ... : ... .. . ... : ... .. . ... : 0-# 03 . ... : ... .. . ...
ROW 01 : ... .. . ... : ... .. . ... : ... .. . ... : 4-# 03 . ... : ... .. . ...
ROW 02 : ... .. . ... : ... .. . ... : ... .. . ... : 0-# 00 . ... : ... .. . ...
ROW 03 : ... .. . ... : ... .. . ... : ... .. . ... : ... .. . ... : ... .. . ...
ROW 04 : ... .. . ... : ... .. . ... : ... .. . ... : ... .. . ... : ... .. . ...

TRACK  18   6 150 "sfx_dead"
COLUMNS : 1 1 1 1 1

ORDER 00 : 00 00 00 00 00

PATTERN 00
ROW 00 : A-2 01 . ... : ... .. . ... : ... .. . ... : ... .. . ... : ... .. . ...
ROW 01 : G-2 01 . ... : ... .. . ... : ... .. . ... : ... .. . ... : ... .. . ...
ROW 02 : F-2 01 . ... : ... .. . ... : ... .. . ... : ... .. . ... : ... .. . ...
ROW 03 : E-2 01 . ... : ... .. . ... : ... .. . ... : ... .. . ... : ... .. . ...
ROW 04 : D-2 01 . ... : ... .. . ... : ... .. . ... : ... .. . ... : ... .. . ...
ROW 05 : C-2 01 . ... : ... .. . ... : ... .. . ... : ... .. . ... : ... .. . ...
ROW 06 : B-1 01 . ... : ... .. . ... : ... .. . ... : ... .. . ... : ... .. . ...
ROW 07 : A-4 0D . ... : ... .. . ... : ... .. . ... : ... .. . ... : ... .. . ...
ROW 08 : ... .. . ... : ... .. . ... : ... .. . ... : ... .. . ... : ... .. . ...
ROW 09 : ... .. . ... : ... .. . ... : ... .. . ... : ... .. . ... : ... .. . ...
ROW 0A : ... .. . ... : ... .. . ... : ... .. . ... : ... .. . ... : ... .. . ...
ROW 0B : ... .. . ... : ... .. . ... : ... .. . ... : ... .. . ... : ... .. . ...
ROW 0C : A-1 03 . ... : ... .. . ... : ... .. . ... : ... .. . ... : ... .. . ...
ROW 0D : A-1 03 . ... : ... .. . ... : ... .. . ... : ... .. . ... : ... .. . ...
ROW 0E : A-1 03 . ... : ... .. . ... : ... .. . ... : ... .. . ... : ... .. . ...
ROW 0F : ... .. . ... : ... .. . ... : ... .. . ... : ... .. . ... : ... .. . ...
ROW 10 : C-4 00 . ... : ... .. . ... : ... .. . ... : ... .. . ... : ... .. . ...
ROW 11 : ... .. . ... : ... .. . ... : ... .. . ... : ... .. . ... : ... .. . ...

TRACK   3   6 150 "sfx_laser"
COLUMNS : 1 1 1 1 1

ORDER 00 : 00 00 00 00 00

PATTERN 00
ROW 00 : B-4 10 . ... : ... .. . ... : ... .. . ... : ... .. . ... : ... .. . ...
ROW 01 : ... .. . ... : ... .. . ... : ... .. . ... : ... .. . ... : ... .. . ...
ROW 02 : C-4 00 . ... : ... .. . ... : ... .. . ... : ... .. . ... : ... .. . ...

TRACK   3   6 150 "sfx_stun"
COLUMNS : 1 1 1 1 1

ORDER 00 : 00 00 00 00 00

PATTERN 00
ROW 00 : F-3 10 . ... : ... .. . ... : ... .. . ... : ... .. . ... : ... .. . ...
ROW 01 : E-3 10 . ... : ... .. . ... : ... .. . ... : ... .. . ... : ... .. . ...
ROW 02 : C-4 00 . ... : ... .. . ... : ... .. . ... : ... .. . ... : ... .. . ...

TRACK   4   3 150 "sfx_kerchunk"
COLUMNS : 1 1 1 1 1

ORDER 00 : 00 00 00 00 00

PATTERN 00
ROW 00 : G-2 0F . ... : ... .. . ... : ... .. . ... : 4-# 0F . ... : ... .. . ...
ROW 01 : F-2 0F . ... : ... .. . ... : ... .. . ... : 5-# 0F . ... : ... .. . ...
ROW 02 : E-2 0F . ... : ... .. . ... : ... .. . ... : 2-# 0F . ... : ... .. . ...
ROW 03 : C-2 00 . ... : ... .. . ... : ... .. . ... : 0-# 00 . ... : ... .. . ...

TRACK   5   3 150 "sfx_zip"
COLUMNS : 1 1 1 1 1

ORDER 00 : 00 00 00 00 00

PATTERN 00
ROW 00 : G-3 01 . ... : ... .. . ... : ... .. . ... : ... .. . ... : ... .. . ...
ROW 01 : G#3 01 . ... : ... .. . ... : ... .. . ... : ... .. . ... : ... .. . ...
ROW 02 : A-3 01 . ... : ... .. . ... : ... .. . ... : ... .. . ... : ... .. . ...
ROW 03 : ... .. . ... : ... .. . ... : ... .. . ... : ... .. . ... : ... .. . ...
ROW 04 : C-3 00 . ... : ... .. . ... : ... .. . ... : ... .. . ... : ... .. . ...

TRACK  21   1 150 "sfx_vom"
COLUMNS : 1 1 1 1 1

ORDER 00 : 00 00 00 00 00

PATTERN 00
ROW 00 : G-4 10 . ... : ... .. . ... : ... .. . ... : ... .. . ... : ... .. . ...
ROW 01 : A-4 0F . ... : ... .. . ... : ... .. . ... : ... .. . ... : ... .. . ...
ROW 02 : F#3 0E . ... : ... .. . ... : ... .. . ... : ... .. . ... : ... .. . ...
ROW 03 : D#3 0B . ... : ... .. . ... : ... .. . ... : ... .. . ... : ... .. . ...
ROW 04 : ... .. . ... : ... .. . ... : ... .. . ... : ... .. . ... : ... .. . ...
ROW 05 : B-4 03 . ... : ... .. . ... : ... .. . ... : ... .. . ... : ... .. . ...
ROW 06 : A-3 01 . ... : ... .. . ... : ... .. . ... : ... .. . ... : ... .. . ...
ROW 07 : E-3 05 . ... : ... .. . ... : ... .. . ... : ... .. . ... : ... .. . ...
ROW 08 : ... .. . ... : ... .. . ... : ... .. . ... : ... .. . ... : ... .. . ...
ROW 09 : E-3 02 . ... : ... .. . ... : ... .. . ... : ... .. . ... : ... .. . ...
ROW 0A : F-3 02 . ... : ... .. . ... : ... .. . ... : ... .. . ... : ... .. . ...
ROW 0B : G-3 02 . ... : ... .. . ... : ... .. . ... : ... .. . ... : ... .. . ...
ROW 0C : A-3 02 . ... : ... .. . ... : ... .. . ... : ... .. . ... : ... .. . ...
ROW 0D : B-3 02 . ... : ... .. . ... : ... .. . ... : ... .. . ... : ... .. . ...
ROW 0E : C-4 02 . ... : ... .. . ... : ... .. . ... : ... .. . ... : ... .. . ...
ROW 0F : D-4 02 . ... : ... .. . ... : ... .. . ... : ... .. . ... : ... .. . ...
ROW 10 : E-4 02 . ... : ... .. . ... : ... .. . ... : ... .. . ... : ... .. . ...
ROW 11 : F-4 02 . ... : ... .. . ... : ... .. . ... : ... .. . ... : ... .. . ...
ROW 12 : G-4 02 . ... : ... .. . ... : ... .. . ... : ... .. . ... : ... .. . ...
ROW 13 : ... .. . ... : ... .. . ... : ... .. . ... : ... .. . ... : ... .. . ...
ROW 14 : --- .. . ... : ... .. . ... : ... .. . ... : ... .. . ... : ... .. . ...

TRACK   4   3 150 "sfx_vector"
COLUMNS : 1 1 1 1 1

ORDER 00 : 00 00 00 00 00

PATTERN 00
ROW 00 : C-5 10 . ... : ... .. . ... : ... .. . ... : ... .. . ... : ... .. . ...
ROW 01 : G-3 10 . ... : ... .. . ... : ... .. . ... : ... .. . ... : ... .. . ...
ROW 02 : D-3 10 . ... : ... .. . ... : ... .. . ... : ... .. . ... : ... .. . ...
ROW 03 : C-4 00 . ... : ... .. . ... : ... .. . ... : ... .. . ... : ... .. . ...

TRACK   4   3 150 "sfx_hungry"
COLUMNS : 1 1 1 1 1

ORDER 00 : 00 00 00 00 00

PATTERN 00
ROW 00 : E-2 02 . ... : ... .. . ... : ... .. . ... : ... .. . ... : ... .. . ...
ROW 01 : C-2 01 . ... : ... .. . ... : ... .. . ... : ... .. . ... : ... .. . ...
ROW 02 : ... .. . ... : ... .. . ... : ... .. . ... : ... .. . ... : ... .. . ...
ROW 03 : C-4 00 . ... : ... .. . ... : ... .. . ... : ... .. . ... : ... .. . ...

TRACK   4   6 150 "sfx_whip"
COLUMNS : 1 1 1 1 1

ORDER 00 : 00 00 00 00 00

PATTERN 00
ROW 00 : ... .. . ... : ... .. . ... : ... .. . ... : E-# 01 . ... : ... .. . ...
ROW 01 : ... .. . ... : ... .. . ... : ... .. . ... : C-# 10 . ... : ... .. . ...
ROW 02 : ... .. . ... : ... .. . ... : ... .. . ... : ... .. . ... : ... .. . ...
ROW 03 : ... .. . ... : ... .. . ... : ... .. . ... : 0-# 00 . ... : ... .. . ...

TRACK  15   3 150 "sfx_woot"
COLUMNS : 1 1 1 1 1

ORDER 00 : 00 00 00 00 00

PATTERN 00
ROW 00 : B-4 03 . ... : ... .. . ... : ... .. . ... : ... .. . ... : ... .. . ...
ROW 01 : A-4 03 . ... : ... .. . ... : ... .. . ... : ... .. . ... : ... .. . ...
ROW 02 : B-4 03 . ... : ... .. . ... : ... .. . ... : ... .. . ... : ... .. . ...
ROW 03 : ... .. . ... : ... .. . ... : ... .. . ... : ... .. . ... : ... .. . ...
ROW 04 : A-4 03 . ... : ... .. . ... : ... .. . ... : ... .. . ... : ... .. . ...
ROW 05 : G-4 03 . ... : ... .. . ... : ... .. . ... : ... .. . ... : ... .. . ...
ROW 06 : F#4 03 . ... : ... .. . ... : ... .. . ... : ... .. . ... : ... .. . ...
ROW 07 : F-4 03 . ... : ... .. . ... : ... .. . ... : ... .. . ... : ... .. . ...
ROW 08 : ... .. . ... : ... .. . ... : ... .. . ... : ... .. . ... : ... .. . ...
ROW 09 : F#4 03 . ... : ... .. . ... : ... .. . ... : ... .. . ... : ... .. . ...
ROW 0A : ... .. . ... : ... .. . ... : ... .. . ... : ... .. . ... : ... .. . ...
ROW 0B : ... .. . ... : ... .. . ... : ... .. . ... : ... .. . ... : ... .. . ...
ROW 0C : C-4 00 . ... : ... .. . ... : ... .. . ... : ... .. . ... : ... .. . ...
ROW 0D : ... .. . ... : ... .. . ... : ... .. . ... : ... .. . ... : ... .. . ...
ROW 0E : ... .. . ... : ... .. . ... : ... .. . ... : ... .. . ... : ... .. . ...

TRACK   2   5 150 "sfx_thump"
COLUMNS : 1 1 1 1 1

ORDER 00 : 00 00 00 00 00

PATTERN 00
ROW 00 : ... .. . ... : ... .. . ... : C-3 10 . ... : ... .. . ... : ... .. . ...
ROW 01 : ... .. . ... : ... .. . ... : C-4 00 . ... : ... .. . ... : ... .. . ...

TRACK   3   6 150 "sfx_flick"
COLUMNS : 1 1 1 1 1

ORDER 00 : 00 00 00 00 00

PATTERN 00
ROW 00 : ... .. . ... : ... .. . ... : ... .. . ... : 7-# 10 . ... : ... .. . ...
ROW 01 : ... .. . ... : ... .. . ... : ... .. . ... : 9-# 10 . ... : ... .. . ...
ROW 02 : ... .. . ... : ... .. . ... : ... .. . ... : 0-# 00 . ... : ... .. . ...

TRACK   5   6 150 "sfx_bonk"
COLUMNS : 1 1 1 1 1

ORDER 00 : 00 00 00 00 00

PATTERN 00
ROW 00 : C-3 10 . ... : ... .. . ... : ... .. . ... : ... .. . ... : ... .. . ...
ROW 01 : E-3 10 . ... : ... .. . ... : ... .. . ... : ... .. . ... : ... .. . ...
ROW 02 : ... .. . ... : ... .. . ... : ... .. . ... : ... .. . ... : ... .. . ...
ROW 03 : ... .. . ... : ... .. . ... : ... .. . ... : ... .. . ... : ... .. . ...
ROW 04 : C-3 00 . ... : ... .. . ... : ... .. . ... : ... .. . ... : ... .. . ...

TRACK   6   3 150 "sfx_wetsocks"
COLUMNS : 1 1 1 1 1

ORDER 00 : 00 00 00 00 00

PATTERN 00
ROW 00 : E-5 10 . ... : ... .. . ... : ... .. . ... : ... .. . ... : ... .. . ...
ROW 01 : B-4 10 . ... : ... .. . ... : ... .. . ... : ... .. . ... : ... .. . ...
ROW 02 : A-4 10 . ... : ... .. . ... : ... .. . ... : ... .. . ... : ... .. . ...
ROW 03 : F-3 10 . ... : ... .. . ... : ... .. . ... : ... .. . ... : ... .. . ...
ROW 04 : ... .. . ... : ... .. . ... : ... .. . ... : ... .. . ... : ... .. . ...
ROW 05 : C-4 00 . ... : ... .. . ... : ... .. . ... : ... .. . ... : ... .. . ...

TRACK   4   3 150 "sfx_flip"
COLUMNS : 1 1 1 1 1

ORDER 00 : 00 00 00 00 00

PATTERN 00
ROW 00 : D-3 0E . ... : ... .. . ... : ... .. . ... : ... .. . ... : ... .. . ...
ROW 01 : A-3 0C . ... : ... .. . ... : ... .. . ... : ... .. . ... : ... .. . ...
ROW 02 : G#4 10 . ... : ... .. . ... : ... .. . ... : ... .. . ... : ... .. . ...
ROW 03 : C-4 00 . ... : ... .. . ... : ... .. . ... : ... .. . ... : ... .. . ...

# End of export
